<?xml version="1.0" encoding="utf-8" standalone="no"?>
<!DOCTYPE svg PUBLIC "-//W3C//DTD SVG 1.1//EN"
  "http://www.w3.org/Graphics/SVG/1.1/DTD/svg11.dtd">
<svg xmlns:xlink="http://www.w3.org/1999/xlink" width="733.318125pt" height="212.970423pt" viewBox="0 0 733.318125 212.970423" xmlns="http://www.w3.org/2000/svg" version="1.1">
 <metadata>
  <rdf:RDF xmlns:dc="http://purl.org/dc/elements/1.1/" xmlns:cc="http://creativecommons.org/ns#" xmlns:rdf="http://www.w3.org/1999/02/22-rdf-syntax-ns#">
   <cc:Work>
    <dc:type rdf:resource="http://purl.org/dc/dcmitype/StillImage"/>
    <dc:date>2026-05-27T21:40:14.027407</dc:date>
    <dc:format>image/svg+xml</dc:format>
    <dc:creator>
     <cc:Agent>
      <dc:title>Matplotlib v3.9.4, https://matplotlib.org/</dc:title>
     </cc:Agent>
    </dc:creator>
   </cc:Work>
  </rdf:RDF>
 </metadata>
 <defs>
  <style type="text/css">*{stroke-linejoin: round; stroke-linecap: butt}</style>
 </defs>
 <g id="figure_1">
  <g id="patch_1">
   <path d="M 0 212.970423 
L 733.318125 212.970423 
L 733.318125 0 
L 0 0 
z
" style="fill: #f8fafc"/>
  </g>
  <g id="axes_1">
   <g id="patch_2">
    <path d="M 45.718125 205.770423 
L 229.610017 205.770423 
L 229.610017 32.106423 
L 45.718125 32.106423 
z
" style="fill: #f8fafc"/>
   </g>
   <g id="patch_3">
    <path d="M 54.076847 141.266652 
L 69.274524 141.266652 
L 69.274524 97.409869 
L 54.076847 97.409869 
z
" clip-path="url(#p27ca22a2f9)" style="fill: #ede9fe; stroke: #7c3aed; stroke-width: 1.2; stroke-linejoin: miter"/>
   </g>
   <g id="patch_4">
    <path d="M 75.787815 141.266652 
L 90.985492 141.266652 
L 90.985492 97.409869 
L 75.787815 97.409869 
z
" clip-path="url(#p27ca22a2f9)" style="fill: #ede9fe; stroke: #7c3aed; stroke-width: 1.2; stroke-linejoin: miter"/>
   </g>
   <g id="patch_5">
    <path d="M 97.498782 141.266652 
L 112.696459 141.266652 
L 112.696459 97.409869 
L 97.498782 97.409869 
z
" clip-path="url(#p27ca22a2f9)" style="fill: #ede9fe; stroke: #7c3aed; stroke-width: 1.2; stroke-linejoin: miter"/>
   </g>
   <g id="patch_6">
    <path d="M 119.209749 141.266652 
L 134.407426 141.266652 
L 134.407426 97.409869 
L 119.209749 97.409869 
z
" clip-path="url(#p27ca22a2f9)" style="fill: #ede9fe; stroke: #7c3aed; stroke-width: 1.2; stroke-linejoin: miter"/>
   </g>
   <g id="patch_7">
    <path d="M 140.920716 141.266652 
L 156.118393 141.266652 
L 156.118393 97.409869 
L 140.920716 97.409869 
z
" clip-path="url(#p27ca22a2f9)" style="fill: #ede9fe; stroke: #7c3aed; stroke-width: 1.2; stroke-linejoin: miter"/>
   </g>
   <g id="patch_8">
    <path d="M 162.631683 141.266652 
L 177.82936 141.266652 
L 177.82936 97.409869 
L 162.631683 97.409869 
z
" clip-path="url(#p27ca22a2f9)" style="fill: #ede9fe; stroke: #7c3aed; stroke-width: 1.2; stroke-linejoin: miter"/>
   </g>
   <g id="patch_9">
    <path d="M 184.34265 141.266652 
L 199.540327 141.266652 
L 199.540327 97.409869 
L 184.34265 97.409869 
z
" clip-path="url(#p27ca22a2f9)" style="fill: #ede9fe; stroke: #7c3aed; stroke-width: 1.2; stroke-linejoin: miter"/>
   </g>
   <g id="patch_10">
    <path d="M 206.053618 141.266652 
L 221.251295 141.266652 
L 221.251295 97.409869 
L 206.053618 97.409869 
z
" clip-path="url(#p27ca22a2f9)" style="fill: #ede9fe; stroke: #7c3aed; stroke-width: 1.2; stroke-linejoin: miter"/>
   </g>
   <g id="matplotlib.axis_1"/>
   <g id="matplotlib.axis_2">
    <g id="ytick_1">
     <g id="line2d_1">
      <defs>
       <path id="ma927ddf7c0" d="M 0 0 
L -3.5 0 
" style="stroke: #000000; stroke-width: 0.8"/>
      </defs>
      <g>
       <use xlink:href="#ma927ddf7c0" x="45.718125" y="190.884937" style="stroke: #000000; stroke-width: 0.8"/>
      </g>
     </g>
     <g id="text_1">
      <!-- −0.4 -->
      <g transform="translate(18.9775 194.463844) scale(0.1 -0.1)">
       <defs>
        <path id="ArialUnicodeMS-2212" d="M 3384 1997 
L 353 1997 
L 353 2522 
L 3384 2522 
L 3384 1997 
z
" transform="scale(0.015625)"/>
        <path id="ArialUnicodeMS-30" d="M 1778 4603 
Q 3272 4603 3272 2259 
Q 3272 1075 2886 498 
Q 2500 -78 1778 -78 
Q 288 -78 288 2259 
Q 288 3444 673 4023 
Q 1059 4603 1778 4603 
z
M 1778 384 
Q 2231 384 2462 823 
Q 2694 1263 2694 2259 
Q 2694 2953 2592 3351 
Q 2491 3750 2286 3945 
Q 2081 4141 1772 4141 
Q 1319 4141 1091 3694 
Q 863 3247 863 2259 
Q 863 1575 966 1175 
Q 1069 775 1272 579 
Q 1475 384 1778 384 
z
" transform="scale(0.015625)"/>
        <path id="ArialUnicodeMS-2e" d="M 1209 0 
L 569 0 
L 569 641 
L 1209 641 
L 1209 0 
z
" transform="scale(0.015625)"/>
        <path id="ArialUnicodeMS-34" d="M 3263 1094 
L 2644 1094 
L 2644 0 
L 2081 0 
L 2081 1094 
L 97 1094 
L 97 1613 
L 2181 4581 
L 2644 4581 
L 2644 1613 
L 3263 1613 
L 3263 1094 
z
M 2081 1613 
L 2081 3681 
L 2069 3681 
L 647 1613 
L 2081 1613 
z
" transform="scale(0.015625)"/>
       </defs>
       <use xlink:href="#ArialUnicodeMS-2212"/>
       <use xlink:href="#ArialUnicodeMS-30" x="58.398438"/>
       <use xlink:href="#ArialUnicodeMS-2e" x="114.013672"/>
       <use xlink:href="#ArialUnicodeMS-34" x="141.796875"/>
      </g>
     </g>
    </g>
    <g id="ytick_2">
     <g id="line2d_2">
      <g>
       <use xlink:href="#ma927ddf7c0" x="45.718125" y="166.075795" style="stroke: #000000; stroke-width: 0.8"/>
      </g>
     </g>
     <g id="text_2">
      <!-- −0.2 -->
      <g transform="translate(18.9775 169.654701) scale(0.1 -0.1)">
       <defs>
        <path id="ArialUnicodeMS-32" d="M 3231 0 
L 197 0 
Q 197 388 467 784 
Q 738 1181 1478 1778 
Q 1931 2141 2287 2539 
Q 2644 2938 2644 3341 
Q 2644 3688 2398 3914 
Q 2153 4141 1778 4141 
Q 1400 4141 1144 3908 
Q 888 3675 884 3213 
L 306 3278 
Q 359 3922 764 4262 
Q 1169 4603 1791 4603 
Q 2466 4603 2842 4229 
Q 3219 3856 3219 3328 
Q 3219 2888 2901 2436 
Q 2584 1984 1638 1228 
Q 1141 831 978 544 
L 3231 544 
L 3231 0 
z
" transform="scale(0.015625)"/>
       </defs>
       <use xlink:href="#ArialUnicodeMS-2212"/>
       <use xlink:href="#ArialUnicodeMS-30" x="58.398438"/>
       <use xlink:href="#ArialUnicodeMS-2e" x="114.013672"/>
       <use xlink:href="#ArialUnicodeMS-32" x="141.796875"/>
      </g>
     </g>
    </g>
    <g id="ytick_3">
     <g id="line2d_3">
      <g>
       <use xlink:href="#ma927ddf7c0" x="45.718125" y="141.266652" style="stroke: #000000; stroke-width: 0.8"/>
      </g>
     </g>
     <g id="text_3">
      <!-- 0.0 -->
      <g transform="translate(24.818125 144.845558) scale(0.1 -0.1)">
       <use xlink:href="#ArialUnicodeMS-30"/>
       <use xlink:href="#ArialUnicodeMS-2e" x="55.615234"/>
       <use xlink:href="#ArialUnicodeMS-30" x="83.398438"/>
      </g>
     </g>
    </g>
    <g id="ytick_4">
     <g id="line2d_4">
      <g>
       <use xlink:href="#ma927ddf7c0" x="45.718125" y="116.457509" style="stroke: #000000; stroke-width: 0.8"/>
      </g>
     </g>
     <g id="text_4">
      <!-- 0.2 -->
      <g transform="translate(24.818125 120.036415) scale(0.1 -0.1)">
       <use xlink:href="#ArialUnicodeMS-30"/>
       <use xlink:href="#ArialUnicodeMS-2e" x="55.615234"/>
       <use xlink:href="#ArialUnicodeMS-32" x="83.398438"/>
      </g>
     </g>
    </g>
    <g id="ytick_5">
     <g id="line2d_5">
      <g>
       <use xlink:href="#ma927ddf7c0" x="45.718125" y="91.648366" style="stroke: #000000; stroke-width: 0.8"/>
      </g>
     </g>
     <g id="text_5">
      <!-- 0.4 -->
      <g transform="translate(24.818125 95.227272) scale(0.1 -0.1)">
       <use xlink:href="#ArialUnicodeMS-30"/>
       <use xlink:href="#ArialUnicodeMS-2e" x="55.615234"/>
       <use xlink:href="#ArialUnicodeMS-34" x="83.398438"/>
      </g>
     </g>
    </g>
    <g id="ytick_6">
     <g id="line2d_6">
      <g>
       <use xlink:href="#ma927ddf7c0" x="45.718125" y="66.839223" style="stroke: #000000; stroke-width: 0.8"/>
      </g>
     </g>
     <g id="text_6">
      <!-- 0.6 -->
      <g transform="translate(24.818125 70.418129) scale(0.1 -0.1)">
       <defs>
        <path id="ArialUnicodeMS-36" d="M 838 2363 
Q 1225 2969 1941 2969 
Q 2503 2969 2897 2553 
Q 3291 2138 3291 1491 
Q 3291 838 2898 380 
Q 2506 -78 1856 -78 
Q 1197 -78 733 409 
Q 269 897 269 2144 
Q 269 3369 689 3986 
Q 1109 4603 1906 4603 
Q 2422 4603 2778 4315 
Q 3134 4028 3213 3463 
L 2650 3413 
Q 2497 4141 1875 4141 
Q 1444 4141 1134 3712 
Q 825 3284 825 2363 
L 838 2363 
z
M 1844 384 
Q 2231 384 2472 696 
Q 2713 1009 2713 1453 
Q 2713 1897 2472 2187 
Q 2231 2478 1825 2478 
Q 1453 2478 1184 2204 
Q 916 1931 916 1484 
Q 916 1028 1180 706 
Q 1444 384 1844 384 
z
" transform="scale(0.015625)"/>
       </defs>
       <use xlink:href="#ArialUnicodeMS-30"/>
       <use xlink:href="#ArialUnicodeMS-2e" x="55.615234"/>
       <use xlink:href="#ArialUnicodeMS-36" x="83.398438"/>
      </g>
     </g>
    </g>
    <g id="ytick_7">
     <g id="line2d_7">
      <g>
       <use xlink:href="#ma927ddf7c0" x="45.718125" y="42.03008" style="stroke: #000000; stroke-width: 0.8"/>
      </g>
     </g>
     <g id="text_7">
      <!-- 0.8 -->
      <g transform="translate(24.818125 45.608987) scale(0.1 -0.1)">
       <defs>
        <path id="ArialUnicodeMS-38" d="M 2425 2478 
Q 3284 2203 3284 1306 
Q 3284 716 2862 319 
Q 2441 -78 1778 -78 
Q 1109 -78 689 322 
Q 269 722 269 1325 
Q 269 1759 505 2084 
Q 741 2409 1141 2478 
L 1141 2491 
Q 453 2703 453 3419 
Q 453 3925 815 4264 
Q 1178 4603 1766 4603 
Q 2363 4603 2730 4253 
Q 3097 3903 3097 3406 
Q 3097 2731 2425 2491 
L 2425 2478 
z
M 1778 2700 
Q 2094 2700 2308 2901 
Q 2522 3103 2522 3406 
Q 2522 3716 2305 3928 
Q 2088 4141 1772 4141 
Q 1450 4141 1240 3931 
Q 1031 3722 1031 3438 
Q 1031 3097 1247 2898 
Q 1463 2700 1778 2700 
z
M 1778 384 
Q 2175 384 2440 640 
Q 2706 897 2706 1306 
Q 2706 1716 2432 1978 
Q 2159 2241 1766 2241 
Q 1356 2241 1100 1970 
Q 844 1700 844 1319 
Q 844 922 1108 653 
Q 1372 384 1778 384 
z
" transform="scale(0.015625)"/>
       </defs>
       <use xlink:href="#ArialUnicodeMS-30"/>
       <use xlink:href="#ArialUnicodeMS-2e" x="55.615234"/>
       <use xlink:href="#ArialUnicodeMS-38" x="83.398438"/>
      </g>
     </g>
    </g>
    <g id="text_8">
     <!-- 概率幅 -->
     <g style="fill: #64748b" transform="translate(13.284141 131.688423) rotate(-90) scale(0.085 -0.085)">
      <defs>
       <path id="ArialUnicodeMS-6982" d="M 6181 666 
Q 6122 175 6040 -33 
Q 5959 -241 5843 -297 
Q 5728 -353 5259 -353 
Q 4850 -353 4850 141 
L 4850 1563 
Q 4538 466 3584 -447 
L 3219 -78 
Q 3556 206 3847 594 
L 3700 506 
Q 3694 528 3625 664 
Q 3556 800 3531 856 
Q 3213 697 2053 231 
L 1797 697 
L 2253 850 
L 2253 1869 
L 2081 1747 
Q 1897 2188 1691 2472 
L 1691 -428 
L 1203 -428 
L 1203 2222 
L 1191 2222 
Q 1075 1784 550 1056 
L 191 1369 
Q 866 2188 1178 3566 
L 459 3566 
L 459 4031 
L 1203 4031 
L 1203 5275 
L 1691 5275 
L 1691 4031 
L 2253 4031 
L 2253 5081 
L 3775 5081 
L 3775 2438 
L 2725 2438 
L 2725 997 
L 3359 1275 
Q 3178 1613 3009 1825 
L 3391 2028 
Q 3759 1650 4063 922 
Q 4463 1609 4653 2516 
L 3859 2516 
L 3859 2981 
L 4025 2981 
L 4025 5063 
L 5806 5063 
L 5806 4594 
L 5294 4594 
Q 5234 3228 5184 2981 
L 5919 2981 
L 5919 2516 
L 5106 2516 
Q 5097 2353 5044 2175 
L 5294 2175 
L 5294 238 
Q 5294 91 5453 91 
Q 5594 91 5639 198 
Q 5684 306 5741 878 
L 6181 666 
z
M 4831 4594 
L 4494 4594 
L 4494 2981 
L 4728 2981 
Q 4831 3631 4831 4594 
z
M 3297 4013 
L 3297 4594 
L 2725 4594 
L 2725 4013 
L 3297 4013 
z
M 2253 2450 
L 2253 3566 
L 1691 3566 
L 1691 2956 
L 1844 3022 
Q 2034 2809 2253 2450 
z
M 3297 2906 
L 3297 3547 
L 2725 3547 
L 2725 2906 
L 3297 2906 
z
" transform="scale(0.015625)"/>
       <path id="ArialUnicodeMS-7387" d="M 5663 4313 
L 3469 4313 
Q 3113 3806 2828 3488 
L 3244 3309 
Q 3453 3538 3822 4078 
L 4263 3872 
Q 3531 2878 3022 2356 
L 3809 2406 
Q 3738 2594 3591 2822 
L 4019 2969 
Q 4375 2419 4459 1813 
L 3988 1678 
Q 3988 1806 3938 1966 
L 2150 1819 
L 1997 2316 
L 2431 2328 
Q 2616 2500 2931 2906 
Q 2372 3163 1978 3278 
L 2203 3731 
L 2419 3647 
Q 2634 3900 2888 4313 
L 709 4313 
L 709 4781 
L 2956 4781 
L 2956 5375 
L 3444 5375 
L 3444 4781 
L 5663 4781 
L 5663 4313 
z
M 5734 3922 
Q 5091 3316 4581 3128 
L 4294 3553 
Q 4947 3791 5447 4281 
L 5734 3922 
z
M 1984 3397 
L 1619 3059 
Q 1263 3534 653 3853 
L 947 4184 
Q 1531 3975 1984 3397 
z
M 2131 2597 
Q 1419 2031 763 1813 
L 459 2209 
Q 1238 2447 1863 2994 
L 2131 2597 
z
M 5906 2216 
L 5619 1831 
Q 5109 2341 4306 2553 
L 4550 2938 
Q 5391 2722 5906 2216 
z
M 5941 1038 
L 3456 1038 
L 3456 -441 
L 2963 -441 
L 2963 1038 
L 459 1038 
L 459 1503 
L 2963 1503 
L 2963 1831 
L 3456 1831 
L 3456 1503 
L 5941 1503 
L 5941 1038 
z
" transform="scale(0.015625)"/>
       <path id="ArialUnicodeMS-5e45" d="M 2528 1478 
Q 2528 1294 2429 1178 
Q 2331 1063 2187 1048 
Q 2044 1034 1819 1025 
L 1747 1369 
L 1747 -441 
L 1269 -441 
L 1269 3572 
L 1031 3572 
L 1031 891 
L 544 891 
L 544 4038 
L 1269 4038 
L 1269 5306 
L 1753 5306 
L 1753 4038 
L 2528 4038 
L 2528 1478 
z
M 2041 1644 
L 2041 3572 
L 1753 3572 
L 1753 1503 
Q 2041 1484 2041 1644 
z
M 5913 4556 
L 2400 4556 
L 2400 5025 
L 5913 5025 
L 5913 4556 
z
M 5363 2881 
L 3022 2881 
L 3022 4306 
L 5363 4306 
L 5363 2881 
z
M 4878 3347 
L 4878 3841 
L 3506 3841 
L 3506 3347 
L 4878 3347 
z
M 5619 -416 
L 5131 -416 
L 5131 -38 
L 3231 -38 
L 3231 -441 
L 2747 -441 
L 2747 2566 
L 5619 2566 
L 5619 -416 
z
M 5131 1516 
L 5131 2100 
L 4428 2100 
L 4428 1516 
L 5131 1516 
z
M 3944 1516 
L 3944 2100 
L 3231 2100 
L 3231 1516 
L 3944 1516 
z
M 5131 428 
L 5131 1050 
L 4428 1050 
L 4428 428 
L 5131 428 
z
M 3944 428 
L 3944 1050 
L 3231 1050 
L 3231 428 
L 3944 428 
z
" transform="scale(0.015625)"/>
      </defs>
      <use xlink:href="#ArialUnicodeMS-6982"/>
      <use xlink:href="#ArialUnicodeMS-7387" x="100"/>
      <use xlink:href="#ArialUnicodeMS-5e45" x="200"/>
     </g>
    </g>
   </g>
   <g id="line2d_8">
    <path d="M 45.718125 141.266652 
L 229.610017 141.266652 
" clip-path="url(#p27ca22a2f9)" style="fill: none; stroke: #334155; stroke-width: 0.7; stroke-linecap: square"/>
   </g>
   <g id="patch_11">
    <path d="M 45.718125 205.770423 
L 45.718125 32.106423 
" style="fill: none; stroke: #cbd5e1; stroke-width: 0.8; stroke-linejoin: miter; stroke-linecap: square"/>
   </g>
   <g id="patch_12">
    <path d="M 45.718125 205.770423 
L 229.610017 205.770423 
" style="fill: none; stroke: #cbd5e1; stroke-width: 0.8; stroke-linejoin: miter; stroke-linecap: square"/>
   </g>
   <g id="text_9">
    <!-- 所有答案等概率 -->
    <g style="fill: #64748b" transform="translate(109.664071 202.049052) scale(0.08 -0.08)">
     <defs>
      <path id="ArialUnicodeMS-6240" d="M 6138 2869 
L 5253 2869 
L 5253 -409 
L 4769 -409 
L 4769 2869 
L 4006 2869 
L 4006 2009 
Q 4006 338 3128 -447 
L 2731 -116 
Q 3488 519 3488 2028 
L 3488 4641 
Q 4541 4725 5575 5381 
L 5953 5006 
Q 4928 4353 4006 4231 
L 4006 3334 
L 6138 3334 
L 6138 2869 
z
M 3334 4519 
L 538 4519 
L 538 4978 
L 3334 4978 
L 3334 4519 
z
M 2969 1772 
L 1428 1772 
Q 1419 466 653 -391 
L 269 -31 
Q 613 356 767 773 
Q 922 1191 922 1966 
L 922 3756 
L 2969 3756 
L 2969 1772 
z
M 2463 2241 
L 2463 3291 
L 1428 3291 
L 1428 2241 
L 2463 2241 
z
" transform="scale(0.015625)"/>
      <path id="ArialUnicodeMS-6709" d="M 5991 4031 
L 2547 4031 
Q 2403 3600 2316 3438 
L 5216 3438 
L 5216 166 
Q 5178 -269 4550 -269 
L 4031 -269 
L 3809 225 
Q 4103 184 4447 184 
Q 4728 184 4728 300 
L 4728 934 
L 2322 934 
L 2322 -416 
L 1813 -416 
L 1813 2656 
Q 1644 2369 738 1434 
L 288 1728 
Q 1619 2903 2022 4031 
L 678 4031 
L 678 4500 
L 2203 4500 
Q 2288 4700 2450 5403 
L 2944 5294 
Q 2884 5041 2731 4500 
L 5991 4500 
L 5991 4031 
z
M 4728 2450 
L 4728 2969 
L 2322 2969 
L 2322 2450 
L 4728 2450 
z
M 4728 1403 
L 4728 1984 
L 2322 1984 
L 2322 1403 
L 4728 1403 
z
" transform="scale(0.015625)"/>
      <path id="ArialUnicodeMS-7b54" d="M 5931 4219 
L 4966 4219 
Q 5153 3994 5338 3559 
L 4903 3366 
Q 4725 3869 4459 4219 
L 4050 4219 
Q 3953 4069 3816 3878 
L 3419 4141 
Q 3850 4763 4000 5394 
L 4459 5228 
Q 4397 4988 4269 4684 
L 5931 4684 
L 5931 4219 
z
M 6216 2278 
L 5869 1863 
Q 5159 2103 4513 2444 
L 4513 2163 
L 1966 2163 
L 1966 2503 
Q 1316 2122 581 1825 
L 219 2209 
Q 2119 2872 3206 4184 
L 2400 4184 
Q 2603 3938 2706 3706 
Q 2425 3553 2272 3481 
Q 2094 3944 1881 4184 
L 1538 4184 
Q 1338 3781 813 3169 
L 403 3463 
Q 1100 4238 1472 5350 
L 1925 5172 
Q 1831 4853 1753 4653 
L 3391 4653 
L 3391 4103 
L 3603 3950 
L 3541 3878 
Q 4313 2922 6216 2278 
z
M 4269 2631 
Q 3634 3009 3225 3494 
Q 2684 2934 2156 2638 
L 2156 2631 
L 4269 2631 
z
M 4997 -409 
L 4513 -409 
L 4513 -44 
L 1931 -44 
L 1925 -453 
L 1459 -447 
L 1459 1638 
L 4997 1638 
L 4997 -409 
z
M 4513 422 
L 4513 1203 
L 1941 1203 
L 1941 422 
L 4513 422 
z
" transform="scale(0.015625)"/>
      <path id="ArialUnicodeMS-6848" d="M 5728 3897 
L 5241 3897 
L 5241 4347 
L 1228 4347 
L 1228 3866 
L 744 3866 
L 744 4813 
L 2981 4813 
L 2981 5363 
L 3469 5363 
L 3469 4813 
L 5728 4813 
L 5728 3897 
z
M 5850 3303 
L 4813 3303 
Q 4578 3031 4078 2719 
Q 4988 2478 5697 2209 
L 5441 1806 
Q 4378 2175 3494 2400 
Q 2400 1931 909 1784 
L 653 2247 
Q 1888 2303 2731 2572 
Q 2178 2675 1331 2759 
Q 1681 3056 1941 3303 
L 622 3303 
L 622 3769 
L 2381 3769 
L 2859 4325 
L 3334 4159 
L 3022 3769 
L 5850 3769 
L 5850 3303 
z
M 4109 3303 
L 2578 3303 
L 2322 3072 
Q 2838 3025 3463 2881 
Q 3863 3075 4109 3303 
z
M 6163 306 
L 5894 -116 
Q 4256 247 3519 1100 
L 3519 -416 
L 3016 -416 
L 3016 1100 
Q 2372 344 659 -147 
L 403 288 
Q 1841 594 2425 1172 
L 647 1172 
L 647 1638 
L 3016 1638 
L 3016 2075 
L 3519 2075 
L 3519 1638 
L 5850 1638 
L 5850 1172 
L 4056 1172 
Q 4819 547 6163 306 
z
" transform="scale(0.015625)"/>
      <path id="ArialUnicodeMS-7b49" d="M 5978 2022 
L 453 2022 
L 453 2491 
L 2963 2491 
L 2963 2956 
L 1241 2956 
L 1241 3425 
L 2963 3425 
L 2963 3891 
L 3406 3891 
L 3406 3903 
L 3175 4072 
Q 3672 4559 3866 5363 
L 4319 5209 
Q 4300 5084 4191 4788 
L 5931 4788 
L 5931 4319 
L 4978 4319 
Q 5216 4075 5331 3878 
L 4872 3647 
Q 4728 4000 4391 4319 
L 3975 4319 
Q 3828 4044 3572 3775 
L 3469 3847 
L 3469 3425 
L 5234 3425 
L 5234 2956 
L 3469 2956 
L 3469 2491 
L 5978 2491 
L 5978 2022 
z
M 3309 4294 
L 2444 4294 
Q 2634 4106 2778 3841 
L 2309 3622 
Q 2231 3881 1856 4294 
L 1522 4294 
Q 1281 3872 788 3488 
L 416 3788 
Q 1263 4450 1447 5350 
L 1919 5197 
Q 1847 4928 1747 4763 
L 3309 4763 
L 3309 4294 
z
M 5838 1106 
L 4684 1106 
L 4684 63 
Q 4684 -69 4553 -219 
Q 4422 -369 4214 -403 
Q 4006 -438 3475 -428 
L 3297 78 
Q 3803 44 3972 44 
Q 4178 44 4178 206 
L 4178 1106 
L 647 1106 
L 647 1575 
L 4178 1575 
L 4178 1991 
L 4684 1991 
L 4684 1575 
L 5838 1575 
L 5838 1106 
z
M 3066 416 
L 2753 6 
Q 2194 503 1241 697 
L 1509 1088 
Q 2469 906 3066 416 
z
" transform="scale(0.015625)"/>
     </defs>
     <use xlink:href="#ArialUnicodeMS-6240"/>
     <use xlink:href="#ArialUnicodeMS-6709" x="100"/>
     <use xlink:href="#ArialUnicodeMS-7b54" x="200"/>
     <use xlink:href="#ArialUnicodeMS-6848" x="300"/>
     <use xlink:href="#ArialUnicodeMS-7b49" x="400"/>
     <use xlink:href="#ArialUnicodeMS-6982" x="500"/>
     <use xlink:href="#ArialUnicodeMS-7387" x="600"/>
    </g>
   </g>
   <g id="text_10">
    <!-- ① 初始叠加态 -->
    <g style="fill: #334155" transform="translate(103.136102 26.106423) scale(0.11 -0.11)">
     <defs>
      <path id="ArialUnicodeMS-2460" d="M 3200 4659 
Q 3916 4659 4539 4298 
Q 5163 3938 5522 3316 
Q 5881 2694 5881 1978 
Q 5881 1266 5520 644 
Q 5159 22 4536 -337 
Q 3913 -697 3200 -697 
Q 2488 -697 1864 -337 
Q 1241 22 880 644 
Q 519 1266 519 1978 
Q 519 2694 878 3317 
Q 1238 3941 1861 4300 
Q 2484 4659 3200 4659 
z
M 3200 -294 
Q 4131 -294 4804 376 
Q 5478 1047 5478 1978 
Q 5478 2584 5172 3114 
Q 4866 3644 4336 3950 
Q 3806 4256 3200 4256 
Q 2263 4256 1592 3584 
Q 922 2913 922 1978 
Q 922 1047 1595 376 
Q 2269 -294 3200 -294 
z
M 3475 513 
L 3109 513 
L 3109 2841 
Q 2834 2584 2375 2400 
L 2375 2753 
Q 3003 3059 3238 3500 
L 3475 3500 
L 3475 513 
z
" transform="scale(0.015625)"/>
      <path id="ArialUnicodeMS-20" transform="scale(0.015625)"/>
      <path id="ArialUnicodeMS-521d" d="M 3084 2803 
Q 2794 2372 2497 2125 
Q 2678 2009 2994 1672 
L 2688 1275 
Q 2309 1703 1813 1966 
L 1813 -469 
L 1325 -469 
L 1325 2009 
Q 1272 1969 1011 1748 
Q 750 1528 531 1394 
L 206 1838 
Q 797 2153 1342 2670 
Q 1888 3188 2075 3647 
L 422 3647 
L 422 4116 
L 1344 4116 
L 1344 5259 
L 1831 5259 
L 1831 4116 
L 2619 4116 
L 2619 3700 
Q 2422 3122 1850 2484 
L 2113 2356 
Q 2388 2591 2663 3091 
L 3084 2803 
z
M 5753 4844 
L 5759 2381 
Q 5759 1803 5667 923 
Q 5575 44 5400 -122 
Q 5225 -288 4863 -288 
Q 4578 -288 4050 -172 
L 3928 378 
Q 4728 197 4825 197 
Q 4975 197 5048 305 
Q 5122 413 5190 1295 
Q 5259 2178 5259 2619 
L 5259 4353 
L 4206 4353 
Q 4206 2600 4090 1853 
Q 3975 1106 3633 612 
Q 3291 119 2572 -306 
L 2203 91 
Q 2825 431 3137 842 
Q 3450 1253 3551 1717 
Q 3653 2181 3669 2881 
L 3700 4353 
L 2847 4353 
L 2847 4844 
L 5753 4844 
z
" transform="scale(0.015625)"/>
      <path id="ArialUnicodeMS-59cb" d="M 6047 2656 
L 5575 2456 
Q 5481 2788 5388 2975 
L 2719 2713 
L 2619 2981 
Q 2503 2059 2216 1331 
Q 2497 1147 2963 709 
L 2650 288 
Q 2131 825 1984 872 
Q 1525 13 709 -475 
L 347 -134 
Q 1250 472 1581 1106 
Q 1181 1356 588 1528 
Q 891 2266 1172 3591 
L 469 3591 
L 469 4056 
L 1253 4056 
Q 1381 4750 1409 5306 
L 1894 5147 
Q 1825 4497 1741 4056 
L 2731 4056 
L 2663 3244 
Q 2938 3244 3041 3272 
Q 3609 4163 4025 5344 
L 4525 5125 
Q 3866 3672 3566 3272 
L 5191 3391 
Q 4928 3825 4603 4116 
L 4997 4353 
Q 5722 3688 6047 2656 
z
M 2234 3591 
L 1656 3591 
Q 1444 2541 1172 1819 
Q 1459 1719 1784 1556 
Q 2078 2272 2234 3591 
z
M 5563 -416 
L 5075 -416 
L 5075 109 
L 3500 109 
L 3500 -416 
L 3016 -416 
L 3016 2328 
L 5563 2328 
L 5563 -416 
z
M 5075 575 
L 5075 1863 
L 3500 1863 
L 3500 575 
L 5075 575 
z
" transform="scale(0.015625)"/>
      <path id="ArialUnicodeMS-53e0" d="M 5925 2700 
L 5797 2534 
L 5894 2534 
L 5894 1556 
L 5434 1556 
L 5434 2094 
L 1044 2094 
L 1044 1556 
L 556 1556 
L 556 2534 
L 634 2534 
Q 609 2569 528 2633 
Q 447 2697 366 2791 
Q 1016 2850 1478 3003 
L 1478 3016 
Q 1309 3044 884 3078 
Q 1106 3388 1119 3397 
L 722 3397 
L 722 3781 
L 1119 3781 
L 831 4134 
Q 2097 4206 2759 4319 
L 2759 4331 
Q 2253 4381 1691 4403 
L 1931 4744 
L 1228 4744 
L 1228 5159 
L 5216 5159 
L 5216 4781 
Q 4716 4481 4581 4434 
L 4581 4422 
Q 5084 4309 5588 4072 
L 5369 3781 
L 5772 3781 
L 5772 3469 
Q 5572 3247 5234 3053 
Q 5278 3028 5511 2926 
Q 5744 2825 5925 2700 
z
M 4300 4728 
L 2541 4744 
L 2541 4728 
Q 3006 4691 3278 4656 
L 3841 4581 
L 4300 4728 
z
M 5113 3781 
Q 4550 4031 3866 4159 
Q 3156 3925 1728 3788 
L 1728 3781 
L 3084 3781 
L 3084 3450 
Q 2950 3322 2534 3059 
Q 2678 3006 3109 2684 
L 2994 2534 
L 3263 2534 
Q 3184 2616 3059 2766 
Q 3747 2819 4166 2969 
L 4166 2981 
Q 3859 3041 3406 3072 
Q 3491 3231 3616 3397 
L 3219 3397 
L 3219 3781 
L 5113 3781 
z
M 5056 3397 
L 3859 3397 
L 3859 3384 
Q 4338 3338 4738 3225 
Q 5034 3375 5056 3397 
z
M 2356 3378 
L 2356 3397 
L 1428 3397 
L 1428 3378 
Q 1725 3344 2041 3238 
Q 2350 3378 2356 3378 
z
M 2591 2534 
Q 2300 2731 2081 2816 
Q 1953 2750 1809 2694 
Q 1691 2647 1569 2609 
Q 1475 2581 1431 2569 
Q 1403 2559 1363 2550 
L 1325 2541 
L 1281 2534 
L 2591 2534 
z
M 5369 2534 
Q 5028 2725 4763 2797 
Q 4556 2697 4294 2584 
L 4278 2575 
Q 4266 2566 4250 2559 
Q 4238 2553 4228 2550 
Q 4222 2547 4209 2544 
Q 4194 2538 4181 2534 
L 5369 2534 
z
M 6106 -184 
L 353 -184 
L 353 256 
L 1478 256 
L 1478 2009 
L 5006 2009 
L 5006 256 
L 6106 256 
L 6106 -184 
z
M 4519 1434 
L 4519 1619 
L 1966 1619 
L 1966 1434 
L 4519 1434 
z
M 4519 844 
L 4519 1056 
L 1966 1056 
L 1966 844 
L 4519 844 
z
M 4519 256 
L 4519 459 
L 1966 459 
L 1966 256 
L 4519 256 
z
" transform="scale(0.015625)"/>
      <path id="ArialUnicodeMS-52a0" d="M 3463 3975 
L 3431 2456 
Q 3416 1684 3337 1089 
Q 3259 494 3153 256 
Q 3047 19 2889 -82 
Q 2731 -184 2509 -184 
Q 2338 -184 1722 -72 
L 1638 488 
Q 2313 281 2463 281 
Q 2559 281 2645 411 
Q 2731 541 2822 1244 
Q 2913 1947 2963 3506 
L 2181 3506 
Q 2109 1928 1761 1011 
Q 1413 94 763 -488 
L 372 -147 
Q 1016 544 1225 1008 
Q 1434 1472 1546 2256 
Q 1659 3041 1678 3506 
L 628 3506 
L 628 3975 
L 1678 3975 
Q 1713 4247 1741 5319 
L 2259 5281 
L 2203 3975 
L 3463 3975 
z
M 5844 -159 
L 5338 -159 
L 5338 325 
L 4325 325 
L 4325 -159 
L 3841 -159 
L 3841 4359 
L 5844 4359 
L 5844 -159 
z
M 5338 794 
L 5338 3891 
L 4325 3891 
L 4325 794 
L 5338 794 
z
" transform="scale(0.015625)"/>
      <path id="ArialUnicodeMS-6001" d="M 5978 2075 
L 5672 1650 
Q 3828 2550 3213 3969 
L 3116 3969 
Q 3003 3581 2841 3309 
Q 3538 2913 3891 2425 
L 3506 2131 
Q 3125 2700 2613 2963 
Q 1934 2106 563 1684 
L 231 2138 
Q 1431 2503 1923 2934 
Q 2416 3366 2613 3969 
L 391 3969 
L 391 4409 
L 2741 4409 
Q 2766 4503 2834 5166 
L 3291 5100 
Q 3281 4706 3213 4409 
L 5831 4409 
L 5831 3969 
L 3713 3969 
Q 4350 2806 5978 2075 
z
M 3847 1081 
L 3438 781 
Q 3213 1431 2663 1875 
L 3053 2156 
Q 3644 1650 3847 1081 
z
M 4838 738 
Q 4719 128 4594 -76 
Q 4469 -281 4244 -281 
L 2413 -281 
Q 2234 -281 2100 -159 
Q 1966 -38 1966 122 
L 1966 1894 
L 2450 1894 
L 2450 288 
Q 2450 253 2500 218 
Q 2550 184 2559 184 
L 4147 184 
Q 4209 184 4264 284 
Q 4319 384 4331 519 
L 4372 928 
L 4838 738 
z
M 1819 1388 
Q 1481 641 666 19 
L 281 372 
Q 1056 947 1459 1638 
L 1819 1388 
z
M 5997 359 
L 5644 -6 
Q 5234 706 4488 1228 
L 4819 1556 
Q 5531 1078 5997 359 
z
" transform="scale(0.015625)"/>
     </defs>
     <use xlink:href="#ArialUnicodeMS-2460"/>
     <use xlink:href="#ArialUnicodeMS-20" x="100"/>
     <use xlink:href="#ArialUnicodeMS-521d" x="127.783203"/>
     <use xlink:href="#ArialUnicodeMS-59cb" x="227.783203"/>
     <use xlink:href="#ArialUnicodeMS-53e0" x="327.783203"/>
     <use xlink:href="#ArialUnicodeMS-52a0" x="427.783203"/>
     <use xlink:href="#ArialUnicodeMS-6001" x="527.783203"/>
    </g>
   </g>
  </g>
  <g id="axes_2">
   <g id="patch_13">
    <path d="M 293.972179 205.770423 
L 477.864071 205.770423 
L 477.864071 32.106423 
L 293.972179 32.106423 
z
" style="fill: #f8fafc"/>
   </g>
   <g id="patch_14">
    <path d="M 302.330901 141.266652 
L 317.528578 141.266652 
L 317.528578 163.59488 
L 302.330901 163.59488 
z
" clip-path="url(#pa707d777ec)" style="fill: #fee2e2; stroke: #dc2626; stroke-width: 1.2; stroke-linejoin: miter"/>
   </g>
   <g id="patch_15">
    <path d="M 324.041869 141.266652 
L 339.239546 141.266652 
L 339.239546 126.381166 
L 324.041869 126.381166 
z
" clip-path="url(#pa707d777ec)" style="fill: #dcfce7; stroke: #16a34a; stroke-width: 1.2; stroke-linejoin: miter"/>
   </g>
   <g id="patch_16">
    <path d="M 345.752836 141.266652 
L 360.950513 141.266652 
L 360.950513 168.556709 
L 345.752836 168.556709 
z
" clip-path="url(#pa707d777ec)" style="fill: #fee2e2; stroke: #dc2626; stroke-width: 1.2; stroke-linejoin: miter"/>
   </g>
   <g id="patch_17">
    <path d="M 367.463803 141.266652 
L 382.66148 141.266652 
L 382.66148 64.358309 
L 367.463803 64.358309 
z
" clip-path="url(#pa707d777ec)" style="fill: #dcfce7; stroke: #16a34a; stroke-width: 1.2; stroke-linejoin: miter"/>
   </g>
   <g id="patch_18">
    <path d="M 389.17477 141.266652 
L 404.372447 141.266652 
L 404.372447 175.999452 
L 389.17477 175.999452 
z
" clip-path="url(#pa707d777ec)" style="fill: #fee2e2; stroke: #dc2626; stroke-width: 1.2; stroke-linejoin: miter"/>
   </g>
   <g id="patch_19">
    <path d="M 410.885737 141.266652 
L 426.083414 141.266652 
L 426.083414 128.86208 
L 410.885737 128.86208 
z
" clip-path="url(#pa707d777ec)" style="fill: #dcfce7; stroke: #16a34a; stroke-width: 1.2; stroke-linejoin: miter"/>
   </g>
   <g id="patch_20">
    <path d="M 432.596704 141.266652 
L 447.794381 141.266652 
L 447.794381 158.633052 
L 432.596704 158.633052 
z
" clip-path="url(#pa707d777ec)" style="fill: #fee2e2; stroke: #dc2626; stroke-width: 1.2; stroke-linejoin: miter"/>
   </g>
   <g id="patch_21">
    <path d="M 454.307672 141.266652 
L 469.505349 141.266652 
L 469.505349 118.938423 
L 454.307672 118.938423 
z
" clip-path="url(#pa707d777ec)" style="fill: #dcfce7; stroke: #16a34a; stroke-width: 1.2; stroke-linejoin: miter"/>
   </g>
   <g id="matplotlib.axis_3"/>
   <g id="matplotlib.axis_4">
    <g id="ytick_8">
     <g id="line2d_9">
      <g>
       <use xlink:href="#ma927ddf7c0" x="293.972179" y="190.884937" style="stroke: #000000; stroke-width: 0.8"/>
      </g>
     </g>
     <g id="text_11">
      <!-- −0.4 -->
      <g transform="translate(267.231554 194.463844) scale(0.1 -0.1)">
       <use xlink:href="#ArialUnicodeMS-2212"/>
       <use xlink:href="#ArialUnicodeMS-30" x="58.398438"/>
       <use xlink:href="#ArialUnicodeMS-2e" x="114.013672"/>
       <use xlink:href="#ArialUnicodeMS-34" x="141.796875"/>
      </g>
     </g>
    </g>
    <g id="ytick_9">
     <g id="line2d_10">
      <g>
       <use xlink:href="#ma927ddf7c0" x="293.972179" y="166.075795" style="stroke: #000000; stroke-width: 0.8"/>
      </g>
     </g>
     <g id="text_12">
      <!-- −0.2 -->
      <g transform="translate(267.231554 169.654701) scale(0.1 -0.1)">
       <use xlink:href="#ArialUnicodeMS-2212"/>
       <use xlink:href="#ArialUnicodeMS-30" x="58.398438"/>
       <use xlink:href="#ArialUnicodeMS-2e" x="114.013672"/>
       <use xlink:href="#ArialUnicodeMS-32" x="141.796875"/>
      </g>
     </g>
    </g>
    <g id="ytick_10">
     <g id="line2d_11">
      <g>
       <use xlink:href="#ma927ddf7c0" x="293.972179" y="141.266652" style="stroke: #000000; stroke-width: 0.8"/>
      </g>
     </g>
     <g id="text_13">
      <!-- 0.0 -->
      <g transform="translate(273.072179 144.845558) scale(0.1 -0.1)">
       <use xlink:href="#ArialUnicodeMS-30"/>
       <use xlink:href="#ArialUnicodeMS-2e" x="55.615234"/>
       <use xlink:href="#ArialUnicodeMS-30" x="83.398438"/>
      </g>
     </g>
    </g>
    <g id="ytick_11">
     <g id="line2d_12">
      <g>
       <use xlink:href="#ma927ddf7c0" x="293.972179" y="116.457509" style="stroke: #000000; stroke-width: 0.8"/>
      </g>
     </g>
     <g id="text_14">
      <!-- 0.2 -->
      <g transform="translate(273.072179 120.036415) scale(0.1 -0.1)">
       <use xlink:href="#ArialUnicodeMS-30"/>
       <use xlink:href="#ArialUnicodeMS-2e" x="55.615234"/>
       <use xlink:href="#ArialUnicodeMS-32" x="83.398438"/>
      </g>
     </g>
    </g>
    <g id="ytick_12">
     <g id="line2d_13">
      <g>
       <use xlink:href="#ma927ddf7c0" x="293.972179" y="91.648366" style="stroke: #000000; stroke-width: 0.8"/>
      </g>
     </g>
     <g id="text_15">
      <!-- 0.4 -->
      <g transform="translate(273.072179 95.227272) scale(0.1 -0.1)">
       <use xlink:href="#ArialUnicodeMS-30"/>
       <use xlink:href="#ArialUnicodeMS-2e" x="55.615234"/>
       <use xlink:href="#ArialUnicodeMS-34" x="83.398438"/>
      </g>
     </g>
    </g>
    <g id="ytick_13">
     <g id="line2d_14">
      <g>
       <use xlink:href="#ma927ddf7c0" x="293.972179" y="66.839223" style="stroke: #000000; stroke-width: 0.8"/>
      </g>
     </g>
     <g id="text_16">
      <!-- 0.6 -->
      <g transform="translate(273.072179 70.418129) scale(0.1 -0.1)">
       <use xlink:href="#ArialUnicodeMS-30"/>
       <use xlink:href="#ArialUnicodeMS-2e" x="55.615234"/>
       <use xlink:href="#ArialUnicodeMS-36" x="83.398438"/>
      </g>
     </g>
    </g>
    <g id="ytick_14">
     <g id="line2d_15">
      <g>
       <use xlink:href="#ma927ddf7c0" x="293.972179" y="42.03008" style="stroke: #000000; stroke-width: 0.8"/>
      </g>
     </g>
     <g id="text_17">
      <!-- 0.8 -->
      <g transform="translate(273.072179 45.608987) scale(0.1 -0.1)">
       <use xlink:href="#ArialUnicodeMS-30"/>
       <use xlink:href="#ArialUnicodeMS-2e" x="55.615234"/>
       <use xlink:href="#ArialUnicodeMS-38" x="83.398438"/>
      </g>
     </g>
    </g>
   </g>
   <g id="line2d_16">
    <path d="M 293.972179 141.266652 
L 477.864071 141.266652 
" clip-path="url(#pa707d777ec)" style="fill: none; stroke: #334155; stroke-width: 0.7; stroke-linecap: square"/>
   </g>
   <g id="patch_22">
    <path d="M 293.972179 205.770423 
L 293.972179 32.106423 
" style="fill: none; stroke: #cbd5e1; stroke-width: 0.8; stroke-linejoin: miter; stroke-linecap: square"/>
   </g>
   <g id="patch_23">
    <path d="M 293.972179 205.770423 
L 477.864071 205.770423 
" style="fill: none; stroke: #cbd5e1; stroke-width: 0.8; stroke-linejoin: miter; stroke-linecap: square"/>
   </g>
   <g id="text_18">
    <!-- 错误答案概率幅相消，正确答案增强 -->
    <g style="fill: #64748b" transform="translate(321.918125 202.049052) scale(0.08 -0.08)">
     <defs>
      <path id="ArialUnicodeMS-9519" d="M 6009 2834 
L 2613 2834 
L 2619 3309 
L 3303 3309 
L 3303 4128 
L 2713 4128 
L 2713 4563 
L 3303 4563 
L 3303 5306 
L 3788 5306 
L 3788 4563 
L 4653 4563 
L 4653 5306 
L 5141 5306 
L 5141 4563 
L 5716 4563 
L 5716 4128 
L 5141 4128 
L 5141 3309 
L 6003 3309 
L 6009 2834 
z
M 4653 3309 
L 4653 4128 
L 3788 4128 
L 3788 3309 
L 4653 3309 
z
M 2675 1856 
L 1838 1856 
L 1838 556 
L 2669 1006 
L 2669 488 
L 1556 -197 
L 1275 256 
Q 1350 297 1350 519 
L 1350 1856 
L 441 1856 
L 441 2322 
L 1350 2322 
L 1350 2881 
L 1050 2881 
Q 956 2672 716 2450 
L 319 2778 
Q 1141 3581 1247 5294 
L 1691 5216 
Q 1656 4834 1588 4441 
L 2578 4441 
L 2578 3975 
L 1497 3975 
Q 1463 3766 1281 3347 
L 2522 3347 
L 2522 2881 
L 1838 2881 
L 1838 2322 
L 2675 2322 
L 2675 1856 
z
M 5453 -422 
L 4966 -422 
L 4966 -13 
L 3456 -13 
L 3456 -422 
L 2969 -422 
L 2969 2388 
L 5453 2388 
L 5453 -422 
z
M 4966 1447 
L 4966 1953 
L 3456 1953 
L 3456 1447 
L 4966 1447 
z
M 4966 422 
L 4966 1013 
L 3456 1013 
L 3456 422 
L 4966 422 
z
" transform="scale(0.015625)"/>
      <path id="ArialUnicodeMS-8bef" d="M 1906 4178 
L 1509 3841 
Q 1200 4372 594 4775 
L 941 5081 
Q 1422 4819 1906 4178 
z
M 5344 3391 
L 2663 3391 
L 2663 5044 
L 5344 5044 
L 5344 3391 
z
M 4856 3859 
L 4856 4575 
L 3150 4575 
L 3150 3859 
L 4856 3859 
z
M 2534 603 
L 1356 -72 
L 1038 288 
Q 1100 400 1100 628 
L 1100 2859 
L 391 2859 
L 391 3328 
L 1588 3328 
L 1588 581 
Q 1672 625 1990 822 
Q 2309 1019 2534 1131 
L 2534 603 
z
M 6119 -38 
L 5831 -434 
Q 5197 -203 4728 342 
Q 4259 888 4147 1459 
L 4056 1459 
Q 3753 250 2106 -441 
L 1772 6 
Q 3166 391 3566 1459 
L 2075 1459 
L 2075 1925 
L 3669 1925 
Q 3675 1994 3675 2491 
L 2400 2491 
L 2400 2956 
L 5631 2956 
L 5631 2491 
L 4172 2491 
L 4159 1925 
L 5997 1925 
L 5997 1459 
L 4609 1459 
Q 4738 1034 5177 598 
Q 5616 163 6119 -38 
z
" transform="scale(0.015625)"/>
      <path id="ArialUnicodeMS-76f8" d="M 3009 1791 
L 2566 1503 
Q 2322 1975 2003 2406 
L 2003 -416 
L 1509 -416 
L 1509 2094 
Q 1313 1497 659 678 
L 275 972 
Q 1053 1969 1459 3603 
L 519 3603 
L 519 4072 
L 1516 4072 
L 1516 5300 
L 2003 5300 
L 2003 4072 
L 2881 4072 
L 2881 3603 
L 2003 3603 
L 2003 2900 
L 2131 2975 
Q 2681 2434 3009 1791 
z
M 5691 -416 
L 5178 -416 
L 5178 38 
L 3659 38 
L 3659 -416 
L 3150 -416 
L 3150 4966 
L 5691 4966 
L 5691 -416 
z
M 5178 3547 
L 5178 4500 
L 3659 4500 
L 3659 3547 
L 5178 3547 
z
M 5178 2059 
L 5178 3078 
L 3659 3078 
L 3659 2059 
L 5178 2059 
z
M 5178 506 
L 5178 1594 
L 3659 1594 
L 3659 506 
L 5178 506 
z
" transform="scale(0.015625)"/>
      <path id="ArialUnicodeMS-6d88" d="M 5631 250 
Q 5631 -141 5381 -217 
Q 5131 -294 4884 -294 
Q 4650 -294 4366 -319 
L 4184 184 
L 4972 153 
Q 5147 144 5147 288 
L 5147 891 
L 2881 891 
L 2881 -428 
L 2394 -428 
L 2394 3547 
L 3750 3547 
L 3750 5331 
L 4238 5331 
L 4238 3547 
L 5631 3547 
L 5631 250 
z
M 5147 2484 
L 5147 3078 
L 2881 3078 
L 2881 2484 
L 5147 2484 
z
M 5147 1356 
L 5147 2016 
L 2881 2016 
L 2881 1356 
L 5147 1356 
z
M 5869 4819 
Q 5597 4244 4916 3659 
L 4531 3975 
Q 5228 4556 5516 5113 
L 5869 4819 
z
M 2175 4178 
L 1831 3841 
Q 1572 4303 788 4788 
L 1106 5094 
Q 1897 4709 2175 4178 
z
M 3444 3981 
L 3041 3719 
Q 2738 4350 2059 4763 
L 2450 5056 
Q 3138 4591 3444 3981 
z
M 1900 2828 
L 1522 2509 
Q 1181 3041 409 3378 
L 775 3706 
Q 1466 3406 1900 2828 
z
M 2022 1947 
Q 1703 541 872 -313 
L 475 -25 
Q 1322 850 1625 2175 
L 2022 1947 
z
" transform="scale(0.015625)"/>
      <path id="ArialUnicodeMS-ff0c" d="M 3544 0 
Q 3544 -397 3392 -606 
Q 3241 -816 3019 -903 
L 2866 -666 
Q 3216 -516 3219 0 
L 2903 0 
L 2903 641 
L 3544 641 
L 3544 0 
z
" transform="scale(0.015625)"/>
      <path id="ArialUnicodeMS-6b63" d="M 5888 -31 
L 641 -31 
L 641 434 
L 1428 434 
L 1428 3328 
L 1913 3328 
L 1913 434 
L 3091 434 
L 3091 4372 
L 819 4372 
L 819 4838 
L 5656 4838 
L 5656 4372 
L 3597 4372 
L 3597 2778 
L 5331 2778 
L 5331 2309 
L 3597 2309 
L 3597 434 
L 5888 434 
L 5888 -31 
z
" transform="scale(0.015625)"/>
      <path id="ArialUnicodeMS-786e" d="M 5806 3859 
L 5806 238 
Q 5806 22 5643 -143 
Q 5481 -309 5170 -292 
Q 4859 -275 4697 -288 
L 4531 225 
Q 4747 172 5228 172 
Q 5272 172 5325 250 
L 5325 1075 
L 2894 1075 
Q 2628 216 1966 -366 
L 1594 -13 
Q 1959 284 2163 628 
L 1697 628 
L 1697 813 
L 1344 806 
L 1344 391 
L 856 384 
L 856 2100 
L 844 2100 
L 738 1888 
L 325 2169 
Q 956 3031 1081 4122 
Q 1103 4316 1131 4441 
L 422 4441 
L 422 4909 
L 2606 4909 
L 2606 4441 
L 1600 4441 
Q 1438 3438 1416 3334 
L 2156 3341 
L 2156 628 
Q 2425 1047 2479 1469 
Q 2534 1891 2534 3347 
Q 2450 3278 2309 3188 
L 1997 3553 
Q 2900 4184 3519 5453 
L 3922 5269 
L 3738 4844 
L 5172 4844 
L 5166 4428 
Q 4797 3997 4659 3859 
L 5806 3859 
z
M 4500 4384 
L 3444 4384 
Q 3428 4325 3041 3878 
L 4019 3878 
Q 4200 4034 4500 4384 
z
M 5325 2741 
L 5325 3397 
L 4409 3397 
L 4409 2741 
L 5325 2741 
z
M 3922 3397 
L 3028 3397 
L 3028 2741 
L 3916 2741 
L 3922 3397 
z
M 1697 1288 
L 1697 2875 
L 1344 2875 
L 1344 1288 
L 1697 1288 
z
M 5325 1528 
L 5325 2291 
L 4403 2291 
L 4403 1528 
L 5325 1528 
z
M 3922 1528 
L 3922 2291 
L 3028 2291 
Q 3000 1800 2975 1528 
L 3922 1528 
z
" transform="scale(0.015625)"/>
      <path id="ArialUnicodeMS-589e" d="M 6150 4122 
L 5806 3738 
L 5538 3916 
L 5538 2328 
L 2613 2328 
L 2613 4006 
Q 2384 3853 2234 3763 
L 1875 4141 
Q 2216 4300 2650 4664 
Q 3084 5028 3250 5313 
L 3653 5019 
Q 3500 4719 2994 4294 
L 5063 4294 
Q 4538 4741 4347 5013 
L 4756 5313 
Q 5306 4622 6150 4122 
z
M 5050 2797 
L 5050 3828 
L 4294 3828 
L 4294 2797 
L 5050 2797 
z
M 5044 3494 
Q 4969 3178 4684 2828 
L 4325 3091 
Q 4597 3397 4653 3675 
L 5044 3494 
z
M 3841 2797 
L 3841 3828 
L 3097 3828 
L 3097 2797 
L 3841 2797 
z
M 3816 3053 
L 3431 2869 
Q 3338 3281 3122 3541 
L 3519 3731 
Q 3731 3534 3816 3053 
z
M 2503 1319 
L 672 647 
L 331 1081 
Q 822 1194 1259 1350 
L 1259 3103 
L 544 3103 
L 544 3572 
L 1259 3572 
L 1259 5141 
L 1747 5141 
L 1747 3572 
L 2456 3572 
L 2456 3103 
L 1747 3103 
L 1747 1538 
L 2503 1806 
L 2503 1319 
z
M 5344 -397 
L 4856 -397 
L 4856 -31 
L 3334 -31 
L 3334 -397 
L 2847 -397 
L 2847 2169 
L 5344 2169 
L 5344 -397 
z
M 4856 1325 
L 4856 1703 
L 3334 1703 
L 3334 1325 
L 4856 1325 
z
M 4856 434 
L 4856 856 
L 3334 856 
L 3334 434 
L 4856 434 
z
" transform="scale(0.015625)"/>
      <path id="ArialUnicodeMS-5f3a" d="M 2478 2316 
Q 2313 159 2092 -158 
Q 1872 -475 1594 -475 
Q 1431 -475 897 -384 
L 769 116 
L 1497 6 
Q 1650 -41 1745 342 
Q 1841 725 1966 1850 
L 1013 1850 
L 891 1434 
L 403 1528 
Q 684 2422 775 3634 
L 1978 3634 
L 1978 4441 
L 422 4441 
L 422 4903 
L 2463 4903 
L 2463 3175 
L 1222 3175 
L 1100 2316 
L 2478 2316 
z
M 6016 -206 
L 5613 -469 
Q 5363 -78 5306 0 
L 2700 -341 
L 2438 141 
Q 3069 175 3884 269 
L 3884 1234 
L 3144 1234 
L 3144 831 
L 2656 831 
L 2656 3022 
L 3884 3022 
L 3884 3284 
L 2944 3284 
L 2944 4838 
L 5394 4838 
L 5394 3284 
L 4372 3284 
L 4372 3022 
L 5631 3022 
L 5631 916 
L 5147 916 
L 5147 1234 
L 4372 1234 
L 4372 313 
L 4941 409 
Q 4872 453 4739 570 
Q 4606 688 4544 728 
L 4966 947 
Q 5709 425 6016 -206 
z
M 4909 3744 
L 4909 4378 
L 3406 4378 
L 3406 3744 
L 4909 3744 
z
M 5147 1697 
L 5147 2559 
L 4372 2559 
L 4372 1697 
L 5147 1697 
z
M 3884 1697 
L 3884 2559 
L 3144 2559 
L 3144 1697 
L 3884 1697 
z
" transform="scale(0.015625)"/>
     </defs>
     <use xlink:href="#ArialUnicodeMS-9519"/>
     <use xlink:href="#ArialUnicodeMS-8bef" x="100"/>
     <use xlink:href="#ArialUnicodeMS-7b54" x="200"/>
     <use xlink:href="#ArialUnicodeMS-6848" x="300"/>
     <use xlink:href="#ArialUnicodeMS-6982" x="400"/>
     <use xlink:href="#ArialUnicodeMS-7387" x="500"/>
     <use xlink:href="#ArialUnicodeMS-5e45" x="600"/>
     <use xlink:href="#ArialUnicodeMS-76f8" x="700"/>
     <use xlink:href="#ArialUnicodeMS-6d88" x="800"/>
     <use xlink:href="#ArialUnicodeMS-ff0c" x="900"/>
     <use xlink:href="#ArialUnicodeMS-6b63" x="1000"/>
     <use xlink:href="#ArialUnicodeMS-786e" x="1100"/>
     <use xlink:href="#ArialUnicodeMS-7b54" x="1200"/>
     <use xlink:href="#ArialUnicodeMS-6848" x="1300"/>
     <use xlink:href="#ArialUnicodeMS-589e" x="1400"/>
     <use xlink:href="#ArialUnicodeMS-5f3a" x="1500"/>
    </g>
   </g>
   <g id="patch_24">
    <path d="M 413.134372 46.325855 
Q 395.034963 53.129384 378.191401 59.460843 
" style="fill: none; stroke: #16a34a; stroke-width: 1.2; stroke-linecap: round"/>
    <path d="M 381.749746 59.832575 
L 378.191401 59.460843 
L 380.623793 56.837207 
" style="fill: none; stroke: #16a34a; stroke-width: 1.2; stroke-linecap: round"/>
   </g>
   <g id="text_19">
    <!-- 正确答案 -->
    <g style="fill: #16a34a" transform="translate(414.142382 42.03008) scale(0.08 -0.08)">
     <use xlink:href="#ArialUnicodeMS-6b63"/>
     <use xlink:href="#ArialUnicodeMS-786e" x="100"/>
     <use xlink:href="#ArialUnicodeMS-7b54" x="200"/>
     <use xlink:href="#ArialUnicodeMS-6848" x="300"/>
    </g>
   </g>
   <g id="text_20">
    <!-- ② 量子门演化 -->
    <g style="fill: #334155" transform="translate(351.390156 26.106423) scale(0.11 -0.11)">
     <defs>
      <path id="ArialUnicodeMS-2461" d="M 3200 4659 
Q 3916 4659 4539 4298 
Q 5163 3938 5522 3316 
Q 5881 2694 5881 1978 
Q 5881 1266 5520 644 
Q 5159 22 4536 -337 
Q 3913 -697 3200 -697 
Q 2488 -697 1864 -337 
Q 1241 22 880 644 
Q 519 1266 519 1978 
Q 519 2694 878 3317 
Q 1238 3941 1861 4300 
Q 2484 4659 3200 4659 
z
M 3200 -294 
Q 4131 -294 4804 376 
Q 5478 1047 5478 1978 
Q 5478 2584 5172 3114 
Q 4866 3644 4336 3950 
Q 3806 4256 3200 4256 
Q 2263 4256 1592 3584 
Q 922 2913 922 1978 
Q 922 1047 1595 376 
Q 2269 -294 3200 -294 
z
M 4166 513 
L 2194 513 
Q 2194 763 2366 1017 
Q 2538 1272 3028 1672 
Q 3350 1928 3565 2175 
Q 3781 2422 3781 2681 
Q 3781 2906 3623 3056 
Q 3466 3206 3225 3206 
Q 2981 3206 2812 3054 
Q 2644 2903 2644 2597 
L 2266 2644 
Q 2303 3047 2559 3273 
Q 2816 3500 3231 3500 
Q 3672 3500 3915 3259 
Q 4159 3019 4159 2675 
Q 4159 2381 3979 2126 
Q 3800 1872 3431 1563 
Q 2953 1163 2864 1077 
Q 2775 991 2700 863 
L 4166 863 
L 4166 513 
z
" transform="scale(0.015625)"/>
      <path id="ArialUnicodeMS-91cf" d="M 5056 3378 
L 1313 3378 
L 1313 5050 
L 5056 5050 
L 5056 3378 
z
M 4569 4403 
L 4569 4609 
L 1797 4609 
L 1797 4403 
L 4569 4403 
z
M 4569 3794 
L 4569 4031 
L 1797 4031 
L 1797 3794 
L 4569 3794 
z
M 5797 2816 
L 581 2816 
L 581 3231 
L 5797 3231 
L 5797 2816 
z
M 6059 -191 
L 341 -191 
L 341 275 
L 2950 275 
L 2950 459 
L 897 459 
L 897 878 
L 2950 878 
L 2950 1044 
L 1125 1044 
L 1125 2669 
L 5269 2669 
L 5269 1044 
L 3438 1044 
L 3438 878 
L 5509 878 
L 5509 459 
L 3438 459 
L 3438 275 
L 6059 275 
L 6059 -191 
z
M 4781 2053 
L 4781 2253 
L 3438 2253 
L 3438 2053 
L 4781 2053 
z
M 2950 2053 
L 2950 2253 
L 1613 2253 
L 1613 2053 
L 2950 2053 
z
M 4781 1459 
L 4781 1697 
L 3438 1697 
L 3438 1459 
L 4781 1459 
z
M 2950 1459 
L 2950 1697 
L 1613 1697 
L 1613 1459 
L 2950 1459 
z
" transform="scale(0.015625)"/>
      <path id="ArialUnicodeMS-5b50" d="M 5894 2328 
L 3566 2328 
L 3566 191 
Q 3566 -31 3425 -172 
Q 3284 -313 3034 -313 
L 2247 -313 
L 2016 184 
L 2822 147 
Q 3078 138 3078 447 
L 3078 2328 
L 628 2328 
L 628 2797 
L 3078 2797 
L 3078 3438 
Q 3856 3947 4403 4569 
L 1416 4569 
L 1416 5038 
L 5100 5038 
L 5100 4678 
Q 4438 3794 3566 3200 
L 3566 2797 
L 5894 2797 
L 5894 2328 
z
" transform="scale(0.015625)"/>
      <path id="ArialUnicodeMS-95e8" d="M 2297 4238 
L 1856 3938 
Q 1578 4634 1038 5013 
L 1422 5269 
Q 1953 4934 2297 4238 
z
M 5594 147 
Q 5594 -41 5419 -172 
Q 5244 -303 4844 -303 
Q 4716 -303 4525 -288 
L 4331 213 
L 5006 172 
Q 5106 163 5106 313 
L 5106 4494 
L 2559 4494 
L 2559 4959 
L 5594 4959 
L 5594 147 
z
M 1228 -366 
L 744 -366 
L 744 4244 
L 1228 4244 
L 1228 -366 
z
" transform="scale(0.015625)"/>
      <path id="ArialUnicodeMS-6f14" d="M 5838 3675 
L 5350 3675 
L 5350 4281 
L 2328 4281 
L 2328 3641 
L 1844 3641 
L 1844 4750 
L 3591 4750 
L 3591 5375 
L 4078 5375 
L 4078 4750 
L 5838 4750 
L 5838 3675 
z
M 1703 4347 
L 1344 4025 
Q 1103 4456 403 4813 
L 722 5153 
Q 1309 4834 1703 4347 
z
M 5478 903 
L 2241 903 
L 2241 3097 
L 3603 3097 
L 3603 3475 
L 2522 3475 
L 2522 3928 
L 5184 3928 
L 5184 3475 
L 4091 3475 
L 4091 3097 
L 5478 3097 
L 5478 903 
z
M 4991 2247 
L 4991 2656 
L 4091 2656 
L 4091 2247 
L 4991 2247 
z
M 3603 2247 
L 3603 2656 
L 2725 2656 
L 2725 2247 
L 3603 2247 
z
M 4991 1369 
L 4991 1778 
L 4091 1778 
L 4091 1369 
L 4991 1369 
z
M 3603 1369 
L 3603 1778 
L 2725 1778 
L 2725 1369 
L 3603 1369 
z
M 1606 2881 
L 1281 2566 
Q 875 3069 256 3372 
L 563 3713 
Q 1300 3369 1606 2881 
z
M 1784 1856 
Q 1538 641 738 -331 
L 384 -19 
Q 1131 950 1381 2053 
L 1784 1856 
z
M 3647 494 
Q 2691 -263 1931 -422 
L 1644 -31 
Q 2500 156 3359 844 
L 3647 494 
z
M 6144 -56 
L 5838 -409 
Q 5103 216 4084 469 
L 4403 825 
Q 5338 641 6144 -56 
z
" transform="scale(0.015625)"/>
      <path id="ArialUnicodeMS-5316" d="M 2431 5147 
Q 2322 4731 2081 4159 
L 1844 3603 
L 1844 -366 
L 1350 -366 
L 1350 2834 
Q 1006 2356 653 2075 
L 306 2444 
Q 1350 3319 2003 5350 
L 2431 5147 
z
M 6081 1325 
Q 5994 419 5786 114 
Q 5578 -191 5203 -191 
L 3872 -191 
Q 3534 -191 3339 -12 
Q 3144 166 3144 469 
L 3144 5178 
L 3628 5178 
L 3628 2853 
Q 4478 3413 5288 4488 
L 5709 4197 
Q 4800 2984 3628 2272 
L 3628 550 
Q 3628 288 3981 288 
L 5113 288 
Q 5553 288 5581 1503 
L 6081 1325 
z
" transform="scale(0.015625)"/>
     </defs>
     <use xlink:href="#ArialUnicodeMS-2461"/>
     <use xlink:href="#ArialUnicodeMS-20" x="100"/>
     <use xlink:href="#ArialUnicodeMS-91cf" x="127.783203"/>
     <use xlink:href="#ArialUnicodeMS-5b50" x="227.783203"/>
     <use xlink:href="#ArialUnicodeMS-95e8" x="327.783203"/>
     <use xlink:href="#ArialUnicodeMS-6f14" x="427.783203"/>
     <use xlink:href="#ArialUnicodeMS-5316" x="527.783203"/>
    </g>
   </g>
  </g>
  <g id="axes_3">
   <g id="patch_25">
    <path d="M 542.226233 205.770423 
L 726.118125 205.770423 
L 726.118125 32.106423 
L 542.226233 32.106423 
z
" style="fill: #f8fafc"/>
   </g>
   <g id="patch_26">
    <path d="M 550.584955 141.266652 
L 565.782632 141.266652 
L 565.782632 141.266652 
L 550.584955 141.266652 
z
" clip-path="url(#pd2f8c1d204)" style="fill: #dbeafe; stroke: #3b82f6; stroke-width: 1.2; stroke-linejoin: miter"/>
   </g>
   <g id="patch_27">
    <path d="M 572.295923 141.266652 
L 587.4936 141.266652 
L 587.4936 141.266652 
L 572.295923 141.266652 
z
" clip-path="url(#pd2f8c1d204)" style="fill: #dbeafe; stroke: #3b82f6; stroke-width: 1.2; stroke-linejoin: miter"/>
   </g>
   <g id="patch_28">
    <path d="M 594.00689 141.266652 
L 609.204567 141.266652 
L 609.204567 141.266652 
L 594.00689 141.266652 
z
" clip-path="url(#pd2f8c1d204)" style="fill: #dbeafe; stroke: #3b82f6; stroke-width: 1.2; stroke-linejoin: miter"/>
   </g>
   <g id="patch_29">
    <path d="M 615.717857 141.266652 
L 630.915534 141.266652 
L 630.915534 20.942309 
L 615.717857 20.942309 
z
" clip-path="url(#pd2f8c1d204)" style="fill: #ede9fe; stroke: #7c3aed; stroke-width: 1.2; stroke-linejoin: miter"/>
   </g>
   <g id="patch_30">
    <path d="M 637.428824 141.266652 
L 652.626501 141.266652 
L 652.626501 141.266652 
L 637.428824 141.266652 
z
" clip-path="url(#pd2f8c1d204)" style="fill: #dbeafe; stroke: #3b82f6; stroke-width: 1.2; stroke-linejoin: miter"/>
   </g>
   <g id="patch_31">
    <path d="M 659.139791 141.266652 
L 674.337468 141.266652 
L 674.337468 141.266652 
L 659.139791 141.266652 
z
" clip-path="url(#pd2f8c1d204)" style="fill: #dbeafe; stroke: #3b82f6; stroke-width: 1.2; stroke-linejoin: miter"/>
   </g>
   <g id="patch_32">
    <path d="M 680.850758 141.266652 
L 696.048435 141.266652 
L 696.048435 141.266652 
L 680.850758 141.266652 
z
" clip-path="url(#pd2f8c1d204)" style="fill: #dbeafe; stroke: #3b82f6; stroke-width: 1.2; stroke-linejoin: miter"/>
   </g>
   <g id="patch_33">
    <path d="M 702.561726 141.266652 
L 717.759403 141.266652 
L 717.759403 141.266652 
L 702.561726 141.266652 
z
" clip-path="url(#pd2f8c1d204)" style="fill: #dbeafe; stroke: #3b82f6; stroke-width: 1.2; stroke-linejoin: miter"/>
   </g>
   <g id="matplotlib.axis_5"/>
   <g id="matplotlib.axis_6">
    <g id="ytick_15">
     <g id="line2d_17">
      <g>
       <use xlink:href="#ma927ddf7c0" x="542.226233" y="190.884937" style="stroke: #000000; stroke-width: 0.8"/>
      </g>
     </g>
     <g id="text_21">
      <!-- −0.4 -->
      <g transform="translate(515.485608 194.463844) scale(0.1 -0.1)">
       <use xlink:href="#ArialUnicodeMS-2212"/>
       <use xlink:href="#ArialUnicodeMS-30" x="58.398438"/>
       <use xlink:href="#ArialUnicodeMS-2e" x="114.013672"/>
       <use xlink:href="#ArialUnicodeMS-34" x="141.796875"/>
      </g>
     </g>
    </g>
    <g id="ytick_16">
     <g id="line2d_18">
      <g>
       <use xlink:href="#ma927ddf7c0" x="542.226233" y="166.075795" style="stroke: #000000; stroke-width: 0.8"/>
      </g>
     </g>
     <g id="text_22">
      <!-- −0.2 -->
      <g transform="translate(515.485608 169.654701) scale(0.1 -0.1)">
       <use xlink:href="#ArialUnicodeMS-2212"/>
       <use xlink:href="#ArialUnicodeMS-30" x="58.398438"/>
       <use xlink:href="#ArialUnicodeMS-2e" x="114.013672"/>
       <use xlink:href="#ArialUnicodeMS-32" x="141.796875"/>
      </g>
     </g>
    </g>
    <g id="ytick_17">
     <g id="line2d_19">
      <g>
       <use xlink:href="#ma927ddf7c0" x="542.226233" y="141.266652" style="stroke: #000000; stroke-width: 0.8"/>
      </g>
     </g>
     <g id="text_23">
      <!-- 0.0 -->
      <g transform="translate(521.326233 144.845558) scale(0.1 -0.1)">
       <use xlink:href="#ArialUnicodeMS-30"/>
       <use xlink:href="#ArialUnicodeMS-2e" x="55.615234"/>
       <use xlink:href="#ArialUnicodeMS-30" x="83.398438"/>
      </g>
     </g>
    </g>
    <g id="ytick_18">
     <g id="line2d_20">
      <g>
       <use xlink:href="#ma927ddf7c0" x="542.226233" y="116.457509" style="stroke: #000000; stroke-width: 0.8"/>
      </g>
     </g>
     <g id="text_24">
      <!-- 0.2 -->
      <g transform="translate(521.326233 120.036415) scale(0.1 -0.1)">
       <use xlink:href="#ArialUnicodeMS-30"/>
       <use xlink:href="#ArialUnicodeMS-2e" x="55.615234"/>
       <use xlink:href="#ArialUnicodeMS-32" x="83.398438"/>
      </g>
     </g>
    </g>
    <g id="ytick_19">
     <g id="line2d_21">
      <g>
       <use xlink:href="#ma927ddf7c0" x="542.226233" y="91.648366" style="stroke: #000000; stroke-width: 0.8"/>
      </g>
     </g>
     <g id="text_25">
      <!-- 0.4 -->
      <g transform="translate(521.326233 95.227272) scale(0.1 -0.1)">
       <use xlink:href="#ArialUnicodeMS-30"/>
       <use xlink:href="#ArialUnicodeMS-2e" x="55.615234"/>
       <use xlink:href="#ArialUnicodeMS-34" x="83.398438"/>
      </g>
     </g>
    </g>
    <g id="ytick_20">
     <g id="line2d_22">
      <g>
       <use xlink:href="#ma927ddf7c0" x="542.226233" y="66.839223" style="stroke: #000000; stroke-width: 0.8"/>
      </g>
     </g>
     <g id="text_26">
      <!-- 0.6 -->
      <g transform="translate(521.326233 70.418129) scale(0.1 -0.1)">
       <use xlink:href="#ArialUnicodeMS-30"/>
       <use xlink:href="#ArialUnicodeMS-2e" x="55.615234"/>
       <use xlink:href="#ArialUnicodeMS-36" x="83.398438"/>
      </g>
     </g>
    </g>
    <g id="ytick_21">
     <g id="line2d_23">
      <g>
       <use xlink:href="#ma927ddf7c0" x="542.226233" y="42.03008" style="stroke: #000000; stroke-width: 0.8"/>
      </g>
     </g>
     <g id="text_27">
      <!-- 0.8 -->
      <g transform="translate(521.326233 45.608987) scale(0.1 -0.1)">
       <use xlink:href="#ArialUnicodeMS-30"/>
       <use xlink:href="#ArialUnicodeMS-2e" x="55.615234"/>
       <use xlink:href="#ArialUnicodeMS-38" x="83.398438"/>
      </g>
     </g>
    </g>
   </g>
   <g id="line2d_24">
    <path d="M 542.226233 141.266652 
L 726.118125 141.266652 
" clip-path="url(#pd2f8c1d204)" style="fill: none; stroke: #334155; stroke-width: 0.7; stroke-linecap: square"/>
   </g>
   <g id="patch_34">
    <path d="M 542.226233 205.770423 
L 542.226233 32.106423 
" style="fill: none; stroke: #cbd5e1; stroke-width: 0.8; stroke-linejoin: miter; stroke-linecap: square"/>
   </g>
   <g id="patch_35">
    <path d="M 542.226233 205.770423 
L 726.118125 205.770423 
" style="fill: none; stroke: #cbd5e1; stroke-width: 0.8; stroke-linejoin: miter; stroke-linecap: square"/>
   </g>
   <g id="text_28">
    <!-- 几乎总能得到正确答案 -->
    <g style="fill: #64748b" transform="translate(594.172179 202.049052) scale(0.08 -0.08)">
     <defs>
      <path id="ArialUnicodeMS-51e0" d="M 6150 1153 
Q 6025 353 5861 106 
Q 5697 -141 5459 -141 
L 4609 -141 
Q 4319 -141 4191 34 
Q 4063 209 4063 397 
L 4063 4488 
L 2309 4488 
L 2309 2753 
Q 2309 397 594 -416 
L 219 -56 
Q 1038 391 1422 1044 
Q 1806 1697 1806 2797 
L 1806 4953 
L 4550 4953 
L 4550 563 
Q 4550 325 4800 325 
L 5325 325 
Q 5438 325 5517 508 
Q 5597 691 5684 1338 
L 6150 1153 
z
" transform="scale(0.015625)"/>
      <path id="ArialUnicodeMS-4e4e" d="M 5913 2272 
L 3559 2272 
L 3559 206 
Q 3559 -409 2816 -409 
L 2284 -409 
L 2047 116 
Q 2634 75 2769 75 
Q 3053 75 3053 244 
L 3053 2272 
L 594 2272 
L 594 2759 
L 3053 2759 
L 3053 4403 
L 941 4300 
L 684 4756 
Q 4181 4813 5350 5288 
L 5672 4947 
Q 4997 4616 3559 4441 
L 3559 2759 
L 5913 2759 
L 5913 2272 
z
M 5325 4378 
Q 5072 3628 4306 2853 
L 3866 3128 
Q 4609 3797 4909 4588 
L 5325 4378 
z
M 2491 3066 
L 2034 2828 
Q 1688 3609 1075 4013 
L 1447 4306 
Q 1706 4159 2045 3748 
Q 2384 3338 2491 3066 
z
" transform="scale(0.015625)"/>
      <path id="ArialUnicodeMS-603b" d="M 4769 1806 
L 1478 1806 
L 1478 4078 
L 2419 4078 
Q 2128 4613 1550 5044 
L 1931 5306 
Q 2534 4856 2841 4281 
L 2547 4084 
L 2547 4078 
L 3738 4078 
L 3738 4084 
L 3406 4281 
Q 3853 4584 4219 5306 
L 4581 5056 
Q 4338 4425 3897 4084 
L 3909 4078 
L 4769 4078 
L 4769 1806 
z
M 4281 2272 
L 4281 3609 
L 1966 3609 
L 1966 2272 
L 4281 2272 
z
M 3950 825 
L 3541 538 
Q 3347 1056 2859 1459 
L 3213 1716 
Q 3631 1331 3950 825 
z
M 4903 709 
Q 4700 -9 4409 -91 
L 4225 -141 
L 2431 -141 
Q 2250 -141 2108 -1 
Q 1966 138 1966 306 
L 1966 1556 
L 2450 1556 
L 2450 422 
Q 2475 325 2584 325 
L 4178 325 
Q 4259 325 4340 517 
Q 4422 709 4447 966 
L 4903 709 
z
M 6003 409 
L 5619 103 
Q 5209 828 4653 1222 
L 5019 1497 
Q 5606 1100 6003 409 
z
M 1778 1216 
Q 1475 497 744 -25 
L 403 306 
Q 972 709 1459 1472 
L 1778 1216 
z
" transform="scale(0.015625)"/>
      <path id="ArialUnicodeMS-80fd" d="M 3419 3494 
L 3003 3231 
L 2809 3591 
L 531 3469 
L 403 3963 
L 844 3975 
Q 1316 4656 1644 5403 
L 2131 5191 
Q 1716 4381 1409 3975 
L 2541 4019 
Q 2359 4294 2144 4500 
L 2572 4738 
Q 3122 4225 3419 3494 
z
M 5978 3675 
Q 5825 2528 5294 2528 
L 4122 2528 
Q 3800 2563 3676 2722 
Q 3553 2881 3553 3009 
L 3553 5222 
L 4038 5222 
L 4038 4197 
Q 4997 4469 5556 4909 
L 5850 4544 
Q 5219 4009 4038 3719 
L 4038 3175 
Q 4066 2994 4366 2994 
L 5209 2994 
Q 5431 2994 5509 3853 
L 5978 3675 
z
M 3059 250 
Q 3059 28 2954 -105 
Q 2850 -238 2701 -277 
Q 2553 -316 1972 -306 
L 1791 184 
Q 2147 147 2297 147 
Q 2572 147 2572 319 
L 2572 922 
L 1234 922 
L 1234 -353 
L 750 -353 
L 750 3091 
L 3059 3091 
L 3059 250 
z
M 2572 2241 
L 2572 2625 
L 1234 2625 
L 1234 2241 
L 2572 2241 
z
M 2572 1388 
L 2572 1772 
L 1234 1772 
L 1234 1388 
L 2572 1388 
z
M 6138 800 
Q 6019 134 5831 -73 
Q 5644 -281 5369 -281 
L 4166 -281 
Q 3859 -281 3718 -92 
Q 3578 97 3578 263 
L 3578 2309 
L 4063 2309 
L 4063 1422 
Q 4950 1625 5606 2113 
L 5941 1753 
Q 5169 1163 4063 941 
L 4063 347 
Q 4063 184 4281 184 
L 5319 184 
Q 5469 184 5544 362 
Q 5619 541 5663 1031 
L 6138 800 
z
" transform="scale(0.015625)"/>
      <path id="ArialUnicodeMS-5f97" d="M 2228 5069 
Q 1656 4028 806 3384 
L 422 3719 
Q 1328 4325 1819 5331 
L 2228 5069 
z
M 5472 2869 
L 2572 2869 
L 2572 5013 
L 5472 5013 
L 5472 2869 
z
M 4984 4184 
L 4984 4544 
L 3059 4544 
L 3059 4184 
L 4984 4184 
z
M 4984 3334 
L 4984 3719 
L 3059 3719 
L 3059 3334 
L 4984 3334 
z
M 2316 3525 
Q 2188 3231 1778 2669 
L 1778 -447 
L 1294 -447 
L 1294 2119 
Q 906 1772 709 1644 
L 319 1931 
Q 1450 2694 1947 3847 
L 2316 3525 
z
M 6059 1228 
L 5191 1228 
L 5191 147 
Q 5191 -66 5030 -241 
Q 4869 -416 4666 -416 
L 4025 -416 
L 3822 84 
Q 4109 44 4513 44 
Q 4703 44 4703 269 
L 4703 1228 
L 2053 1228 
L 2053 1697 
L 4703 1697 
L 4703 2094 
L 2413 2094 
L 2413 2559 
L 5797 2559 
L 5797 2094 
L 5191 2094 
L 5191 1697 
L 6059 1697 
L 6059 1228 
z
M 3981 475 
L 3653 122 
Q 3106 681 2478 850 
L 2784 1166 
Q 3431 1013 3981 475 
z
" transform="scale(0.015625)"/>
      <path id="ArialUnicodeMS-5230" d="M 5791 109 
Q 5791 -113 5609 -264 
Q 5428 -416 5197 -416 
L 4628 -416 
L 4397 122 
Q 4809 56 5031 56 
Q 5306 56 5306 300 
L 5306 5288 
L 5791 5288 
L 5791 109 
z
M 4050 4513 
L 2381 4513 
Q 2147 3847 1716 3156 
L 3144 3238 
Q 2884 3613 2613 3847 
L 3047 4050 
Q 3706 3506 3981 2631 
L 3541 2369 
Q 3478 2572 3359 2809 
L 722 2631 
L 544 3109 
L 1166 3144 
Q 1638 3966 1850 4513 
L 556 4513 
L 556 4978 
L 4050 4978 
L 4050 4513 
z
M 4750 984 
L 4263 984 
L 4263 4556 
L 4750 4556 
L 4750 984 
z
M 3944 213 
L 641 -319 
L 416 159 
Q 881 181 2003 378 
L 2003 1344 
L 775 1344 
L 775 1813 
L 2003 1813 
L 2003 2553 
L 2491 2553 
L 2491 1813 
L 3700 1813 
L 3700 1344 
L 2491 1344 
L 2491 459 
L 3944 666 
L 3944 213 
z
" transform="scale(0.015625)"/>
     </defs>
     <use xlink:href="#ArialUnicodeMS-51e0"/>
     <use xlink:href="#ArialUnicodeMS-4e4e" x="100"/>
     <use xlink:href="#ArialUnicodeMS-603b" x="200"/>
     <use xlink:href="#ArialUnicodeMS-80fd" x="300"/>
     <use xlink:href="#ArialUnicodeMS-5f97" x="400"/>
     <use xlink:href="#ArialUnicodeMS-5230" x="500"/>
     <use xlink:href="#ArialUnicodeMS-6b63" x="600"/>
     <use xlink:href="#ArialUnicodeMS-786e" x="700"/>
     <use xlink:href="#ArialUnicodeMS-7b54" x="800"/>
     <use xlink:href="#ArialUnicodeMS-6848" x="900"/>
    </g>
   </g>
   <g id="text_29">
    <!-- ✓ -->
    <g style="fill: #7c3aed" transform="translate(618.032789 17.220937) scale(0.14 -0.14)">
     <defs>
      <path id="ArialUnicodeMS-2713" d="M 1497 856 
Q 1784 1513 2114 2111 
Q 2444 2709 2794 3216 
Q 3206 3809 3444 4072 
Q 3597 4241 3731 4350 
Q 3809 4413 3978 4444 
Q 4388 4519 4550 4519 
Q 4622 4519 4622 4469 
Q 4622 4422 4550 4356 
Q 3925 3800 3239 2765 
Q 2553 1731 2081 569 
Q 1903 134 1833 35 
Q 1763 -63 1394 -63 
Q 1153 -63 1092 -16 
Q 1031 31 872 281 
Q 597 697 281 1031 
Q 116 1206 116 1300 
Q 116 1431 300 1557 
Q 484 1684 603 1684 
Q 769 1684 1001 1498 
Q 1234 1313 1497 856 
z
" transform="scale(0.015625)"/>
     </defs>
     <use xlink:href="#ArialUnicodeMS-2713"/>
    </g>
   </g>
   <g id="text_30">
    <!-- ③ 测量 -->
    <g style="fill: #334155" transform="translate(616.14421 26.106423) scale(0.11 -0.11)">
     <defs>
      <path id="ArialUnicodeMS-2462" d="M 3200 4659 
Q 3916 4659 4539 4298 
Q 5163 3938 5522 3316 
Q 5881 2694 5881 1978 
Q 5881 1266 5520 644 
Q 5159 22 4536 -337 
Q 3913 -697 3200 -697 
Q 2488 -697 1864 -337 
Q 1241 22 880 644 
Q 519 1266 519 1978 
Q 519 2694 878 3317 
Q 1238 3941 1861 4300 
Q 2484 4659 3200 4659 
z
M 3200 -294 
Q 4131 -294 4804 376 
Q 5478 1047 5478 1978 
Q 5478 2584 5172 3114 
Q 4866 3644 4336 3950 
Q 3806 4256 3200 4256 
Q 2263 4256 1592 3584 
Q 922 2913 922 1978 
Q 922 1047 1595 376 
Q 2269 -294 3200 -294 
z
M 3641 2125 
Q 3931 2059 4064 1846 
Q 4197 1634 4197 1388 
Q 4197 972 3898 715 
Q 3600 459 3200 459 
Q 2806 459 2550 690 
Q 2294 922 2253 1300 
L 2619 1350 
Q 2669 1056 2814 909 
Q 2959 763 3200 763 
Q 3453 763 3631 942 
Q 3809 1122 3809 1381 
Q 3809 1631 3646 1795 
Q 3484 1959 3225 1959 
Q 3106 1959 2969 1919 
L 3016 2241 
Q 3363 2241 3522 2383 
Q 3681 2525 3681 2741 
Q 3681 2959 3531 3082 
Q 3381 3206 3188 3206 
Q 2959 3206 2826 3070 
Q 2694 2934 2656 2663 
L 2284 2725 
Q 2356 3116 2600 3308 
Q 2844 3500 3181 3500 
Q 3556 3500 3803 3276 
Q 4050 3053 4050 2725 
Q 4050 2316 3641 2131 
L 3641 2125 
z
" transform="scale(0.015625)"/>
      <path id="ArialUnicodeMS-6d4b" d="M 5631 31 
Q 5631 -159 5501 -270 
Q 5372 -381 5247 -378 
L 4647 -366 
L 4475 128 
L 5019 72 
Q 5147 72 5147 197 
L 5147 5300 
L 5631 5300 
L 5631 31 
z
M 1766 4422 
L 1434 4097 
Q 1069 4584 469 4928 
L 750 5234 
Q 1344 4934 1766 4422 
z
M 3859 1209 
L 3406 1209 
L 3406 4469 
L 2316 4469 
L 2316 1209 
L 1863 1209 
L 1863 4909 
L 3859 4909 
L 3859 1209 
z
M 4697 1031 
L 4275 1031 
L 4275 4378 
L 4697 4378 
L 4697 1031 
z
M 3078 2113 
Q 3078 1225 2779 669 
Q 2481 113 1728 -403 
L 1416 -6 
Q 2516 656 2591 1644 
L 2625 2059 
L 2625 4013 
L 3078 4013 
L 3078 2113 
z
M 1563 3016 
L 1228 2681 
Q 922 3172 325 3541 
L 603 3847 
Q 1181 3534 1563 3016 
z
M 1772 2028 
Q 1516 603 703 -306 
L 306 13 
Q 1172 1047 1394 2228 
L 1772 2028 
z
M 4409 -78 
L 4013 -331 
Q 3625 397 3053 878 
L 3353 1141 
Q 3966 663 4409 -78 
z
" transform="scale(0.015625)"/>
     </defs>
     <use xlink:href="#ArialUnicodeMS-2462"/>
     <use xlink:href="#ArialUnicodeMS-20" x="100"/>
     <use xlink:href="#ArialUnicodeMS-6d4b" x="127.783203"/>
     <use xlink:href="#ArialUnicodeMS-91cf" x="227.783203"/>
    </g>
   </g>
  </g>
  <g id="text_31">
   <!-- → -->
   <g style="fill: #64748b" transform="translate(253.335469 128.508611) scale(0.22 -0.22)">
    <defs>
     <path id="ArialUnicodeMS-2192" d="M 4306 1563 
Q 3528 1278 3091 641 
L 2869 641 
Q 3019 1088 3372 1484 
L 256 1484 
L 256 1791 
L 3372 1791 
Q 3019 2188 2869 2638 
L 3091 2638 
Q 3528 2000 4306 1716 
L 4306 1563 
z
" transform="scale(0.015625)"/>
    </defs>
    <use xlink:href="#ArialUnicodeMS-2192"/>
   </g>
  </g>
  <g id="text_32">
   <!-- → -->
   <g style="fill: #64748b" transform="translate(487.695469 128.508611) scale(0.22 -0.22)">
    <use xlink:href="#ArialUnicodeMS-2192"/>
   </g>
  </g>
 </g>
 <defs>
  <clipPath id="p27ca22a2f9">
   <rect x="45.718125" y="32.106423" width="183.891892" height="173.664"/>
  </clipPath>
  <clipPath id="pa707d777ec">
   <rect x="293.972179" y="32.106423" width="183.891892" height="173.664"/>
  </clipPath>
  <clipPath id="pd2f8c1d204">
   <rect x="542.226233" y="32.106423" width="183.891892" height="173.664"/>
  </clipPath>
 </defs>
</svg>
