<svg xmlns:xlink="http://www.w3.org/1999/xlink" style="width:100%;max-width:860px;display:block;margin:1.5rem auto;" viewBox="0 0 784.8 294.5385" xmlns="http://www.w3.org/2000/svg" version="1.1">
 <metadata>
  <rdf:RDF xmlns:dc="http://purl.org/dc/elements/1.1/" xmlns:cc="http://creativecommons.org/ns#" xmlns:rdf="http://www.w3.org/1999/02/22-rdf-syntax-ns#">
   <cc:Work>
    <dc:type rdf:resource="http://purl.org/dc/dcmitype/StillImage"/>
    <dc:date>2026-05-27T21:40:14.122986</dc:date>
    <dc:format>image/svg+xml</dc:format>
    <dc:creator>
     <cc:Agent>
      <dc:title>Matplotlib v3.9.4, https://matplotlib.org/</dc:title>
     </cc:Agent>
    </dc:creator>
   </cc:Work>
  </rdf:RDF>
 </metadata>
 <defs>
  <style type="text/css">*{stroke-linejoin: round; stroke-linecap: butt}</style>
 </defs>
 <g id="figure_1">
  <g id="patch_1">
   <path d="M 0 294.5385 
L 784.8 294.5385 
L 784.8 0 
L 0 0 
z
" style="fill: #f8fafc"/>
  </g>
  <g id="axes_1">
   <g id="patch_2">
    <path d="M 329.367273 84.571586 
L 350.378182 84.571586 
Q 351.778909 84.571586 351.778909 83.237593 
L 351.778909 57.891729 
Q 351.778909 56.557736 350.378182 56.557736 
L 329.367273 56.557736 
Q 327.966545 56.557736 327.966545 57.891729 
L 327.966545 83.237593 
Q 327.966545 84.571586 329.367273 84.571586 
z
" clip-path="url(#p7dd6ec6013)" style="fill: #ede9fe; stroke: #7c3aed; stroke-width: 2; stroke-linejoin: miter"/>
   </g>
   <g id="line2d_1">
    <path d="M 95.445818 70.564661 
L 95.400657 69.843511 
L 95.265703 69.130816 
L 95.042538 68.434931 
L 94.733779 67.764015 
L 94.343046 67.125935 
L 93.874919 66.52817 
L 93.334887 65.97773 
L 92.729282 65.481067 
L 92.065203 65.044005 
L 91.350437 64.671667 
L 90.593363 64.368419 
L 89.802857 64.137817 
L 88.988187 63.982563 
L 88.158904 63.904479 
L 87.324732 63.904479 
L 86.49545 63.982563 
L 85.68078 64.137817 
L 84.890274 64.368419 
L 84.1332 64.671667 
L 83.418433 65.044005 
L 82.754354 65.481067 
L 82.148749 65.97773 
L 81.608717 66.52817 
L 81.14059 67.125935 
L 80.749857 67.764015 
L 80.441098 68.434931 
L 80.217933 69.130816 
L 80.082979 69.843511 
L 80.037818 70.564661 
" clip-path="url(#p7dd6ec6013)" style="fill: none; stroke: #3b82f6; stroke-width: 1.8; stroke-linecap: square"/>
   </g>
   <g id="line2d_2">
    <path d="M 110.853818 70.564661 
L 110.808657 69.843511 
L 110.673703 69.130816 
L 110.450538 68.434931 
L 110.141779 67.764015 
L 109.751046 67.125935 
L 109.282919 66.52817 
L 108.742887 65.97773 
L 108.137282 65.481067 
L 107.473203 65.044005 
L 106.758437 64.671667 
L 106.001363 64.368419 
L 105.210857 64.137817 
L 104.396187 63.982563 
L 103.566904 63.904479 
L 102.732732 63.904479 
L 101.90345 63.982563 
L 101.08878 64.137817 
L 100.298274 64.368419 
L 99.5412 64.671667 
L 98.826433 65.044005 
L 98.162354 65.481067 
L 97.556749 65.97773 
L 97.016717 66.52817 
L 96.54859 67.125935 
L 96.157857 67.764015 
L 95.849098 68.434931 
L 95.625933 69.130816 
L 95.490979 69.843511 
L 95.445818 70.564661 
" clip-path="url(#p7dd6ec6013)" style="fill: none; stroke: #3b82f6; stroke-width: 1.8; stroke-linecap: square"/>
   </g>
   <g id="line2d_3">
    <path d="M 126.261818 70.564661 
L 126.216657 69.843511 
L 126.081703 69.130816 
L 125.858538 68.434931 
L 125.549779 67.764015 
L 125.159046 67.125935 
L 124.690919 66.52817 
L 124.150887 65.97773 
L 123.545282 65.481067 
L 122.881203 65.044005 
L 122.166437 64.671667 
L 121.409363 64.368419 
L 120.618857 64.137817 
L 119.804187 63.982563 
L 118.974904 63.904479 
L 118.140732 63.904479 
L 117.31145 63.982563 
L 116.49678 64.137817 
L 115.706274 64.368419 
L 114.9492 64.671667 
L 114.234433 65.044005 
L 113.570354 65.481067 
L 112.964749 65.97773 
L 112.424717 66.52817 
L 111.95659 67.125935 
L 111.565857 67.764015 
L 111.257098 68.434931 
L 111.033933 69.130816 
L 110.898979 69.843511 
L 110.853818 70.564661 
" clip-path="url(#p7dd6ec6013)" style="fill: none; stroke: #3b82f6; stroke-width: 1.8; stroke-linecap: square"/>
   </g>
   <g id="line2d_4">
    <path d="M 141.669818 70.564661 
L 141.624657 69.843511 
L 141.489703 69.130816 
L 141.266538 68.434931 
L 140.957779 67.764015 
L 140.567046 67.125935 
L 140.098919 66.52817 
L 139.558887 65.97773 
L 138.953282 65.481067 
L 138.289203 65.044005 
L 137.574437 64.671667 
L 136.817363 64.368419 
L 136.026857 64.137817 
L 135.212187 63.982563 
L 134.382904 63.904479 
L 133.548732 63.904479 
L 132.71945 63.982563 
L 131.90478 64.137817 
L 131.114274 64.368419 
L 130.3572 64.671667 
L 129.642433 65.044005 
L 128.978354 65.481067 
L 128.372749 65.97773 
L 127.832717 66.52817 
L 127.36459 67.125935 
L 126.973857 67.764015 
L 126.665098 68.434931 
L 126.441933 69.130816 
L 126.306979 69.843511 
L 126.261818 70.564661 
" clip-path="url(#p7dd6ec6013)" style="fill: none; stroke: #3b82f6; stroke-width: 1.8; stroke-linecap: square"/>
   </g>
   <g id="line2d_5">
    <path d="M 138.868364 77.234625 
L 162.680727 77.234625 
" clip-path="url(#p7dd6ec6013)" style="fill: none; stroke: #3b82f6; stroke-width: 2.5; stroke-linecap: square"/>
   </g>
   <g id="line2d_6">
    <path d="M 138.868364 63.894696 
L 162.680727 63.894696 
" clip-path="url(#p7dd6ec6013)" style="fill: none; stroke: #3b82f6; stroke-width: 2.5; stroke-linecap: square"/>
   </g>
   <g id="line2d_7">
    <path d="M 87.741818 53.88975 
L 162.680727 53.88975 
" clip-path="url(#p7dd6ec6013)" style="fill: none; stroke: #3b82f6; stroke-width: 1.5; stroke-linecap: square"/>
   </g>
   <g id="line2d_8">
    <path d="M 87.741818 87.239571 
L 162.680727 87.239571 
" clip-path="url(#p7dd6ec6013)" style="fill: none; stroke: #3b82f6; stroke-width: 1.5; stroke-linecap: square"/>
   </g>
   <g id="line2d_9">
    <path d="M 87.741818 87.239571 
L 87.741818 53.88975 
" clip-path="url(#p7dd6ec6013)" style="fill: none; stroke: #3b82f6; stroke-width: 1.5; stroke-linecap: square"/>
   </g>
   <g id="line2d_10">
    <path d="M 162.680727 87.239571 
L 162.680727 53.88975 
" clip-path="url(#p7dd6ec6013)" style="fill: none; stroke: #3b82f6; stroke-width: 1.5; stroke-linecap: square"/>
   </g>
   <g id="line2d_11">
    <path d="M 87.741818 260.658643 
L 150.774545 260.658643 
" clip-path="url(#p7dd6ec6013)" style="fill: none; stroke: #3b82f6; stroke-width: 1.8; stroke-linecap: square"/>
   </g>
   <g id="line2d_12">
    <path d="M 87.741818 237.980764 
L 150.774545 237.980764 
" clip-path="url(#p7dd6ec6013)" style="fill: none; stroke: #3b82f6; stroke-width: 1.8; stroke-linecap: square"/>
   </g>
   <g id="line2d_13">
    <path d="M 87.741818 215.302886 
L 150.774545 215.302886 
" clip-path="url(#p7dd6ec6013)" style="fill: none; stroke: #3b82f6; stroke-width: 1.8; stroke-linecap: square"/>
   </g>
   <g id="line2d_14">
    <path d="M 87.741818 192.625007 
L 150.774545 192.625007 
" clip-path="url(#p7dd6ec6013)" style="fill: none; stroke: #3b82f6; stroke-width: 1.8; stroke-linecap: square"/>
   </g>
   <g id="line2d_15">
    <path d="M 87.741818 169.947129 
L 150.774545 169.947129 
" clip-path="url(#p7dd6ec6013)" style="fill: none; stroke: #3b82f6; stroke-width: 1.8; stroke-linecap: square"/>
   </g>
   <g id="line2d_16">
    <path d="M 347.576727 70.564661 
L 347.531566 69.843511 
L 347.396612 69.130816 
L 347.173447 68.434931 
L 346.864688 67.764015 
L 346.473955 67.125935 
L 346.005828 66.52817 
L 345.465797 65.97773 
L 344.860191 65.481067 
L 344.196112 65.044005 
L 343.481346 64.671667 
L 342.724272 64.368419 
L 341.933766 64.137817 
L 341.119096 63.982563 
L 340.289813 63.904479 
L 339.455641 63.904479 
L 338.626359 63.982563 
L 337.811689 64.137817 
L 337.021183 64.368419 
L 336.264109 64.671667 
L 335.549342 65.044005 
L 334.885263 65.481067 
L 334.279658 65.97773 
L 333.739626 66.52817 
L 333.2715 67.125935 
L 332.880766 67.764015 
L 332.572007 68.434931 
L 332.348843 69.130816 
L 332.213888 69.843511 
L 332.168727 70.564661 
" clip-path="url(#p7dd6ec6013)" style="fill: none; stroke: #7c3aed; stroke-width: 1.8; stroke-linecap: square"/>
   </g>
   <g id="line2d_17">
    <path d="M 362.984727 70.564661 
L 362.939566 69.843511 
L 362.804612 69.130816 
L 362.581447 68.434931 
L 362.272688 67.764015 
L 361.881955 67.125935 
L 361.413828 66.52817 
L 360.873797 65.97773 
L 360.268191 65.481067 
L 359.604112 65.044005 
L 358.889346 64.671667 
L 358.132272 64.368419 
L 357.341766 64.137817 
L 356.527096 63.982563 
L 355.697813 63.904479 
L 354.863641 63.904479 
L 354.034359 63.982563 
L 353.219689 64.137817 
L 352.429183 64.368419 
L 351.672109 64.671667 
L 350.957342 65.044005 
L 350.293263 65.481067 
L 349.687658 65.97773 
L 349.147626 66.52817 
L 348.6795 67.125935 
L 348.288766 67.764015 
L 347.980007 68.434931 
L 347.756843 69.130816 
L 347.621888 69.843511 
L 347.576727 70.564661 
" clip-path="url(#p7dd6ec6013)" style="fill: none; stroke: #7c3aed; stroke-width: 1.8; stroke-linecap: square"/>
   </g>
   <g id="line2d_18">
    <path d="M 378.392727 70.564661 
L 378.347566 69.843511 
L 378.212612 69.130816 
L 377.989447 68.434931 
L 377.680688 67.764015 
L 377.289955 67.125935 
L 376.821828 66.52817 
L 376.281797 65.97773 
L 375.676191 65.481067 
L 375.012112 65.044005 
L 374.297346 64.671667 
L 373.540272 64.368419 
L 372.749766 64.137817 
L 371.935096 63.982563 
L 371.105813 63.904479 
L 370.271641 63.904479 
L 369.442359 63.982563 
L 368.627689 64.137817 
L 367.837183 64.368419 
L 367.080109 64.671667 
L 366.365342 65.044005 
L 365.701263 65.481067 
L 365.095658 65.97773 
L 364.555626 66.52817 
L 364.0875 67.125935 
L 363.696766 67.764015 
L 363.388007 68.434931 
L 363.164843 69.130816 
L 363.029888 69.843511 
L 362.984727 70.564661 
" clip-path="url(#p7dd6ec6013)" style="fill: none; stroke: #7c3aed; stroke-width: 1.8; stroke-linecap: square"/>
   </g>
   <g id="line2d_19">
    <path d="M 393.800727 70.564661 
L 393.755566 69.843511 
L 393.620612 69.130816 
L 393.397447 68.434931 
L 393.088688 67.764015 
L 392.697955 67.125935 
L 392.229828 66.52817 
L 391.689797 65.97773 
L 391.084191 65.481067 
L 390.420112 65.044005 
L 389.705346 64.671667 
L 388.948272 64.368419 
L 388.157766 64.137817 
L 387.343096 63.982563 
L 386.513813 63.904479 
L 385.679641 63.904479 
L 384.850359 63.982563 
L 384.035689 64.137817 
L 383.245183 64.368419 
L 382.488109 64.671667 
L 381.773342 65.044005 
L 381.109263 65.481067 
L 380.503658 65.97773 
L 379.963626 66.52817 
L 379.4955 67.125935 
L 379.104766 67.764015 
L 378.796007 68.434931 
L 378.572843 69.130816 
L 378.437888 69.843511 
L 378.392727 70.564661 
" clip-path="url(#p7dd6ec6013)" style="fill: none; stroke: #7c3aed; stroke-width: 1.8; stroke-linecap: square"/>
   </g>
   <g id="line2d_20">
    <path d="M 390.999273 77.234625 
L 414.811636 77.234625 
" clip-path="url(#p7dd6ec6013)" style="fill: none; stroke: #7c3aed; stroke-width: 2.5; stroke-linecap: square"/>
   </g>
   <g id="line2d_21">
    <path d="M 390.999273 63.894696 
L 414.811636 63.894696 
" clip-path="url(#p7dd6ec6013)" style="fill: none; stroke: #7c3aed; stroke-width: 2.5; stroke-linecap: square"/>
   </g>
   <g id="line2d_22">
    <path d="M 350.378182 53.88975 
L 414.811636 53.88975 
" clip-path="url(#p7dd6ec6013)" style="fill: none; stroke: #7c3aed; stroke-width: 1.5; stroke-linecap: square"/>
   </g>
   <g id="line2d_23">
    <path d="M 350.378182 87.239571 
L 414.811636 87.239571 
" clip-path="url(#p7dd6ec6013)" style="fill: none; stroke: #7c3aed; stroke-width: 1.5; stroke-linecap: square"/>
   </g>
   <g id="line2d_24">
    <path d="M 329.367273 87.239571 
L 329.367273 53.88975 
" clip-path="url(#p7dd6ec6013)" style="fill: none; stroke: #7c3aed; stroke-width: 1.5; stroke-linecap: square"/>
   </g>
   <g id="line2d_25">
    <path d="M 414.811636 87.239571 
L 414.811636 53.88975 
" clip-path="url(#p7dd6ec6013)" style="fill: none; stroke: #7c3aed; stroke-width: 1.5; stroke-linecap: square"/>
   </g>
   <g id="line2d_26">
    <path d="M 339.872727 260.658643 
L 402.905455 260.658643 
" clip-path="url(#p7dd6ec6013)" style="fill: none; stroke: #334155; stroke-width: 1.8; stroke-linecap: square"/>
   </g>
   <g id="line2d_27">
    <path d="M 339.872727 243.316736 
L 402.905455 243.316736 
" clip-path="url(#p7dd6ec6013)" style="fill: none; stroke: #334155; stroke-width: 1.8; stroke-linecap: square"/>
   </g>
   <g id="line2d_28">
    <path d="M 339.872727 220.638857 
L 402.905455 220.638857 
" clip-path="url(#p7dd6ec6013)" style="fill: none; stroke: #334155; stroke-width: 1.8; stroke-linecap: square"/>
   </g>
   <g id="line2d_29">
    <path d="M 339.872727 195.292993 
L 402.905455 195.292993 
" clip-path="url(#p7dd6ec6013)" style="fill: none; stroke: #334155; stroke-width: 1.8; stroke-linecap: square"/>
   </g>
   <g id="line2d_30">
    <path d="M 339.872727 167.279143 
L 402.905455 167.279143 
" clip-path="url(#p7dd6ec6013)" style="fill: none; stroke: #334155; stroke-width: 1.8; stroke-linecap: square"/>
   </g>
   <g id="line2d_31">
    <path d="M 606.010909 260.658643 
L 669.043636 260.658643 
" clip-path="url(#p7dd6ec6013)" style="fill: none; stroke: #cbd5e1; stroke-width: 1.8; stroke-linecap: square"/>
   </g>
   <g id="line2d_32">
    <path d="M 606.010909 243.316736 
L 669.043636 243.316736 
" clip-path="url(#p7dd6ec6013)" style="fill: none; stroke: #cbd5e1; stroke-width: 1.8; stroke-linecap: square"/>
   </g>
   <g id="line2d_33">
    <path d="M 606.010909 220.638857 
L 669.043636 220.638857 
" clip-path="url(#p7dd6ec6013)" style="fill: none; stroke: #cbd5e1; stroke-width: 1.8; stroke-linecap: square"/>
   </g>
   <g id="line2d_34">
    <path d="M 606.010909 195.292993 
L 669.043636 195.292993 
" clip-path="url(#p7dd6ec6013)" style="fill: none; stroke: #cbd5e1; stroke-width: 1.8; stroke-linecap: square"/>
   </g>
   <g id="line2d_35">
    <path d="M 606.010909 167.279143 
L 669.043636 167.279143 
" clip-path="url(#p7dd6ec6013)" style="fill: none; stroke: #cbd5e1; stroke-width: 1.8; stroke-linecap: square"/>
   </g>
   <g id="text_1">
    <!-- ① 普通 LC 谐振器 -->
    <g style="fill: #334155" transform="translate(72.615799 17.204946) scale(0.115 -0.115)">
     <defs>
      <path id="ArialUnicodeMS-2460" d="M 3200 4659 
Q 3916 4659 4539 4298 
Q 5163 3938 5522 3316 
Q 5881 2694 5881 1978 
Q 5881 1266 5520 644 
Q 5159 22 4536 -337 
Q 3913 -697 3200 -697 
Q 2488 -697 1864 -337 
Q 1241 22 880 644 
Q 519 1266 519 1978 
Q 519 2694 878 3317 
Q 1238 3941 1861 4300 
Q 2484 4659 3200 4659 
z
M 3200 -294 
Q 4131 -294 4804 376 
Q 5478 1047 5478 1978 
Q 5478 2584 5172 3114 
Q 4866 3644 4336 3950 
Q 3806 4256 3200 4256 
Q 2263 4256 1592 3584 
Q 922 2913 922 1978 
Q 922 1047 1595 376 
Q 2269 -294 3200 -294 
z
M 3475 513 
L 3109 513 
L 3109 2841 
Q 2834 2584 2375 2400 
L 2375 2753 
Q 3003 3059 3238 3500 
L 3475 3500 
L 3475 513 
z
" transform="scale(0.015625)"/>
      <path id="ArialUnicodeMS-20" transform="scale(0.015625)"/>
      <path id="ArialUnicodeMS-666e" d="M 6041 2578 
L 341 2578 
L 341 3047 
L 2388 3047 
L 2388 4147 
L 563 4147 
L 563 4616 
L 2047 4616 
Q 1809 4881 1528 5100 
L 1966 5350 
Q 2278 5075 2619 4616 
L 3744 4616 
Q 4269 5238 4359 5409 
L 4825 5191 
Q 4547 4803 4372 4616 
L 5778 4616 
L 5778 4147 
L 5044 4141 
L 5381 3928 
Q 5056 3391 4672 3084 
L 4250 3359 
Q 4647 3644 4947 4147 
L 3994 4147 
L 3994 3047 
L 6041 3047 
L 6041 2578 
z
M 3506 3047 
L 3506 4147 
L 2875 4147 
L 2875 3047 
L 3506 3047 
z
M 2022 3384 
L 1619 3122 
Q 1456 3422 909 3853 
L 1269 4103 
Q 1878 3659 2022 3384 
z
M 5131 -416 
L 4647 -416 
L 4647 -44 
L 1747 -44 
L 1747 -447 
L 1259 -447 
L 1259 2291 
L 5131 2291 
L 5131 -416 
z
M 4647 1369 
L 4647 1825 
L 1747 1825 
L 1747 1369 
L 4647 1369 
z
M 4647 422 
L 4647 903 
L 1747 903 
L 1747 422 
L 4647 422 
z
" transform="scale(0.015625)"/>
      <path id="ArialUnicodeMS-901a" d="M 1759 4097 
L 1344 3822 
Q 1000 4541 500 4966 
L 856 5228 
Q 1384 4797 1759 4097 
z
M 5703 959 
Q 5703 791 5561 666 
Q 5419 541 5167 528 
Q 4916 516 4647 513 
L 4488 966 
Q 4753 953 4831 953 
Q 5216 953 5216 1119 
L 5216 1644 
L 4178 1644 
L 4178 750 
L 3719 750 
L 3719 1644 
L 2675 1644 
L 2675 609 
L 2216 609 
L 2216 3878 
L 3603 3878 
Q 2941 4109 2778 4153 
L 3144 4531 
Q 3422 4463 3834 4244 
Q 4041 4284 4716 4616 
L 2041 4616 
L 2041 5056 
L 5588 5056 
L 5588 4653 
Q 5019 4213 4294 3950 
L 4428 3878 
L 5703 3878 
L 5703 959 
z
M 5216 2994 
L 5216 3438 
L 4178 3438 
L 4178 2994 
L 5216 2994 
z
M 3719 2994 
L 3719 3438 
L 2675 3438 
L 2675 2994 
L 3719 2994 
z
M 5216 2088 
L 5216 2528 
L 4178 2528 
L 4178 2088 
L 5216 2088 
z
M 3719 2088 
L 3719 2528 
L 2675 2528 
L 2675 2088 
L 3719 2088 
z
M 6094 347 
L 5900 -178 
L 3297 -178 
Q 2531 -178 2154 5 
Q 1778 188 1528 488 
Q 1309 325 563 -341 
L 197 44 
Q 559 313 1275 903 
L 1275 2888 
L 422 2888 
L 422 3328 
L 1759 3328 
L 1759 909 
Q 2050 594 2409 445 
Q 2769 297 3103 294 
L 3713 294 
Q 5228 294 6094 347 
z
" transform="scale(0.015625)"/>
      <path id="ArialUnicodeMS-4c" d="M 3347 0 
L 481 0 
L 481 4581 
L 1088 4581 
L 1088 544 
L 3347 544 
L 3347 0 
z
" transform="scale(0.015625)"/>
      <path id="ArialUnicodeMS-43" d="M 4372 1453 
Q 4172 681 3673 301 
Q 3175 -78 2478 -78 
Q 1353 -78 839 626 
Q 325 1331 325 2322 
Q 325 3419 929 4039 
Q 1534 4659 2484 4659 
Q 3153 4659 3628 4318 
Q 4103 3978 4294 3322 
L 3700 3181 
Q 3550 3659 3244 3900 
Q 2938 4141 2478 4141 
Q 1728 4141 1340 3648 
Q 953 3156 953 2328 
Q 953 1372 1361 906 
Q 1769 441 2425 441 
Q 2963 441 3298 731 
Q 3634 1022 3769 1606 
L 4372 1453 
z
" transform="scale(0.015625)"/>
      <path id="ArialUnicodeMS-8c10" d="M 6069 3744 
Q 6038 3528 5947 3220 
Q 5856 2913 5682 2813 
Q 5509 2713 5381 2713 
L 4722 2713 
Q 4500 2713 4329 2847 
Q 4159 2981 4159 3200 
L 4159 5306 
L 4647 5306 
L 4647 4244 
Q 5147 4391 5556 4891 
L 5953 4588 
Q 5359 3969 4647 3775 
L 4647 3334 
Q 4647 3181 4878 3181 
L 5300 3181 
Q 5497 3181 5538 3456 
L 5606 3938 
L 6069 3744 
z
M 4044 3003 
L 2753 2578 
L 2484 3016 
Q 2631 3188 2631 3316 
L 2631 5306 
L 3116 5306 
L 3116 4481 
L 4019 4481 
L 4019 4013 
L 3116 4013 
L 3116 3206 
L 4044 3481 
L 4044 3003 
z
M 2075 4122 
L 1672 3816 
Q 1422 4331 856 4781 
L 1203 5075 
Q 1750 4700 2075 4122 
z
M 2631 563 
L 1478 -97 
L 1191 319 
Q 1281 475 1281 594 
L 1281 2847 
L 366 2847 
L 366 3316 
L 1766 3316 
L 1766 609 
L 2631 1088 
L 2631 563 
z
M 5434 -428 
L 4947 -428 
L 4947 -44 
L 3219 -44 
L 3219 -428 
L 2731 -428 
L 2731 2356 
L 3700 2356 
Q 3925 2628 4013 2894 
L 4434 2719 
Q 4381 2563 4256 2356 
L 5434 2356 
L 5434 -428 
z
M 4947 1416 
L 4947 1888 
L 3219 1888 
L 3219 1416 
L 4947 1416 
z
M 4947 422 
L 4947 947 
L 3219 947 
L 3219 422 
L 4947 422 
z
" transform="scale(0.015625)"/>
      <path id="ArialUnicodeMS-632f" d="M 2431 2150 
L 1753 1906 
L 1753 50 
Q 1753 -188 1539 -330 
Q 1325 -472 1113 -459 
L 744 -441 
L 513 56 
L 1038 44 
Q 1269 44 1269 213 
L 1269 1703 
L 575 1466 
L 288 1888 
L 1269 2216 
L 1269 3553 
L 506 3553 
L 506 4019 
L 1269 4019 
L 1269 5253 
L 1753 5253 
L 1753 4019 
L 2431 4019 
L 2431 3553 
L 1753 3553 
L 1753 2406 
L 2431 2638 
L 2431 2150 
z
M 6163 -6 
L 5819 -403 
Q 5147 -3 4783 662 
Q 4419 1328 4306 2534 
L 3909 2534 
L 3909 288 
L 4647 544 
L 4647 31 
L 3175 -469 
L 2919 0 
L 3425 147 
L 3425 2534 
L 3047 2534 
Q 3006 1359 2843 739 
Q 2681 119 2344 -447 
L 1894 -134 
Q 2294 388 2420 1086 
Q 2547 1784 2547 2088 
L 2547 5063 
L 5906 5063 
L 5906 4594 
L 3034 4594 
L 3034 3003 
L 5819 3003 
L 5819 2534 
L 4763 2534 
Q 4800 1963 4941 1491 
Q 5200 1631 5619 2169 
L 5972 1838 
Q 5569 1316 5100 1056 
Q 5384 400 6163 -6 
z
M 5522 3597 
L 3284 3597 
L 3284 4063 
L 5522 4063 
L 5522 3597 
z
" transform="scale(0.015625)"/>
      <path id="ArialUnicodeMS-5668" d="M 5588 3481 
L 3450 3481 
L 3450 5106 
L 5588 5106 
L 5588 3481 
z
M 5081 3950 
L 5081 4616 
L 3938 4616 
L 3938 3950 
L 5081 3950 
z
M 2944 3481 
L 800 3481 
L 800 5081 
L 2944 5081 
L 2944 3481 
z
M 2438 3950 
L 2438 4616 
L 1288 4616 
L 1288 3950 
L 2438 3950 
z
M 6119 2119 
Q 5944 1722 5881 1625 
Q 3825 1731 3231 2619 
L 3097 2619 
Q 2488 1741 481 1638 
L 313 2125 
Q 1838 2153 2472 2619 
L 588 2619 
L 588 3091 
L 2828 3091 
Q 2950 3347 2969 3659 
L 3431 3566 
Q 3400 3263 3328 3091 
L 5813 3091 
L 5813 2619 
L 3859 2619 
Q 4391 2109 6119 2119 
z
M 5528 -397 
L 5025 -397 
L 5025 0 
L 3956 0 
L 3956 -397 
L 3469 -397 
L 3469 1619 
L 5528 1619 
L 5528 -397 
z
M 5025 459 
L 5025 1153 
L 3956 1153 
L 3956 459 
L 5025 459 
z
M 2944 -397 
L 2438 -397 
L 2438 -25 
L 1363 -25 
L 1363 -397 
L 856 -397 
L 856 1619 
L 2944 1619 
L 2944 -397 
z
M 2438 459 
L 2438 1153 
L 1363 1153 
L 1363 459 
L 2438 459 
z
" transform="scale(0.015625)"/>
     </defs>
     <use xlink:href="#ArialUnicodeMS-2460"/>
     <use xlink:href="#ArialUnicodeMS-20" x="100"/>
     <use xlink:href="#ArialUnicodeMS-666e" x="127.783203"/>
     <use xlink:href="#ArialUnicodeMS-901a" x="227.783203"/>
     <use xlink:href="#ArialUnicodeMS-20" x="327.783203"/>
     <use xlink:href="#ArialUnicodeMS-4c" x="355.566406"/>
     <use xlink:href="#ArialUnicodeMS-43" x="411.181641"/>
     <use xlink:href="#ArialUnicodeMS-20" x="483.398438"/>
     <use xlink:href="#ArialUnicodeMS-8c10" x="511.181641"/>
     <use xlink:href="#ArialUnicodeMS-632f" x="611.181641"/>
     <use xlink:href="#ArialUnicodeMS-5668" x="711.181641"/>
    </g>
   </g>
   <g id="patch_3">
    <path d="M 161.28 256.980114 
Q 161.28 249.319721 161.28 241.659327 
" style="fill: none; stroke: #3b82f6; stroke-width: 1.5; stroke-linecap: round"/>
    <path d="M 163.28 252.980114 
L 161.28 256.980114 
L 159.28 252.980114 
" style="fill: none; stroke: #3b82f6; stroke-width: 1.5; stroke-linecap: round"/>
    <path d="M 159.28 245.659327 
L 161.28 241.659327 
L 163.28 245.659327 
" style="fill: none; stroke: #3b82f6; stroke-width: 1.5; stroke-linecap: round"/>
   </g>
   <g id="patch_4">
    <path d="M 161.28 234.302235 
Q 161.28 226.641842 161.28 218.981449 
" style="fill: none; stroke: #3b82f6; stroke-width: 1.5; stroke-linecap: round"/>
    <path d="M 163.28 230.302235 
L 161.28 234.302235 
L 159.28 230.302235 
" style="fill: none; stroke: #3b82f6; stroke-width: 1.5; stroke-linecap: round"/>
    <path d="M 159.28 222.981449 
L 161.28 218.981449 
L 163.28 222.981449 
" style="fill: none; stroke: #3b82f6; stroke-width: 1.5; stroke-linecap: round"/>
   </g>
   <g id="text_2">
    <!-- Δ -->
    <g style="fill: #3b82f6" transform="translate(171.785455 251.902516) scale(0.1 -0.1)">
     <defs>
      <path id="ArialUnicodeMS-394" d="M 4319 0 
L 38 0 
L 1797 4581 
L 2450 4581 
L 4319 0 
z
M 3425 544 
L 2419 3194 
Q 2203 3766 2125 4078 
Q 2016 3634 1850 3188 
L 878 544 
L 3425 544 
z
" transform="scale(0.015625)"/>
     </defs>
     <use xlink:href="#ArialUnicodeMS-394"/>
    </g>
   </g>
   <g id="text_3">
    <!-- Δ -->
    <g style="fill: #3b82f6" transform="translate(171.785455 229.224638) scale(0.1 -0.1)">
     <use xlink:href="#ArialUnicodeMS-394"/>
    </g>
   </g>
   <g id="text_4">
    <!-- 能级均匀 → 无法单独寻址 -->
    <g style="fill: #64748b" transform="translate(71.366658 279.334543) scale(0.085 -0.085)">
     <defs>
      <path id="ArialUnicodeMS-80fd" d="M 3419 3494 
L 3003 3231 
L 2809 3591 
L 531 3469 
L 403 3963 
L 844 3975 
Q 1316 4656 1644 5403 
L 2131 5191 
Q 1716 4381 1409 3975 
L 2541 4019 
Q 2359 4294 2144 4500 
L 2572 4738 
Q 3122 4225 3419 3494 
z
M 5978 3675 
Q 5825 2528 5294 2528 
L 4122 2528 
Q 3800 2563 3676 2722 
Q 3553 2881 3553 3009 
L 3553 5222 
L 4038 5222 
L 4038 4197 
Q 4997 4469 5556 4909 
L 5850 4544 
Q 5219 4009 4038 3719 
L 4038 3175 
Q 4066 2994 4366 2994 
L 5209 2994 
Q 5431 2994 5509 3853 
L 5978 3675 
z
M 3059 250 
Q 3059 28 2954 -105 
Q 2850 -238 2701 -277 
Q 2553 -316 1972 -306 
L 1791 184 
Q 2147 147 2297 147 
Q 2572 147 2572 319 
L 2572 922 
L 1234 922 
L 1234 -353 
L 750 -353 
L 750 3091 
L 3059 3091 
L 3059 250 
z
M 2572 2241 
L 2572 2625 
L 1234 2625 
L 1234 2241 
L 2572 2241 
z
M 2572 1388 
L 2572 1772 
L 1234 1772 
L 1234 1388 
L 2572 1388 
z
M 6138 800 
Q 6019 134 5831 -73 
Q 5644 -281 5369 -281 
L 4166 -281 
Q 3859 -281 3718 -92 
Q 3578 97 3578 263 
L 3578 2309 
L 4063 2309 
L 4063 1422 
Q 4950 1625 5606 2113 
L 5941 1753 
Q 5169 1163 4063 941 
L 4063 347 
Q 4063 184 4281 184 
L 5319 184 
Q 5469 184 5544 362 
Q 5619 541 5663 1031 
L 6138 800 
z
" transform="scale(0.015625)"/>
      <path id="ArialUnicodeMS-7ea7" d="M 2584 1791 
Q 1375 1497 653 1275 
L 422 1703 
Q 1069 2350 1338 2766 
Q 966 2675 641 2572 
L 397 3009 
Q 897 3831 1472 5300 
L 1906 5094 
Q 1350 3816 978 3150 
L 1650 3291 
Q 1850 3588 2081 4056 
L 2528 3853 
Q 1894 2559 1203 1919 
L 1216 1906 
L 2584 2278 
L 2584 1791 
z
M 6022 -78 
L 5650 -453 
Q 4953 -153 4447 506 
Q 3813 -178 3334 -434 
L 3003 -25 
Q 3594 288 4128 909 
Q 3591 1684 3397 2259 
L 3384 2259 
Q 3384 1213 3157 589 
Q 2931 -34 2731 -269 
L 2591 -434 
L 2131 -134 
Q 2438 216 2622 620 
Q 2806 1025 2856 1537 
Q 2906 2050 2906 3003 
L 2906 4531 
L 2375 4531 
L 2375 4997 
L 5319 4997 
Q 5225 4247 4781 3378 
L 5606 3378 
Q 5328 1650 4769 897 
Q 5147 353 6022 -78 
z
M 5050 2913 
L 4191 2913 
L 4191 3328 
Q 4513 3784 4728 4531 
L 3391 4531 
L 3391 3681 
Q 3484 3213 3795 2503 
Q 4106 1794 4453 1300 
Q 4828 1866 5050 2913 
z
M 2584 738 
L 678 72 
L 434 513 
Q 1781 956 2584 1209 
L 2584 738 
z
" transform="scale(0.015625)"/>
      <path id="ArialUnicodeMS-5747" d="M 5797 4459 
Q 5772 1716 5730 978 
Q 5688 241 5458 -81 
Q 5228 -403 4744 -403 
Q 4606 -403 4006 -306 
L 3847 250 
Q 4413 128 4788 128 
Q 5022 128 5133 340 
Q 5244 553 5283 1968 
Q 5322 3384 5306 3994 
L 3347 3994 
Q 3056 3181 2559 2650 
L 2156 2944 
Q 2253 3025 2344 3128 
L 1728 3128 
L 1728 1441 
L 2541 1766 
L 2541 1259 
L 641 538 
L 319 978 
L 1241 1288 
L 1241 3128 
L 488 3128 
L 488 3597 
L 1241 3597 
L 1241 5100 
L 1728 5100 
L 1728 3597 
L 2413 3597 
L 2413 3231 
Q 3006 4097 3194 5319 
L 3675 5166 
Q 3572 4644 3494 4459 
L 5797 4459 
z
M 4813 2566 
L 2888 2566 
L 2888 3041 
L 4813 3041 
L 4813 2566 
z
M 4959 1900 
L 4959 1409 
Q 4266 1156 2706 709 
L 2431 1153 
Q 4391 1697 4959 1900 
z
" transform="scale(0.015625)"/>
      <path id="ArialUnicodeMS-5300" d="M 5953 4488 
Q 5909 3050 5793 1636 
Q 5678 222 5587 20 
Q 5497 -181 5280 -279 
Q 5063 -378 4716 -378 
Q 4450 -378 3847 -313 
L 3616 244 
Q 4463 103 4825 103 
Q 5009 103 5112 236 
Q 5216 369 5300 1525 
Q 5384 2681 5441 4019 
L 2150 4019 
Q 1681 3125 922 2406 
L 538 2725 
Q 1678 3731 2131 5363 
L 2559 5197 
Q 2488 4891 2322 4488 
L 5953 4488 
z
M 4556 2597 
L 1734 2597 
L 1734 3066 
L 4556 3066 
L 4556 2597 
z
M 4594 1191 
Q 3084 638 1106 313 
L 781 763 
Q 2859 1056 4594 1697 
L 4594 1191 
z
" transform="scale(0.015625)"/>
      <path id="ArialUnicodeMS-2192" d="M 4306 1563 
Q 3528 1278 3091 641 
L 2869 641 
Q 3019 1088 3372 1484 
L 256 1484 
L 256 1791 
L 3372 1791 
Q 3019 2188 2869 2638 
L 3091 2638 
Q 3528 2000 4306 1716 
L 4306 1563 
z
" transform="scale(0.015625)"/>
      <path id="ArialUnicodeMS-65e0" d="M 5972 2606 
L 3150 2606 
Q 2875 1481 2322 790 
Q 1769 100 838 -378 
L 453 19 
Q 2113 709 2631 2606 
L 416 2606 
L 416 3072 
L 2725 3072 
Q 2791 3344 2791 3622 
L 2791 4500 
L 703 4500 
L 703 4984 
L 5434 4984 
L 5434 4500 
L 3309 4500 
L 3309 3628 
Q 3309 3428 3256 3072 
L 5972 3072 
L 5972 2606 
z
M 6041 1119 
Q 5841 209 5630 50 
Q 5419 -109 5234 -109 
L 3928 -109 
Q 3669 -47 3559 109 
Q 3450 266 3450 391 
L 3450 2328 
L 3938 2328 
L 3938 550 
Q 3938 450 4005 404 
Q 4072 359 4122 359 
L 5159 359 
Q 5300 359 5390 604 
Q 5481 850 5569 1356 
L 6041 1119 
z
" transform="scale(0.015625)"/>
      <path id="ArialUnicodeMS-6cd5" d="M 6047 -103 
L 5600 -366 
Q 5428 69 5288 244 
L 2266 -31 
L 2041 475 
L 2772 506 
Q 3134 1244 3456 2188 
L 2041 2188 
L 2041 2656 
L 3719 2656 
L 3719 3738 
L 2394 3738 
L 2394 4206 
L 3719 4206 
L 3719 5253 
L 4206 5253 
L 4206 4206 
L 5538 4206 
L 5538 3738 
L 4206 3738 
L 4206 2656 
L 5894 2656 
L 5894 2188 
L 3975 2188 
Q 3681 1241 3291 531 
L 5013 653 
Q 4669 1025 4325 1228 
L 4738 1472 
Q 5541 953 6047 -103 
z
M 2284 4166 
L 1941 3822 
Q 1597 4384 838 4703 
L 1141 5031 
Q 1869 4756 2284 4166 
z
M 1888 2772 
L 1550 2425 
Q 1203 3003 409 3291 
L 738 3609 
Q 1547 3316 1888 2772 
z
M 2169 1753 
Q 1872 553 978 -378 
L 544 -84 
Q 1469 878 1753 1925 
L 2169 1753 
z
" transform="scale(0.015625)"/>
      <path id="ArialUnicodeMS-5355" d="M 5925 947 
L 3353 947 
L 3353 -372 
L 2869 -372 
L 2869 947 
L 347 947 
L 347 1388 
L 2869 1388 
L 2869 1919 
L 1234 1919 
L 1234 4213 
L 2234 4213 
Q 2041 4659 1550 5106 
L 1900 5381 
Q 2347 5050 2747 4359 
L 2547 4219 
L 2547 4213 
L 3328 4213 
Q 3750 4644 4000 5344 
L 4447 5131 
Q 4219 4559 3909 4213 
L 4984 4213 
L 4984 1919 
L 3353 1919 
L 3353 1388 
L 5925 1388 
L 5925 947 
z
M 4500 3316 
L 4500 3744 
L 3353 3744 
L 3353 3316 
L 4500 3316 
z
M 2869 3316 
L 2869 3744 
L 1722 3744 
L 1722 3316 
L 2869 3316 
z
M 4500 2363 
L 4500 2847 
L 3353 2847 
L 3353 2363 
L 4500 2363 
z
M 2869 2363 
L 2869 2847 
L 1722 2847 
L 1722 2363 
L 2869 2363 
z
" transform="scale(0.015625)"/>
      <path id="ArialUnicodeMS-72ec" d="M 6069 -84 
L 5569 -313 
Q 5425 156 5313 331 
L 2638 -281 
L 2388 238 
L 3897 506 
L 3897 1569 
L 2656 1569 
L 2656 3975 
L 3897 3975 
L 3897 5294 
L 4384 5294 
L 4384 3975 
L 5563 3975 
L 5563 1569 
L 4384 1569 
L 4384 603 
L 5119 763 
Q 4953 1013 4800 1184 
L 5184 1441 
Q 5800 738 6069 -84 
z
M 5075 2034 
L 5075 3506 
L 4384 3506 
L 4384 2034 
L 5075 2034 
z
M 3897 2034 
L 3897 3506 
L 3144 3506 
L 3144 2034 
L 3897 2034 
z
M 2169 4684 
Q 1866 4100 1778 3988 
Q 2163 3459 2163 2053 
Q 2163 953 2092 511 
Q 2022 69 1820 -151 
Q 1619 -372 1281 -372 
Q 1038 -372 647 -300 
L 453 244 
Q 950 91 1219 91 
Q 1438 91 1531 336 
Q 1625 581 1656 1300 
L 1703 2247 
Q 1259 1538 569 1044 
L 213 1416 
Q 1066 2003 1638 2906 
Q 1600 3309 1459 3513 
Q 1138 3016 684 2713 
L 306 3109 
Q 906 3513 1203 3950 
Q 994 4234 313 4628 
L 609 4997 
Q 1072 4753 1497 4366 
Q 1731 4794 1806 4972 
L 2169 4684 
z
" transform="scale(0.015625)"/>
      <path id="ArialUnicodeMS-5bfb" d="M 4856 2688 
L 1006 2688 
L 1006 3156 
L 4372 3156 
L 4372 3688 
L 1363 3688 
L 1363 4153 
L 4372 4153 
L 4372 4609 
L 1119 4609 
L 1119 5075 
L 4856 5075 
L 4856 2688 
z
M 5844 1716 
L 4263 1716 
L 4263 38 
Q 4263 -122 4144 -244 
Q 4025 -366 3859 -366 
L 3103 -366 
L 2913 141 
L 3688 103 
Q 3775 103 3775 166 
L 3775 1716 
L 397 1716 
L 397 2181 
L 3775 2181 
L 3775 2509 
L 4263 2509 
L 4263 2181 
L 5844 2181 
L 5844 1716 
z
M 2816 697 
L 2463 325 
Q 2072 825 1363 1147 
L 1697 1503 
Q 2406 1175 2816 697 
z
" transform="scale(0.015625)"/>
      <path id="ArialUnicodeMS-5740" d="M 6075 -206 
L 2075 -206 
L 2075 263 
L 2853 263 
L 2853 3750 
L 3341 3750 
L 3341 263 
L 4078 263 
L 4078 5031 
L 4563 5031 
L 4563 3109 
L 5734 3109 
L 5734 2625 
L 4563 2625 
L 4563 263 
L 6075 263 
L 6075 -206 
z
M 2650 1088 
L 569 219 
L 281 628 
L 1344 1038 
L 1344 2906 
L 475 2906 
L 475 3372 
L 1344 3372 
L 1344 4659 
L 1831 4659 
L 1831 3372 
L 2528 3372 
L 2528 2906 
L 1831 2906 
L 1831 1253 
Q 2366 1475 2650 1600 
L 2650 1088 
z
" transform="scale(0.015625)"/>
     </defs>
     <use xlink:href="#ArialUnicodeMS-80fd"/>
     <use xlink:href="#ArialUnicodeMS-7ea7" x="100"/>
     <use xlink:href="#ArialUnicodeMS-5747" x="200"/>
     <use xlink:href="#ArialUnicodeMS-5300" x="300"/>
     <use xlink:href="#ArialUnicodeMS-20" x="400"/>
     <use xlink:href="#ArialUnicodeMS-2192" x="427.783203"/>
     <use xlink:href="#ArialUnicodeMS-20" x="499.072266"/>
     <use xlink:href="#ArialUnicodeMS-65e0" x="526.855469"/>
     <use xlink:href="#ArialUnicodeMS-6cd5" x="626.855469"/>
     <use xlink:href="#ArialUnicodeMS-5355" x="726.855469"/>
     <use xlink:href="#ArialUnicodeMS-72ec" x="826.855469"/>
     <use xlink:href="#ArialUnicodeMS-5bfb" x="926.855469"/>
     <use xlink:href="#ArialUnicodeMS-5740" x="1026.855469"/>
    </g>
   </g>
   <g id="patch_5">
    <path d="M 194.793708 140.599286 
Q 229.562014 140.599286 262.317858 140.599286 
" style="fill: none; stroke: #64748b; stroke-width: 1.8; stroke-linecap: round"/>
    <path d="M 258.317858 138.599286 
L 262.317858 140.599286 
L 258.317858 142.599286 
" style="fill: none; stroke: #64748b; stroke-width: 1.8; stroke-linecap: round"/>
   </g>
   <g id="text_5">
    <!-- 换入约瑟夫森结 -->
    <g style="fill: #64748b" transform="translate(200.165636 119.2554) scale(0.085 -0.085)">
     <defs>
      <path id="ArialUnicodeMS-6362" d="M 6069 38 
L 5797 -428 
Q 4144 -78 3891 1381 
L 3878 1381 
Q 3584 97 2053 -469 
L 1722 -19 
Q 3009 344 3406 1416 
L 1838 1416 
L 1838 1875 
L 2241 1875 
L 2241 2931 
L 2059 2753 
L 1716 3163 
Q 2628 3934 3091 5281 
L 3531 5094 
Q 3450 4884 3384 4756 
L 4916 4756 
L 4916 4359 
Q 4794 4025 4603 3750 
L 5484 3750 
L 5484 1875 
L 5941 1875 
L 5941 1416 
L 4366 1416 
Q 4438 900 4894 525 
Q 5350 150 6069 38 
z
M 4359 4294 
L 3188 4294 
Q 3078 4025 2859 3750 
L 4019 3750 
Q 4263 4056 4359 4294 
z
M 4997 1875 
L 4997 3291 
L 4084 3291 
Q 4072 2447 3988 1875 
L 4997 1875 
z
M 3597 3291 
L 2725 3291 
L 2725 1875 
L 3500 1875 
Q 3584 2284 3597 3291 
z
M 2094 2138 
L 1556 1947 
L 1556 166 
Q 1556 -113 1442 -291 
Q 1328 -469 1125 -469 
L 506 -469 
L 341 0 
L 853 -13 
Q 1069 -13 1069 153 
L 1069 1753 
L 428 1509 
L 159 1925 
L 1069 2253 
L 1069 3547 
L 347 3547 
L 347 4006 
L 1069 4006 
L 1069 5222 
L 1556 5222 
L 1556 4006 
L 2041 4006 
L 2041 3547 
L 1556 3547 
L 1556 2444 
L 2094 2631 
L 2094 2138 
z
" transform="scale(0.015625)"/>
      <path id="ArialUnicodeMS-5165" d="M 5972 184 
L 5663 -238 
Q 3931 872 3406 2478 
Q 2675 722 844 -244 
L 544 178 
Q 1822 844 2483 1855 
Q 3144 2866 3144 3194 
L 3128 4453 
L 1991 4453 
L 1991 4922 
L 3609 4922 
L 3603 4575 
Q 3575 3106 4158 2050 
Q 4741 994 5972 184 
z
" transform="scale(0.015625)"/>
      <path id="ArialUnicodeMS-7ea6" d="M 5625 4353 
Q 5625 2634 5565 1556 
Q 5506 478 5401 193 
Q 5297 -91 5098 -242 
Q 4900 -394 4556 -394 
Q 4275 -394 3719 -300 
L 3572 256 
Q 4353 91 4622 91 
Q 4819 91 4925 295 
Q 5031 500 5094 1825 
L 5119 2369 
L 5141 3884 
L 3616 3884 
Q 3250 3047 2797 2619 
L 2316 2869 
Q 3234 3688 3469 5344 
L 3909 5228 
Q 3884 4772 3756 4353 
L 5625 4353 
z
M 2578 1663 
Q 1369 1369 647 1147 
L 416 1575 
Q 1063 2222 1331 2638 
Q 850 2509 634 2438 
L 391 2881 
Q 897 3716 1466 5166 
L 1900 4966 
Q 1325 3650 972 3022 
L 1644 3163 
Q 1822 3416 2075 3922 
L 2522 3719 
Q 1875 2406 1178 1772 
L 1191 1759 
L 2578 2100 
L 2578 1663 
z
M 4588 1575 
L 4147 1247 
Q 3975 2059 3097 2631 
L 3494 2906 
Q 4363 2413 4588 1575 
z
M 2694 569 
L 653 -141 
L 409 300 
Q 1634 672 2694 1050 
L 2694 569 
z
" transform="scale(0.015625)"/>
      <path id="ArialUnicodeMS-745f" d="M 5900 2534 
L 3278 2534 
L 3278 3003 
L 4256 3003 
L 4256 3541 
L 3488 3541 
L 3488 4006 
L 4256 4006 
L 4256 4556 
L 3303 4556 
L 3303 5025 
L 5759 5025 
L 5759 4556 
L 4744 4556 
L 4744 4006 
L 5581 4006 
L 5581 3541 
L 4744 3541 
L 4744 3003 
L 5900 3003 
L 5900 2534 
z
M 3144 2706 
L 794 2253 
L 506 2747 
Q 1106 2784 1625 2906 
L 1625 3541 
L 891 3541 
L 891 4006 
L 1625 4006 
L 1625 4556 
L 691 4556 
L 691 5025 
L 3097 5025 
L 3097 4556 
L 2113 4556 
L 2113 4006 
L 2931 4006 
L 2931 3541 
L 2113 3541 
L 2113 2969 
Q 2841 3131 3144 3175 
L 3144 2706 
z
M 3750 1791 
L 3419 1447 
Q 3041 2038 2413 2247 
L 2706 2584 
Q 3272 2431 3750 1791 
z
M 5178 2163 
Q 4241 1103 2656 331 
Q 2656 288 3003 288 
L 4141 288 
Q 4331 288 4391 953 
L 4409 1172 
L 4863 997 
Q 4744 222 4580 34 
Q 4416 -153 4197 -153 
L 2713 -153 
Q 2434 -153 2222 141 
Q 1631 -88 678 -294 
L 403 141 
Q 1381 303 2094 603 
L 2094 2016 
L 2578 2016 
L 2578 813 
Q 3950 1497 4800 2425 
L 5178 2163 
z
M 1825 1600 
Q 1547 872 884 391 
L 494 697 
Q 1206 1159 1416 1856 
L 1825 1600 
z
M 6131 447 
L 5709 153 
Q 5481 878 4722 1375 
L 5081 1672 
Q 5678 1344 6131 447 
z
" transform="scale(0.015625)"/>
      <path id="ArialUnicodeMS-592b" d="M 6034 178 
L 5716 -263 
Q 3753 525 3297 2169 
Q 2788 538 844 -325 
L 475 109 
Q 2356 881 2791 2278 
L 831 2278 
L 831 2747 
L 2894 2747 
Q 2963 3072 3003 3834 
L 1228 3834 
L 1228 4319 
L 3009 4319 
L 3009 5338 
L 3531 5338 
L 3531 4319 
L 5259 4319 
L 5259 3834 
L 3513 3834 
Q 3494 3081 3438 2747 
L 5678 2747 
L 5678 2278 
L 3794 2278 
Q 4225 881 6034 178 
z
" transform="scale(0.015625)"/>
      <path id="ArialUnicodeMS-68ee" d="M 5906 3303 
L 5613 2900 
Q 4025 3344 3456 4294 
L 3456 2847 
L 2975 2847 
L 2975 4294 
Q 2316 3325 909 2913 
L 588 3284 
Q 1881 3656 2450 4275 
L 984 4275 
L 984 4744 
L 2975 4744 
L 2975 5331 
L 3463 5331 
L 3463 4744 
L 5484 4744 
L 5484 4275 
L 3969 4275 
Q 4478 3650 5906 3303 
z
M 6209 397 
L 5838 25 
Q 5081 753 4750 1772 
L 4750 -441 
L 4263 -441 
L 4263 1747 
Q 3944 650 3103 72 
L 2725 397 
Q 3244 788 3473 1098 
Q 3703 1409 3884 2034 
L 3225 2034 
L 3225 2503 
L 4263 2503 
L 4263 3156 
L 4750 3156 
L 4750 2503 
L 5856 2503 
L 5856 2034 
L 5113 2034 
Q 5356 1194 6209 397 
z
M 3256 1044 
L 2900 728 
Q 2466 1347 2175 1497 
L 2175 -441 
L 1691 -441 
L 1691 1388 
Q 1263 584 581 56 
L 191 372 
Q 1078 1053 1538 2034 
L 628 2034 
L 628 2503 
L 1691 2503 
L 1691 3156 
L 2175 3156 
L 2175 2503 
L 3016 2503 
L 3016 2034 
L 2175 2034 
L 2175 1644 
L 2431 1838 
Q 2847 1631 3256 1044 
z
" transform="scale(0.015625)"/>
      <path id="ArialUnicodeMS-7ed3" d="M 5972 3847 
L 4434 3847 
L 4434 2969 
L 5650 2969 
L 5650 2509 
L 2753 2509 
L 2753 2969 
L 3950 2969 
L 3950 3847 
L 2516 3847 
L 2516 4306 
L 3950 4306 
L 3950 5356 
L 4434 5356 
L 4434 4306 
L 5972 4306 
L 5972 3847 
z
M 2613 1728 
Q 2266 1631 1628 1482 
Q 991 1334 684 1234 
L 453 1663 
Q 1106 2319 1363 2725 
Q 863 2600 672 2534 
L 428 2975 
Q 925 3784 1503 5259 
L 1941 5056 
Q 1375 3766 1013 3116 
Q 1150 3134 1684 3250 
Q 1888 3556 2088 3956 
L 2516 3725 
Q 1875 2516 1247 1894 
L 1259 1881 
L 2613 2188 
L 2613 1728 
z
M 5466 -422 
L 4978 -422 
L 4978 19 
L 3413 19 
L 3413 -422 
L 2925 -422 
L 2925 1894 
L 5466 1894 
L 5466 -422 
z
M 4978 481 
L 4978 1434 
L 3413 1434 
L 3413 481 
L 4978 481 
z
M 2700 709 
L 703 31 
L 469 475 
Q 2447 1119 2700 1197 
L 2700 709 
z
" transform="scale(0.015625)"/>
     </defs>
     <use xlink:href="#ArialUnicodeMS-6362"/>
     <use xlink:href="#ArialUnicodeMS-5165" x="100"/>
     <use xlink:href="#ArialUnicodeMS-7ea6" x="200"/>
     <use xlink:href="#ArialUnicodeMS-745f" x="300"/>
     <use xlink:href="#ArialUnicodeMS-592b" x="400"/>
     <use xlink:href="#ArialUnicodeMS-68ee" x="500"/>
     <use xlink:href="#ArialUnicodeMS-7ed3" x="600"/>
    </g>
   </g>
   <g id="text_6">
    <!-- ② 接入约瑟夫森结 -->
    <g style="fill: #334155" transform="translate(323.791669 17.204946) scale(0.115 -0.115)">
     <defs>
      <path id="ArialUnicodeMS-2461" d="M 3200 4659 
Q 3916 4659 4539 4298 
Q 5163 3938 5522 3316 
Q 5881 2694 5881 1978 
Q 5881 1266 5520 644 
Q 5159 22 4536 -337 
Q 3913 -697 3200 -697 
Q 2488 -697 1864 -337 
Q 1241 22 880 644 
Q 519 1266 519 1978 
Q 519 2694 878 3317 
Q 1238 3941 1861 4300 
Q 2484 4659 3200 4659 
z
M 3200 -294 
Q 4131 -294 4804 376 
Q 5478 1047 5478 1978 
Q 5478 2584 5172 3114 
Q 4866 3644 4336 3950 
Q 3806 4256 3200 4256 
Q 2263 4256 1592 3584 
Q 922 2913 922 1978 
Q 922 1047 1595 376 
Q 2269 -294 3200 -294 
z
M 4166 513 
L 2194 513 
Q 2194 763 2366 1017 
Q 2538 1272 3028 1672 
Q 3350 1928 3565 2175 
Q 3781 2422 3781 2681 
Q 3781 2906 3623 3056 
Q 3466 3206 3225 3206 
Q 2981 3206 2812 3054 
Q 2644 2903 2644 2597 
L 2266 2644 
Q 2303 3047 2559 3273 
Q 2816 3500 3231 3500 
Q 3672 3500 3915 3259 
Q 4159 3019 4159 2675 
Q 4159 2381 3979 2126 
Q 3800 1872 3431 1563 
Q 2953 1163 2864 1077 
Q 2775 991 2700 863 
L 4166 863 
L 4166 513 
z
" transform="scale(0.015625)"/>
      <path id="ArialUnicodeMS-63a5" d="M 2394 2094 
L 1697 1850 
L 1697 147 
Q 1697 -84 1578 -223 
Q 1459 -363 1292 -386 
Q 1125 -409 697 -409 
L 525 50 
Q 669 38 863 38 
Q 1209 38 1209 231 
L 1209 1650 
L 525 1409 
L 275 1888 
L 1209 2163 
L 1209 3572 
L 441 3572 
L 441 4031 
L 1209 4031 
L 1209 5300 
L 1697 5300 
L 1697 4031 
L 2369 4031 
L 2369 3572 
L 1697 3572 
L 1697 2356 
L 2394 2578 
L 2394 2094 
z
M 6081 -6 
L 5741 -397 
Q 5138 78 4397 347 
Q 3681 -184 2222 -453 
L 1900 0 
Q 3375 222 3788 525 
Q 3325 647 2497 750 
Q 2931 1184 3169 1550 
L 2350 1550 
L 2350 2009 
L 3456 2009 
Q 3581 2197 3738 2613 
L 2209 2613 
L 2209 3072 
L 3391 3072 
Q 3234 3597 2766 4019 
L 3138 4184 
L 2381 4184 
L 2381 4647 
L 3803 4647 
L 3803 5288 
L 4288 5288 
L 4288 4647 
L 5838 4647 
L 5838 4184 
L 5050 4184 
L 5416 4013 
Q 5159 3478 4838 3072 
L 6081 3072 
L 6081 2613 
L 3841 2613 
L 4225 2419 
Q 4116 2150 4025 2009 
L 5953 2009 
L 5953 1550 
L 5253 1550 
Q 5163 1266 4728 722 
Q 5403 466 6081 -6 
z
M 4928 4184 
L 3206 4184 
Q 3719 3725 3878 3181 
L 3591 3078 
L 3591 3072 
L 4306 3072 
Q 4647 3528 4928 4184 
z
M 4722 1550 
L 3781 1550 
Q 3541 1206 3444 1075 
L 4250 884 
Q 4575 1144 4722 1550 
z
" transform="scale(0.015625)"/>
     </defs>
     <use xlink:href="#ArialUnicodeMS-2461"/>
     <use xlink:href="#ArialUnicodeMS-20" x="100"/>
     <use xlink:href="#ArialUnicodeMS-63a5" x="127.783203"/>
     <use xlink:href="#ArialUnicodeMS-5165" x="227.783203"/>
     <use xlink:href="#ArialUnicodeMS-7ea6" x="327.783203"/>
     <use xlink:href="#ArialUnicodeMS-745f" x="427.783203"/>
     <use xlink:href="#ArialUnicodeMS-592b" x="527.783203"/>
     <use xlink:href="#ArialUnicodeMS-68ee" x="627.783203"/>
     <use xlink:href="#ArialUnicodeMS-7ed3" x="727.783203"/>
    </g>
   </g>
   <g id="text_7">
    <!-- JJ -->
    <g style="fill: #7c3aed" transform="translate(335.622727 72.760051) scale(0.085 -0.085)">
     <defs>
      <path id="ArialUnicodeMS-4a" d="M 2688 1466 
Q 2688 625 2348 273 
Q 2009 -78 1403 -78 
Q 788 -78 480 267 
Q 172 613 172 1306 
L 716 1381 
Q 722 925 894 697 
Q 1066 469 1403 469 
Q 1713 469 1863 616 
Q 2013 763 2047 955 
Q 2081 1147 2081 1434 
L 2081 4581 
L 2688 4581 
L 2688 1466 
z
" transform="scale(0.015625)"/>
     </defs>
     <use xlink:href="#ArialUnicodeMS-4a"/>
     <use xlink:href="#ArialUnicodeMS-4a" x="50"/>
    </g>
   </g>
   <g id="patch_6">
    <path d="M 413.410909 256.978974 
Q 413.410909 251.988153 413.410909 246.997332 
" style="fill: none; stroke: #7c3aed; stroke-width: 1.5; stroke-linecap: round"/>
    <path d="M 415.410909 252.978974 
L 413.410909 256.978974 
L 411.410909 252.978974 
" style="fill: none; stroke: #7c3aed; stroke-width: 1.5; stroke-linecap: round"/>
    <path d="M 411.410909 250.997332 
L 413.410909 246.997332 
L 415.410909 250.997332 
" style="fill: none; stroke: #7c3aed; stroke-width: 1.5; stroke-linecap: round"/>
   </g>
   <g id="patch_7">
    <path d="M 413.410909 239.638207 
Q 413.410909 231.977813 413.410909 224.31742 
" style="fill: none; stroke: #64748b; stroke-width: 1.5; stroke-linecap: round"/>
    <path d="M 415.410909 235.638207 
L 413.410909 239.638207 
L 411.410909 235.638207 
" style="fill: none; stroke: #64748b; stroke-width: 1.5; stroke-linecap: round"/>
    <path d="M 411.410909 228.31742 
L 413.410909 224.31742 
L 415.410909 228.31742 
" style="fill: none; stroke: #64748b; stroke-width: 1.5; stroke-linecap: round"/>
   </g>
   <g id="text_8">
    <!-- Δ₀₁ -->
    <g style="fill: #7c3aed" transform="translate(423.916364 254.312221) scale(0.09 -0.09)">
     <defs>
      <path id="ArialUnicodeMS-2080" d="M 1063 2253 
Q 1506 2253 1770 1928 
Q 2034 1603 2034 1050 
Q 2034 497 1770 172 
Q 1506 -153 1063 -153 
Q 622 -153 359 172 
Q 97 497 97 1050 
Q 97 1606 356 1929 
Q 616 2253 1063 2253 
z
M 1063 238 
Q 1306 238 1428 441 
Q 1550 644 1550 1050 
Q 1550 1456 1428 1659 
Q 1306 1863 1063 1863 
Q 822 1863 701 1659 
Q 581 1456 581 1050 
Q 581 644 701 441 
Q 822 238 1063 238 
z
" transform="scale(0.015625)"/>
      <path id="ArialUnicodeMS-2081" d="M 1484 -97 
L 1031 -97 
L 1031 1638 
Q 722 1388 331 1281 
L 331 1672 
Q 813 1838 1147 2253 
L 1484 2253 
L 1484 -97 
z
" transform="scale(0.015625)"/>
     </defs>
     <use xlink:href="#ArialUnicodeMS-394"/>
     <use xlink:href="#ArialUnicodeMS-2080" x="68.212891"/>
     <use xlink:href="#ArialUnicodeMS-2081" x="101.513672"/>
    </g>
   </g>
   <g id="text_9">
    <!-- Δ₁₂ -->
    <g style="fill: #64748b" transform="translate(423.916364 234.302328) scale(0.09 -0.09)">
     <defs>
      <path id="ArialUnicodeMS-2082" d="M 2022 -97 
L 78 -97 
Q 113 306 884 863 
Q 1281 1156 1398 1273 
Q 1516 1391 1516 1538 
Q 1516 1700 1403 1790 
Q 1291 1881 1088 1881 
Q 897 1881 786 1809 
Q 675 1738 616 1528 
L 141 1575 
Q 216 1913 455 2083 
Q 694 2253 1094 2253 
Q 1506 2253 1757 2092 
Q 2009 1931 2009 1619 
Q 2009 1409 1909 1239 
Q 1809 1069 1648 931 
Q 1488 794 1088 513 
Q 925 400 813 281 
L 2022 281 
L 2022 -97 
z
" transform="scale(0.015625)"/>
     </defs>
     <use xlink:href="#ArialUnicodeMS-394"/>
     <use xlink:href="#ArialUnicodeMS-2081" x="68.212891"/>
     <use xlink:href="#ArialUnicodeMS-2082" x="101.513672"/>
    </g>
   </g>
   <g id="text_10">
    <!-- ≠ -->
    <g style="fill: #7c3aed" transform="translate(455.432727 228.106339) scale(0.16 -0.16)">
     <defs>
      <path id="ArialUnicodeMS-2260" d="M 3384 1300 
L 1959 1300 
L 1863 659 
L 1394 659 
L 1491 1300 
L 353 1300 
L 353 1825 
L 1569 1825 
L 1703 2694 
L 353 2694 
L 353 3219 
L 1778 3219 
L 1875 3859 
L 2344 3859 
L 2247 3219 
L 3384 3219 
L 3384 2694 
L 2169 2694 
L 2034 1825 
L 3384 1825 
L 3384 1300 
z
" transform="scale(0.015625)"/>
     </defs>
     <use xlink:href="#ArialUnicodeMS-2260"/>
    </g>
   </g>
   <g id="text_11">
    <!-- 非线性 → 间距不再均匀 -->
    <g style="fill: #64748b" transform="translate(327.747567 279.334543) scale(0.085 -0.085)">
     <defs>
      <path id="ArialUnicodeMS-975e" d="M 6041 1069 
L 4206 1069 
L 4206 -416 
L 3700 -416 
L 3700 5288 
L 4206 5288 
L 4206 4250 
L 5900 4250 
L 5900 3788 
L 4206 3788 
L 4206 2881 
L 5672 2881 
L 5672 2413 
L 4206 2413 
L 4206 1538 
L 6041 1538 
L 6041 1069 
z
M 3272 1491 
L 2894 1416 
Q 2781 88 984 -397 
L 684 56 
Q 2103 306 2356 1300 
L 544 928 
L 313 1416 
L 2394 1784 
L 2394 2456 
L 856 2456 
L 856 2925 
L 2394 2925 
L 2394 3769 
L 678 3769 
L 678 4238 
L 2400 4238 
L 2400 5288 
L 2906 5288 
L 2906 1888 
L 3272 1966 
L 3272 1491 
z
" transform="scale(0.015625)"/>
      <path id="ArialUnicodeMS-7ebf" d="M 2503 3981 
Q 1903 2625 1141 1947 
L 1153 1931 
L 2444 2144 
L 2456 1709 
Q 1428 1534 575 1313 
L 341 1772 
Q 934 2234 1344 2919 
L 563 2725 
L 347 3206 
Q 1059 4156 1325 5319 
Q 1403 5288 1551 5209 
Q 1700 5131 1791 5100 
Q 1441 3947 959 3316 
Q 1597 3375 1650 3397 
Q 1944 3938 2059 4225 
L 2503 3981 
z
M 5997 481 
Q 5925 44 5808 -170 
Q 5691 -384 5497 -384 
Q 5319 -384 4869 -115 
Q 4419 153 4031 666 
Q 3594 188 2388 -341 
L 2088 72 
Q 3097 466 3763 1088 
Q 3503 1550 3406 2419 
L 2484 2272 
L 2406 2725 
L 3378 2900 
L 3378 3397 
L 2606 3278 
L 2522 3731 
L 3378 3891 
L 3378 5209 
Q 3763 5288 3866 5294 
L 3866 3975 
L 5409 4231 
L 5497 3781 
Q 4550 3622 3866 3481 
L 3866 2994 
L 5772 3341 
Q 5825 3150 5856 2875 
L 3884 2516 
Q 3988 1794 4147 1466 
Q 4731 1991 5075 2484 
L 5453 2222 
Q 4731 1353 4372 1025 
Q 4753 456 5403 153 
Q 5494 378 5509 750 
L 5997 481 
z
M 5166 4544 
L 4831 4225 
Q 4478 4656 4019 4856 
L 4306 5178 
Q 4784 4956 5166 4544 
z
M 2578 872 
L 531 134 
Q 500 197 412 347 
Q 325 497 281 603 
L 2578 1369 
L 2578 872 
z
" transform="scale(0.015625)"/>
      <path id="ArialUnicodeMS-6027" d="M 6088 6 
L 2322 6 
L 2322 475 
L 3928 475 
L 3928 1778 
L 2669 1778 
L 2669 2247 
L 3928 2247 
L 3928 3463 
L 3169 3463 
Q 2978 2881 2606 2375 
L 2113 2597 
Q 2363 2838 2438 3003 
L 2203 2900 
Q 2078 3494 1766 3866 
L 1766 -434 
L 1281 -434 
L 1281 5281 
L 1766 5281 
L 1766 3928 
L 2138 4128 
Q 2413 3813 2597 3347 
Q 2844 3763 2894 4775 
L 3378 4647 
Q 3363 4338 3291 3928 
L 3928 3928 
L 3928 5294 
L 4416 5294 
L 4416 3928 
L 5759 3928 
L 5759 3463 
L 4416 3463 
L 4416 2247 
L 5569 2247 
L 5569 1778 
L 4416 1778 
L 4416 475 
L 6088 475 
L 6088 6 
z
M 1241 3897 
Q 1175 2956 763 2344 
L 347 2528 
Q 819 3406 819 4025 
L 1241 3897 
z
" transform="scale(0.015625)"/>
      <path id="ArialUnicodeMS-95f4" d="M 2463 4313 
L 2088 4006 
Q 1600 4669 1094 4984 
L 1484 5247 
Q 2044 4888 2463 4313 
z
M 5497 178 
Q 5497 -50 5353 -181 
Q 5209 -313 4853 -313 
Q 4753 -313 4506 -300 
L 4366 147 
Q 4631 106 4806 106 
Q 4991 106 5002 142 
Q 5013 178 5013 275 
L 5013 4453 
L 2841 4453 
L 2841 4922 
L 5497 4922 
L 5497 178 
z
M 1125 -384 
L 641 -384 
L 641 4197 
L 1125 4197 
L 1125 -384 
z
M 4306 481 
L 3822 481 
L 3822 813 
L 2375 813 
L 2375 481 
L 1888 481 
L 1888 3669 
L 4306 3669 
L 4306 481 
z
M 3822 2559 
L 3822 3200 
L 2375 3200 
L 2375 2559 
L 3822 2559 
z
M 3822 1281 
L 3822 2094 
L 2375 2094 
L 2375 1281 
L 3822 1281 
z
" transform="scale(0.015625)"/>
      <path id="ArialUnicodeMS-8ddd" d="M 2747 563 
L 422 -159 
L 197 341 
L 647 441 
L 647 2656 
L 1131 2656 
L 1131 575 
L 1516 672 
L 1516 3103 
L 744 3103 
L 744 5088 
L 2625 5088 
L 2625 3103 
L 2003 3103 
L 2003 2363 
L 2694 2363 
L 2694 1894 
L 2003 1894 
L 2003 813 
L 2747 1025 
L 2747 563 
z
M 2138 3572 
L 2138 4622 
L 1228 4622 
L 1228 3572 
L 2138 3572 
z
M 6059 -13 
L 3500 -13 
L 3500 -391 
L 2994 -391 
L 2994 5063 
L 5919 5063 
L 5919 4594 
L 3500 4594 
L 3500 3609 
L 5550 3609 
L 5550 1581 
L 3500 1581 
L 3500 453 
L 6059 453 
L 6059 -13 
z
M 5044 2047 
L 5044 3144 
L 3500 3144 
L 3500 2047 
L 5044 2047 
z
" transform="scale(0.015625)"/>
      <path id="ArialUnicodeMS-4e0d" d="M 5900 4434 
L 3834 4434 
Q 3700 4209 3425 3816 
L 3425 -416 
L 2900 -416 
L 2900 3194 
Q 2281 2363 775 1528 
L 453 1947 
Q 1431 2419 2047 2975 
Q 2663 3531 3219 4434 
L 550 4434 
L 550 4922 
L 5900 4922 
L 5900 4434 
z
M 5941 1838 
L 5550 1503 
Q 4619 2634 3597 3078 
L 3938 3419 
Q 4969 2953 5941 1838 
z
" transform="scale(0.015625)"/>
      <path id="ArialUnicodeMS-518d" d="M 6106 1075 
L 5381 1075 
L 5381 275 
Q 5381 31 5248 -109 
Q 5116 -250 4891 -250 
L 4025 -250 
L 3878 238 
Q 4194 219 4722 219 
Q 4878 219 4878 384 
L 4878 1075 
L 1644 1075 
L 1644 -391 
L 1159 -391 
L 1159 1075 
L 428 1075 
L 428 1544 
L 1159 1544 
L 1159 4019 
L 3028 4019 
L 3028 4594 
L 666 4594 
L 666 5063 
L 5888 5063 
L 5888 4594 
L 3513 4594 
L 3513 4019 
L 5381 4019 
L 5381 1544 
L 6106 1544 
L 6106 1075 
z
M 4878 2834 
L 4878 3553 
L 3513 3553 
L 3513 2834 
L 4878 2834 
z
M 3028 2834 
L 3028 3553 
L 1644 3553 
L 1644 2834 
L 3028 2834 
z
M 4878 1544 
L 4878 2369 
L 3513 2369 
L 3513 1544 
L 4878 1544 
z
M 3028 1544 
L 3028 2369 
L 1644 2369 
L 1644 1544 
L 3028 1544 
z
" transform="scale(0.015625)"/>
     </defs>
     <use xlink:href="#ArialUnicodeMS-975e"/>
     <use xlink:href="#ArialUnicodeMS-7ebf" x="100"/>
     <use xlink:href="#ArialUnicodeMS-6027" x="200"/>
     <use xlink:href="#ArialUnicodeMS-20" x="300"/>
     <use xlink:href="#ArialUnicodeMS-2192" x="327.783203"/>
     <use xlink:href="#ArialUnicodeMS-20" x="399.072266"/>
     <use xlink:href="#ArialUnicodeMS-95f4" x="426.855469"/>
     <use xlink:href="#ArialUnicodeMS-8ddd" x="526.855469"/>
     <use xlink:href="#ArialUnicodeMS-4e0d" x="626.855469"/>
     <use xlink:href="#ArialUnicodeMS-518d" x="726.855469"/>
     <use xlink:href="#ArialUnicodeMS-5747" x="826.855469"/>
     <use xlink:href="#ArialUnicodeMS-5300" x="926.855469"/>
    </g>
   </g>
   <g id="patch_8">
    <path d="M 453.932956 140.599286 
Q 485.200732 140.599286 514.456047 140.599286 
" style="fill: none; stroke: #64748b; stroke-width: 1.8; stroke-linecap: round"/>
    <path d="M 510.456047 138.599286 
L 514.456047 140.599286 
L 510.456047 142.599286 
" style="fill: none; stroke: #64748b; stroke-width: 1.8; stroke-linecap: round"/>
   </g>
   <g id="text_12">
    <!-- 特定频率微波脉冲 -->
    <g style="fill: #64748b" transform="translate(450.848 119.2554) scale(0.085 -0.085)">
     <defs>
      <path id="ArialUnicodeMS-7279" d="M 5913 2700 
L 2772 2700 
L 2772 3169 
L 4063 3169 
L 4063 4025 
L 3009 4025 
L 3009 4494 
L 4063 4494 
L 4063 5319 
L 4550 5319 
L 4550 4494 
L 5684 4494 
L 5684 4025 
L 4550 4025 
L 4550 3169 
L 5913 3169 
L 5913 2700 
z
M 2741 2144 
L 2113 1869 
L 2113 -434 
L 1625 -434 
L 1625 1644 
L 838 1306 
L 481 1703 
L 1625 2175 
L 1625 3475 
L 1178 3475 
Q 1081 3094 769 2491 
L 319 2725 
Q 819 3531 916 4609 
L 1381 4481 
Q 1369 4263 1313 3944 
L 1625 3944 
L 1625 5281 
L 2113 5281 
L 2113 3944 
L 2688 3944 
L 2688 3475 
L 2113 3475 
L 2113 2413 
L 2741 2656 
L 2741 2144 
z
M 6041 1588 
L 5300 1588 
L 5300 191 
Q 5300 -88 5147 -239 
Q 4994 -391 4581 -397 
L 4109 -403 
L 3897 91 
Q 4356 56 4534 56 
Q 4813 56 4813 231 
L 4813 1588 
L 2644 1588 
L 2644 2053 
L 4813 2053 
L 4813 2631 
L 5300 2631 
L 5300 2053 
L 6041 2053 
L 6041 1588 
z
M 4275 691 
L 3903 378 
Q 3453 963 2888 1184 
L 3219 1497 
Q 3775 1297 4275 691 
z
" transform="scale(0.015625)"/>
      <path id="ArialUnicodeMS-5b9a" d="M 5747 3353 
L 5247 3353 
L 5247 4153 
L 1141 4153 
L 1141 3391 
L 653 3391 
L 653 4622 
L 2956 4622 
L 2956 5288 
L 3444 5288 
L 3444 4622 
L 5747 4622 
L 5747 3353 
z
M 6100 416 
L 5863 -97 
Q 5559 -109 5147 -109 
Q 3516 -109 2859 30 
Q 2203 169 1638 781 
Q 1378 175 659 -428 
L 263 -25 
Q 1481 681 1434 2528 
L 1913 2419 
Q 1903 1834 1806 1288 
Q 2259 666 3009 500 
L 3009 2925 
L 1325 2925 
L 1325 3391 
L 5106 3391 
L 5106 2925 
L 3494 2925 
L 3494 1978 
L 5422 1978 
L 5422 1509 
L 3494 1509 
L 3494 428 
L 4263 403 
L 6100 416 
z
" transform="scale(0.015625)"/>
      <path id="ArialUnicodeMS-9891" d="M 3091 2875 
L 403 2875 
L 403 3341 
L 800 3341 
L 800 4781 
L 1259 4781 
L 1259 3341 
L 1741 3341 
L 1741 5275 
L 2216 5275 
L 2216 4500 
L 2938 4500 
L 2938 4056 
L 2216 4056 
L 2216 3341 
L 3091 3341 
L 3091 2875 
z
M 5959 4569 
L 4744 4569 
Q 4644 4125 4556 3950 
L 5728 3950 
L 5728 941 
L 5241 941 
L 5241 3481 
L 3731 3481 
L 3731 941 
L 3238 941 
L 3238 3950 
L 4050 3950 
Q 4116 4056 4256 4569 
L 2950 4569 
L 2950 5013 
L 5959 5013 
L 5959 4569 
z
M 4738 3084 
Q 4738 2100 4695 1683 
Q 4653 1266 4414 808 
Q 4175 350 3745 62 
Q 3316 -225 2784 -428 
L 2472 -13 
Q 3303 266 3672 642 
Q 4041 1019 4166 1469 
Q 4291 1919 4269 3084 
L 4738 3084 
z
M 3047 2369 
Q 2866 1350 2228 618 
Q 1591 -113 653 -428 
L 325 -31 
Q 1363 278 1959 1038 
L 1656 1038 
L 1656 2772 
L 2138 2772 
L 2138 1294 
Q 2441 1772 2516 2138 
L 2591 2516 
L 3041 2369 
L 3047 2369 
z
M 1416 2431 
Q 1241 1606 769 1056 
L 341 1325 
Q 794 1781 997 2606 
L 1409 2431 
L 1416 2431 
z
M 6125 31 
L 5778 -359 
Q 5203 328 4513 672 
L 4813 991 
Q 5509 669 6125 31 
z
" transform="scale(0.015625)"/>
      <path id="ArialUnicodeMS-7387" d="M 5663 4313 
L 3469 4313 
Q 3113 3806 2828 3488 
L 3244 3309 
Q 3453 3538 3822 4078 
L 4263 3872 
Q 3531 2878 3022 2356 
L 3809 2406 
Q 3738 2594 3591 2822 
L 4019 2969 
Q 4375 2419 4459 1813 
L 3988 1678 
Q 3988 1806 3938 1966 
L 2150 1819 
L 1997 2316 
L 2431 2328 
Q 2616 2500 2931 2906 
Q 2372 3163 1978 3278 
L 2203 3731 
L 2419 3647 
Q 2634 3900 2888 4313 
L 709 4313 
L 709 4781 
L 2956 4781 
L 2956 5375 
L 3444 5375 
L 3444 4781 
L 5663 4781 
L 5663 4313 
z
M 5734 3922 
Q 5091 3316 4581 3128 
L 4294 3553 
Q 4947 3791 5447 4281 
L 5734 3922 
z
M 1984 3397 
L 1619 3059 
Q 1263 3534 653 3853 
L 947 4184 
Q 1531 3975 1984 3397 
z
M 2131 2597 
Q 1419 2031 763 1813 
L 459 2209 
Q 1238 2447 1863 2994 
L 2131 2597 
z
M 5906 2216 
L 5619 1831 
Q 5109 2341 4306 2553 
L 4550 2938 
Q 5391 2722 5906 2216 
z
M 5941 1038 
L 3456 1038 
L 3456 -441 
L 2963 -441 
L 2963 1038 
L 459 1038 
L 459 1503 
L 2963 1503 
L 2963 1831 
L 3456 1831 
L 3456 1503 
L 5941 1503 
L 5941 1038 
z
" transform="scale(0.015625)"/>
      <path id="ArialUnicodeMS-5fae" d="M 6169 -56 
L 5766 -403 
Q 5191 156 4872 722 
Q 4403 -3 3891 -453 
L 3519 -116 
Q 4222 488 4622 1247 
Q 4356 1975 4288 2478 
L 4275 2478 
L 4063 2100 
L 3866 2266 
L 1813 2266 
L 1813 2725 
L 3891 2725 
Q 4388 3569 4441 5331 
L 4891 5228 
Q 4866 4688 4781 4031 
L 6034 4031 
L 6034 3578 
L 5619 3578 
Q 5556 2238 5125 1241 
Q 5438 594 6169 -56 
z
M 5159 3578 
L 4691 3578 
L 4628 3353 
Q 4638 2759 4856 1881 
L 4872 1881 
Q 5088 2506 5159 3578 
z
M 1959 5088 
Q 1459 4081 653 3488 
L 319 3816 
Q 1072 4341 1575 5325 
L 1959 5088 
z
M 4019 3059 
L 1991 3059 
L 1991 3500 
L 1978 3500 
Q 1847 3169 1588 2809 
L 1588 -488 
L 1100 -488 
L 1100 2247 
Q 1075 2225 919 2054 
Q 763 1884 616 1791 
L 225 2138 
Q 1097 2694 1644 3853 
L 1991 3603 
L 1991 4703 
L 2478 4703 
L 2478 3519 
L 2766 3519 
L 2766 5269 
L 3250 5275 
L 3250 3519 
L 3531 3519 
L 3531 4722 
L 4019 4722 
L 4019 3059 
z
M 4269 825 
L 3053 147 
L 2747 538 
L 3138 750 
L 3138 1978 
L 3622 1978 
L 3622 972 
L 4269 1350 
L 4269 825 
z
M 2747 1978 
Q 2788 266 1991 -397 
L 1625 -78 
Q 1984 234 2140 664 
Q 2297 1094 2291 1978 
L 2747 1978 
z
" transform="scale(0.015625)"/>
      <path id="ArialUnicodeMS-6ce2" d="M 6150 -6 
L 5797 -403 
Q 4797 -47 4178 513 
Q 3497 -116 2591 -453 
L 2216 -84 
Q 3253 316 3828 831 
Q 3250 1438 2888 2425 
L 2681 2431 
L 2681 1484 
Q 2681 403 1759 -481 
L 1331 -159 
Q 2194 578 2194 1684 
L 2194 4475 
L 3763 4475 
L 3763 5319 
L 4250 5319 
L 4250 4475 
L 5875 4475 
Q 5903 3953 5538 3128 
L 5081 3272 
Q 5313 3813 5350 4006 
L 4250 4006 
L 4250 2894 
L 5538 2894 
Q 5428 1900 4525 844 
Q 5197 316 6150 -6 
z
M 3763 2894 
L 3763 4006 
L 2681 4006 
L 2681 2894 
L 3763 2894 
z
M 4953 2425 
L 3397 2425 
Q 3772 1509 4159 1159 
Q 4809 1844 4953 2425 
z
M 2100 4178 
L 1766 3794 
Q 1403 4438 738 4722 
L 1056 5044 
Q 1613 4850 2100 4178 
z
M 1766 2859 
L 1394 2534 
Q 1041 3159 319 3438 
L 647 3763 
Q 1256 3581 1766 2859 
z
M 1863 2075 
Q 1506 509 800 -397 
L 384 -116 
Q 1156 813 1422 2291 
L 1863 2075 
z
" transform="scale(0.015625)"/>
      <path id="ArialUnicodeMS-8109" d="M 5044 4678 
L 4750 4281 
Q 4203 4709 3169 4966 
L 3450 5375 
Q 4388 5150 5044 4678 
z
M 4044 3116 
Q 4009 2200 3696 1544 
Q 3384 888 2619 184 
L 2363 391 
L 2363 141 
Q 2363 -347 1906 -347 
L 1441 -347 
L 1281 147 
Q 1597 97 1678 97 
Q 1881 97 1881 231 
L 1881 1953 
L 1184 1953 
Q 1194 325 653 -447 
L 281 -122 
Q 709 659 709 1931 
L 709 5038 
L 2363 5038 
L 2363 672 
Q 3353 1569 3525 2650 
L 2497 2650 
L 2497 3116 
L 4044 3116 
z
M 1881 3731 
L 1881 4569 
L 1191 4569 
L 1191 3731 
L 1881 3731 
z
M 1881 2419 
L 1881 3263 
L 1191 3263 
L 1191 2419 
L 1881 2419 
z
M 6222 538 
L 5819 206 
Q 4959 956 4603 1869 
L 4603 147 
Q 4603 -116 4429 -245 
Q 4256 -375 4116 -378 
L 3463 -391 
L 3316 78 
L 4006 78 
Q 4122 78 4122 153 
L 4122 3816 
L 2797 3816 
L 2797 4281 
L 4603 4281 
L 4603 3109 
Q 4825 2491 4838 2472 
Q 5319 2697 5716 3366 
L 6100 3034 
Q 5625 2344 5050 2009 
Q 5419 1238 6222 538 
z
" transform="scale(0.015625)"/>
      <path id="ArialUnicodeMS-51b2" d="M 5741 1434 
L 5253 1434 
L 5253 1806 
L 4134 1806 
L 4134 -391 
L 3647 -391 
L 3647 1806 
L 2553 1806 
L 2553 1434 
L 2069 1434 
L 2069 4097 
L 3647 4097 
L 3647 5331 
L 4134 5331 
L 4134 4097 
L 5741 4097 
L 5741 1434 
z
M 5253 2272 
L 5253 3628 
L 4134 3628 
L 4134 2272 
L 5253 2272 
z
M 3647 2272 
L 3647 3628 
L 2553 3628 
L 2553 2272 
L 3647 2272 
z
M 1913 3475 
L 1503 3163 
Q 1294 3975 416 4603 
L 794 4884 
Q 1609 4300 1913 3475 
z
M 1819 2559 
Q 1597 919 653 -128 
L 281 197 
Q 1172 1128 1381 2772 
L 1819 2559 
z
" transform="scale(0.015625)"/>
     </defs>
     <use xlink:href="#ArialUnicodeMS-7279"/>
     <use xlink:href="#ArialUnicodeMS-5b9a" x="100"/>
     <use xlink:href="#ArialUnicodeMS-9891" x="200"/>
     <use xlink:href="#ArialUnicodeMS-7387" x="300"/>
     <use xlink:href="#ArialUnicodeMS-5fae" x="400"/>
     <use xlink:href="#ArialUnicodeMS-6ce2" x="500"/>
     <use xlink:href="#ArialUnicodeMS-8109" x="600"/>
     <use xlink:href="#ArialUnicodeMS-51b2" x="700"/>
    </g>
   </g>
   <g id="text_13">
    <!-- ③ 量子比特 -->
    <g style="fill: #334155" transform="translate(607.179851 17.204946) scale(0.115 -0.115)">
     <defs>
      <path id="ArialUnicodeMS-2462" d="M 3200 4659 
Q 3916 4659 4539 4298 
Q 5163 3938 5522 3316 
Q 5881 2694 5881 1978 
Q 5881 1266 5520 644 
Q 5159 22 4536 -337 
Q 3913 -697 3200 -697 
Q 2488 -697 1864 -337 
Q 1241 22 880 644 
Q 519 1266 519 1978 
Q 519 2694 878 3317 
Q 1238 3941 1861 4300 
Q 2484 4659 3200 4659 
z
M 3200 -294 
Q 4131 -294 4804 376 
Q 5478 1047 5478 1978 
Q 5478 2584 5172 3114 
Q 4866 3644 4336 3950 
Q 3806 4256 3200 4256 
Q 2263 4256 1592 3584 
Q 922 2913 922 1978 
Q 922 1047 1595 376 
Q 2269 -294 3200 -294 
z
M 3641 2125 
Q 3931 2059 4064 1846 
Q 4197 1634 4197 1388 
Q 4197 972 3898 715 
Q 3600 459 3200 459 
Q 2806 459 2550 690 
Q 2294 922 2253 1300 
L 2619 1350 
Q 2669 1056 2814 909 
Q 2959 763 3200 763 
Q 3453 763 3631 942 
Q 3809 1122 3809 1381 
Q 3809 1631 3646 1795 
Q 3484 1959 3225 1959 
Q 3106 1959 2969 1919 
L 3016 2241 
Q 3363 2241 3522 2383 
Q 3681 2525 3681 2741 
Q 3681 2959 3531 3082 
Q 3381 3206 3188 3206 
Q 2959 3206 2826 3070 
Q 2694 2934 2656 2663 
L 2284 2725 
Q 2356 3116 2600 3308 
Q 2844 3500 3181 3500 
Q 3556 3500 3803 3276 
Q 4050 3053 4050 2725 
Q 4050 2316 3641 2131 
L 3641 2125 
z
" transform="scale(0.015625)"/>
      <path id="ArialUnicodeMS-91cf" d="M 5056 3378 
L 1313 3378 
L 1313 5050 
L 5056 5050 
L 5056 3378 
z
M 4569 4403 
L 4569 4609 
L 1797 4609 
L 1797 4403 
L 4569 4403 
z
M 4569 3794 
L 4569 4031 
L 1797 4031 
L 1797 3794 
L 4569 3794 
z
M 5797 2816 
L 581 2816 
L 581 3231 
L 5797 3231 
L 5797 2816 
z
M 6059 -191 
L 341 -191 
L 341 275 
L 2950 275 
L 2950 459 
L 897 459 
L 897 878 
L 2950 878 
L 2950 1044 
L 1125 1044 
L 1125 2669 
L 5269 2669 
L 5269 1044 
L 3438 1044 
L 3438 878 
L 5509 878 
L 5509 459 
L 3438 459 
L 3438 275 
L 6059 275 
L 6059 -191 
z
M 4781 2053 
L 4781 2253 
L 3438 2253 
L 3438 2053 
L 4781 2053 
z
M 2950 2053 
L 2950 2253 
L 1613 2253 
L 1613 2053 
L 2950 2053 
z
M 4781 1459 
L 4781 1697 
L 3438 1697 
L 3438 1459 
L 4781 1459 
z
M 2950 1459 
L 2950 1697 
L 1613 1697 
L 1613 1459 
L 2950 1459 
z
" transform="scale(0.015625)"/>
      <path id="ArialUnicodeMS-5b50" d="M 5894 2328 
L 3566 2328 
L 3566 191 
Q 3566 -31 3425 -172 
Q 3284 -313 3034 -313 
L 2247 -313 
L 2016 184 
L 2822 147 
Q 3078 138 3078 447 
L 3078 2328 
L 628 2328 
L 628 2797 
L 3078 2797 
L 3078 3438 
Q 3856 3947 4403 4569 
L 1416 4569 
L 1416 5038 
L 5100 5038 
L 5100 4678 
Q 4438 3794 3566 3200 
L 3566 2797 
L 5894 2797 
L 5894 2328 
z
" transform="scale(0.015625)"/>
      <path id="ArialUnicodeMS-6bd4" d="M 6119 1100 
Q 5975 -197 5300 -197 
L 4103 -197 
Q 3828 -197 3658 -42 
Q 3488 113 3488 378 
L 3488 5191 
L 3994 5191 
L 3994 2906 
Q 4775 3172 5600 3916 
L 5984 3584 
Q 5013 2703 3994 2388 
L 3994 506 
Q 4022 269 4225 269 
L 5153 269 
Q 5375 269 5464 464 
Q 5553 659 5625 1325 
L 6119 1100 
z
M 3238 306 
L 653 -231 
L 378 250 
L 1131 391 
L 1131 5166 
L 1638 5166 
L 1638 3450 
L 3238 3450 
L 3238 2981 
L 1638 2981 
L 1638 500 
L 3238 819 
L 3238 306 
z
" transform="scale(0.015625)"/>
     </defs>
     <use xlink:href="#ArialUnicodeMS-2462"/>
     <use xlink:href="#ArialUnicodeMS-20" x="100"/>
     <use xlink:href="#ArialUnicodeMS-91cf" x="127.783203"/>
     <use xlink:href="#ArialUnicodeMS-5b50" x="227.783203"/>
     <use xlink:href="#ArialUnicodeMS-6bd4" x="327.783203"/>
     <use xlink:href="#ArialUnicodeMS-7279" x="427.783203"/>
    </g>
   </g>
   <g id="text_14">
    <!-- |0⟩ -->
    <g style="fill: #7c3aed" transform="translate(585 263.736065) scale(0.11 -0.11)">
     <defs>
      <path id="ArialUnicodeMS-7c" d="M 1075 -1275 
L 588 -1275 
L 588 4581 
L 1075 4581 
L 1075 -1275 
z
" transform="scale(0.015625)"/>
      <path id="ArialUnicodeMS-30" d="M 1778 4603 
Q 3272 4603 3272 2259 
Q 3272 1075 2886 498 
Q 2500 -78 1778 -78 
Q 288 -78 288 2259 
Q 288 3444 673 4023 
Q 1059 4603 1778 4603 
z
M 1778 384 
Q 2231 384 2462 823 
Q 2694 1263 2694 2259 
Q 2694 2953 2592 3351 
Q 2491 3750 2286 3945 
Q 2081 4141 1772 4141 
Q 1319 4141 1091 3694 
Q 863 3247 863 2259 
Q 863 1575 966 1175 
Q 1069 775 1272 579 
Q 1475 384 1778 384 
z
" transform="scale(0.015625)"/>
      <path id="DejaVuSans-Bold-27e9" d="M 2253 2006 
L 1363 -844 
L 513 -844 
L 1406 2006 
L 513 4856 
L 1363 4856 
L 2253 2006 
z
" transform="scale(0.015625)"/>
     </defs>
     <use xlink:href="#ArialUnicodeMS-7c"/>
     <use xlink:href="#ArialUnicodeMS-30" x="25.976562"/>
     <use xlink:href="#DejaVuSans-Bold-27e9" x="81.591797"/>
    </g>
   </g>
   <g id="text_15">
    <!-- |1⟩ -->
    <g style="fill: #7c3aed" transform="translate(585 246.394158) scale(0.11 -0.11)">
     <defs>
      <path id="ArialUnicodeMS-31" d="M 2400 0 
L 1838 0 
L 1838 3584 
Q 1416 3184 709 2906 
L 709 3450 
Q 1681 3916 2034 4603 
L 2400 4603 
L 2400 0 
z
" transform="scale(0.015625)"/>
     </defs>
     <use xlink:href="#ArialUnicodeMS-7c"/>
     <use xlink:href="#ArialUnicodeMS-31" x="25.976562"/>
     <use xlink:href="#DejaVuSans-Bold-27e9" x="81.591797"/>
    </g>
   </g>
   <g id="patch_9">
    <path d="M 637.527273 255.988691 
Q 637.527273 251.985638 637.527273 250.442259 
" style="fill: none; stroke: #d97706; stroke-width: 2.2; stroke-linecap: round"/>
    <path d="M 635.527273 254.442259 
L 637.527273 250.442259 
L 639.527273 254.442259 
" style="fill: none; stroke: #d97706; stroke-width: 2.2; stroke-linecap: round"/>
   </g>
   <g id="text_16">
    <!-- ω₀₁ -->
    <g style="fill: #d97706" transform="translate(679.549091 249.685916) scale(0.085 -0.085)">
     <defs>
      <path id="ArialUnicodeMS-3c9" d="M 4184 3316 
Q 4678 2434 4678 1600 
Q 4678 794 4336 358 
Q 3994 -78 3463 -78 
Q 2763 -78 2450 672 
Q 2141 -78 1441 -78 
Q 903 -78 564 361 
Q 225 800 225 1600 
Q 225 2434 716 3316 
L 1259 3316 
Q 928 2550 858 2204 
Q 788 1859 788 1581 
Q 788 1041 988 703 
Q 1188 366 1503 366 
Q 1791 366 1980 645 
Q 2169 925 2169 1403 
L 2169 2484 
L 2731 2484 
L 2731 1403 
Q 2731 906 2912 636 
Q 3094 366 3397 366 
Q 3713 366 3914 691 
Q 4116 1016 4116 1581 
Q 4116 1888 4037 2241 
Q 3959 2594 3641 3316 
L 4184 3316 
z
" transform="scale(0.015625)"/>
     </defs>
     <use xlink:href="#ArialUnicodeMS-3c9"/>
     <use xlink:href="#ArialUnicodeMS-2080" x="76.611328"/>
     <use xlink:href="#ArialUnicodeMS-2081" x="109.912109"/>
    </g>
    <!-- 微波 -->
    <g style="fill: #d97706" transform="translate(679.549091 258.680244) scale(0.085 -0.085)">
     <use xlink:href="#ArialUnicodeMS-5fae"/>
     <use xlink:href="#ArialUnicodeMS-6ce2" x="100"/>
    </g>
   </g>
   <g id="text_17">
    <!-- 基态|0⟩与激发态|1⟩编码量子信息 -->
    <g style="fill: #64748b" transform="translate(576.275476 279.334543) scale(0.085 -0.085)">
     <defs>
      <path id="ArialUnicodeMS-57fa" d="M 6272 1063 
L 5984 622 
Q 5247 847 4744 1147 
L 4738 744 
L 3450 744 
L 3450 281 
L 5831 281 
L 5831 -178 
L 666 -178 
L 666 281 
L 2963 281 
L 2963 744 
L 1759 744 
L 1759 1106 
Q 1269 772 544 563 
L 231 1006 
Q 1356 1247 1863 1778 
L 603 1778 
L 603 2241 
L 1613 2241 
L 1613 4341 
L 722 4341 
L 722 4775 
L 1613 4775 
L 1613 5306 
L 2100 5306 
L 2100 4775 
L 4313 4775 
L 4313 5325 
L 4800 5325 
L 4800 4775 
L 5691 4775 
L 5691 4341 
L 4800 4341 
L 4800 2241 
L 5831 2241 
L 5831 1778 
L 4628 1778 
Q 5178 1247 6272 1063 
z
M 4313 3950 
L 4313 4341 
L 2100 4341 
L 2100 3950 
L 4313 3950 
z
M 4313 3103 
L 4313 3513 
L 2100 3513 
L 2100 3103 
L 4313 3103 
z
M 4313 2241 
L 4313 2669 
L 2100 2669 
L 2100 2241 
L 4313 2241 
z
M 4697 1178 
Q 4294 1444 4072 1778 
L 2413 1778 
Q 2194 1425 1850 1178 
L 2963 1178 
L 2963 1650 
L 3450 1650 
L 3450 1178 
L 4697 1178 
z
" transform="scale(0.015625)"/>
      <path id="ArialUnicodeMS-6001" d="M 5978 2075 
L 5672 1650 
Q 3828 2550 3213 3969 
L 3116 3969 
Q 3003 3581 2841 3309 
Q 3538 2913 3891 2425 
L 3506 2131 
Q 3125 2700 2613 2963 
Q 1934 2106 563 1684 
L 231 2138 
Q 1431 2503 1923 2934 
Q 2416 3366 2613 3969 
L 391 3969 
L 391 4409 
L 2741 4409 
Q 2766 4503 2834 5166 
L 3291 5100 
Q 3281 4706 3213 4409 
L 5831 4409 
L 5831 3969 
L 3713 3969 
Q 4350 2806 5978 2075 
z
M 3847 1081 
L 3438 781 
Q 3213 1431 2663 1875 
L 3053 2156 
Q 3644 1650 3847 1081 
z
M 4838 738 
Q 4719 128 4594 -76 
Q 4469 -281 4244 -281 
L 2413 -281 
Q 2234 -281 2100 -159 
Q 1966 -38 1966 122 
L 1966 1894 
L 2450 1894 
L 2450 288 
Q 2450 253 2500 218 
Q 2550 184 2559 184 
L 4147 184 
Q 4209 184 4264 284 
Q 4319 384 4331 519 
L 4372 928 
L 4838 738 
z
M 1819 1388 
Q 1481 641 666 19 
L 281 372 
Q 1056 947 1459 1638 
L 1819 1388 
z
M 5997 359 
L 5644 -6 
Q 5234 706 4488 1228 
L 4819 1556 
Q 5531 1078 5997 359 
z
" transform="scale(0.015625)"/>
      <path id="DejaVuSans-27e9" d="M 1925 2006 
L 1044 -844 
L 513 -844 
L 1394 2006 
L 513 4856 
L 1044 4856 
L 1925 2006 
z
" transform="scale(0.015625)"/>
      <path id="ArialUnicodeMS-4e0e" d="M 5953 3916 
L 1881 3916 
L 1784 3028 
L 5153 3028 
L 5081 1734 
L 5919 1734 
L 5919 1234 
L 5050 1234 
Q 4984 100 4750 -154 
Q 4516 -409 4159 -409 
Q 3856 -409 3225 -269 
L 3144 300 
Q 3863 103 4091 103 
Q 4253 103 4348 201 
Q 4444 300 4487 711 
Q 4531 1122 4531 1234 
L 434 1234 
L 434 1734 
L 4569 1734 
Q 4597 2088 4609 2509 
L 1728 2509 
L 1672 2069 
L 1172 2113 
L 1528 5281 
L 2041 5228 
L 1947 4428 
L 5953 4428 
L 5953 3916 
z
" transform="scale(0.015625)"/>
      <path id="ArialUnicodeMS-6fc0" d="M 6156 -6 
L 5797 -403 
Q 5375 -103 4928 641 
Q 4494 3 3878 -409 
L 3572 -19 
Q 4344 516 4672 1100 
Q 4347 1869 4269 2578 
Q 4191 2416 4063 2278 
L 3628 2509 
L 3700 2613 
L 3103 2613 
L 3103 2216 
L 4056 2216 
L 4056 1747 
L 2656 1747 
Q 2656 1613 2631 1388 
L 3841 1388 
Q 3688 269 3523 -6 
Q 3359 -281 3066 -281 
Q 2866 -281 2472 -172 
L 2400 353 
Q 2872 191 3022 191 
Q 3203 191 3309 922 
L 2566 922 
Q 2347 -16 1516 -459 
L 1209 -72 
Q 2181 334 2181 1747 
L 1619 1747 
L 1619 2216 
L 2644 2216 
L 2644 2613 
L 1863 2613 
L 1863 4763 
L 2509 4763 
Q 2684 5109 2719 5375 
L 3200 5228 
Q 3116 4944 3003 4763 
L 3866 4763 
L 3866 2853 
L 3872 2853 
Q 4416 3809 4453 5350 
L 4928 5228 
Q 4884 4563 4806 4128 
L 6022 4128 
L 6022 3659 
L 5663 3659 
Q 5663 2122 5184 1131 
Q 5544 434 6156 -6 
z
M 3378 3944 
L 3378 4294 
L 2350 4294 
L 2350 3944 
L 3378 3944 
z
M 5209 3659 
L 4703 3659 
L 4622 3372 
Q 4688 2341 4928 1697 
L 4941 1697 
Q 5191 2416 5209 3659 
z
M 3378 3078 
L 3378 3500 
L 2350 3500 
L 2350 3078 
L 3378 3078 
z
M 1813 4294 
L 1416 4013 
Q 1075 4581 550 4813 
L 953 5094 
Q 1406 4872 1813 4294 
z
M 1556 2963 
L 1197 2638 
Q 713 3309 256 3494 
L 603 3822 
Q 1094 3591 1556 2963 
z
M 1556 2009 
Q 1334 653 684 -263 
L 281 31 
Q 938 900 1113 2188 
L 1556 2009 
z
" transform="scale(0.015625)"/>
      <path id="ArialUnicodeMS-53d1" d="M 6016 6 
L 5684 -384 
Q 5053 -234 4711 -46 
Q 4369 141 3725 609 
Q 2963 -134 1703 -372 
L 1422 31 
Q 2738 313 3384 922 
Q 2891 1450 2522 2181 
Q 2066 844 594 -225 
L 244 184 
Q 1922 1250 2400 3278 
L 934 3278 
L 934 3706 
L 1522 5172 
L 1953 4947 
L 1472 3744 
L 2522 3744 
Q 2663 4269 2772 5300 
L 3238 5178 
Q 3097 4141 3009 3744 
L 5766 3744 
L 5766 3278 
L 2900 3278 
L 2731 2778 
L 4922 2778 
L 4922 2381 
Q 4559 1531 4025 934 
Q 4781 309 6016 6 
z
M 4378 2309 
L 2975 2309 
Q 3363 1584 3700 1269 
Q 4141 1759 4378 2309 
z
M 4941 4172 
L 4550 3866 
Q 4244 4381 3531 4788 
L 3866 5100 
Q 4519 4753 4941 4172 
z
" transform="scale(0.015625)"/>
      <path id="ArialUnicodeMS-7f16" d="M 5900 122 
Q 5900 -409 5441 -409 
L 4984 -409 
L 4800 63 
Q 5144 31 5350 31 
Q 5447 31 5447 159 
L 5447 1031 
L 5031 1031 
L 5031 172 
L 4581 172 
L 4581 1031 
L 4178 1031 
L 4178 -44 
L 3725 -44 
L 3725 1031 
L 3291 1031 
L 3291 -416 
L 2828 -416 
L 2828 1594 
Q 2628 344 2144 -441 
L 1703 -191 
Q 1913 131 2047 513 
L 459 -56 
L 219 366 
Q 569 497 1181 692 
Q 1794 888 2144 1031 
L 2144 788 
Q 2438 1753 2438 2809 
L 2438 4416 
L 4000 4416 
Q 3753 4803 3272 5063 
L 3681 5356 
Q 4209 5059 4488 4594 
L 4256 4416 
L 5709 4416 
L 5709 3047 
L 2925 3047 
L 2925 2578 
L 5900 2578 
L 5900 122 
z
M 5222 3500 
L 5222 3963 
L 2925 3963 
L 2925 3500 
L 5222 3500 
z
M 5447 1472 
L 5447 2113 
L 5031 2113 
L 5031 1472 
L 5447 1472 
z
M 4581 1472 
L 4581 2113 
L 4178 2113 
L 4178 1472 
L 4581 1472 
z
M 3725 1472 
L 3725 2113 
L 3291 2113 
L 3291 1472 
L 3725 1472 
z
M 2241 3584 
Q 1791 2425 1153 1703 
L 1166 1691 
L 2188 1906 
L 2188 1466 
L 647 1081 
L 422 1516 
Q 931 1966 1288 2619 
Q 834 2569 575 2472 
L 353 2881 
Q 831 3466 1253 5141 
L 1716 4922 
Q 1278 3475 959 3009 
L 1497 3066 
Q 1556 3178 1797 3859 
L 2241 3584 
z
" transform="scale(0.015625)"/>
      <path id="ArialUnicodeMS-7801" d="M 5791 2266 
Q 5791 1619 5683 776 
Q 5575 -66 5389 -231 
Q 5203 -397 4841 -397 
Q 4591 -397 4275 -341 
L 4141 153 
Q 4731 50 4863 50 
Q 4978 50 5053 151 
Q 5128 253 5212 947 
Q 5297 1641 5319 2150 
L 2853 2150 
L 2853 2572 
Q 3159 3972 3169 4294 
L 3634 4172 
Q 3553 3488 3366 2619 
L 4588 2619 
Q 4763 3566 4825 4447 
L 2797 4447 
L 2797 4916 
L 5313 4916 
Q 5288 3766 5088 2619 
L 5791 2619 
L 5791 2266 
z
M 2606 4269 
L 1747 4256 
Q 1672 3494 1491 3047 
L 2491 3047 
L 2491 91 
L 2009 91 
L 2009 538 
L 1388 538 
L 1388 91 
L 909 91 
L 909 2034 
L 903 2034 
Q 781 1819 616 1716 
L 250 2081 
Q 1156 2825 1275 4269 
L 441 4269 
L 441 4738 
L 2606 4738 
L 2606 4269 
z
M 2009 1006 
L 2009 2578 
L 1388 2578 
L 1388 1006 
L 2009 1006 
z
M 4978 947 
L 2719 947 
L 2719 1416 
L 4978 1416 
L 4978 947 
z
" transform="scale(0.015625)"/>
      <path id="ArialUnicodeMS-4fe1" d="M 2113 5100 
Q 1991 4697 1822 4250 
L 1650 3834 
L 1650 -434 
L 1166 -434 
L 1166 2969 
Q 969 2606 609 2181 
L 206 2503 
Q 1144 3613 1656 5281 
L 2113 5100 
z
M 5594 4728 
L 2363 4728 
L 2363 5197 
L 5594 5197 
L 5594 4728 
z
M 6022 3872 
L 2003 3872 
L 2003 4341 
L 6022 4341 
L 6022 3872 
z
M 5588 2938 
L 2356 2938 
L 2356 3406 
L 5588 3406 
L 5588 2938 
z
M 5588 2022 
L 2356 2022 
L 2356 2491 
L 5588 2491 
L 5588 2022 
z
M 5509 -434 
L 5044 -434 
L 5044 -56 
L 2894 -56 
L 2894 -434 
L 2425 -434 
L 2425 1528 
L 5509 1528 
L 5509 -434 
z
M 5044 359 
L 5044 1113 
L 2894 1113 
L 2894 359 
L 5044 359 
z
" transform="scale(0.015625)"/>
      <path id="ArialUnicodeMS-606f" d="M 4959 1759 
L 1338 1759 
L 1338 4756 
L 2753 4756 
Q 3038 5041 3219 5394 
L 3653 5159 
Q 3509 4919 3347 4756 
L 4959 4756 
L 4959 1759 
z
M 4475 3938 
L 4475 4288 
L 1825 4288 
L 1825 3938 
L 4475 3938 
z
M 4475 3084 
L 4475 3469 
L 1825 3469 
L 1825 3084 
L 4475 3084 
z
M 4475 2228 
L 4475 2644 
L 1825 2644 
L 1825 2228 
L 4475 2228 
z
M 3916 928 
L 3591 594 
Q 3144 1119 2497 1350 
L 2809 1697 
Q 3447 1484 3916 928 
z
M 4703 844 
Q 4519 194 4395 17 
Q 4272 -159 4025 -159 
L 2456 -159 
Q 1925 -159 1925 269 
L 1925 1409 
L 2413 1409 
L 2413 500 
Q 2413 306 2566 306 
L 3928 306 
Q 4038 306 4097 475 
L 4250 903 
L 4703 844 
z
M 6075 353 
L 5663 72 
Q 5256 788 4506 1081 
L 4884 1375 
Q 5578 1100 6075 353 
z
M 1766 1088 
Q 1378 425 616 0 
L 275 359 
Q 1034 734 1403 1350 
L 1766 1088 
z
" transform="scale(0.015625)"/>
     </defs>
     <use xlink:href="#ArialUnicodeMS-57fa"/>
     <use xlink:href="#ArialUnicodeMS-6001" x="100"/>
     <use xlink:href="#ArialUnicodeMS-7c" x="200"/>
     <use xlink:href="#ArialUnicodeMS-30" x="225.976562"/>
     <use xlink:href="#DejaVuSans-27e9" x="281.591797"/>
     <use xlink:href="#ArialUnicodeMS-4e0e" x="320.605469"/>
     <use xlink:href="#ArialUnicodeMS-6fc0" x="420.605469"/>
     <use xlink:href="#ArialUnicodeMS-53d1" x="520.605469"/>
     <use xlink:href="#ArialUnicodeMS-6001" x="620.605469"/>
     <use xlink:href="#ArialUnicodeMS-7c" x="720.605469"/>
     <use xlink:href="#ArialUnicodeMS-31" x="746.582031"/>
     <use xlink:href="#DejaVuSans-27e9" x="802.197266"/>
     <use xlink:href="#ArialUnicodeMS-7f16" x="841.210938"/>
     <use xlink:href="#ArialUnicodeMS-7801" x="941.210938"/>
     <use xlink:href="#ArialUnicodeMS-91cf" x="1041.210938"/>
     <use xlink:href="#ArialUnicodeMS-5b50" x="1141.210938"/>
     <use xlink:href="#ArialUnicodeMS-4fe1" x="1241.210938"/>
     <use xlink:href="#ArialUnicodeMS-606f" x="1341.210938"/>
    </g>
   </g>
   <g id="line2d_36">
    <path d="M 599.007273 260.658643 
L 676.047273 260.658643 
" clip-path="url(#p7dd6ec6013)" style="fill: none; stroke: #7c3aed; stroke-width: 3; stroke-linecap: square"/>
   </g>
   <g id="line2d_37">
    <path d="M 599.007273 243.316736 
L 676.047273 243.316736 
" clip-path="url(#p7dd6ec6013)" style="fill: none; stroke: #7c3aed; stroke-width: 3; stroke-linecap: square"/>
   </g>
  </g>
 </g>
 <defs>
  <clipPath id="p7dd6ec6013">
   <rect x="7.2" y="7.2" width="770.4" height="280.1385"/>
  </clipPath>
 </defs>
</svg>