<?xml version="1.0" encoding="utf-8" standalone="no"?>
<!DOCTYPE svg PUBLIC "-//W3C//DTD SVG 1.1//EN"
  "http://www.w3.org/Graphics/SVG/1.1/DTD/svg11.dtd">
<svg xmlns:xlink="http://www.w3.org/1999/xlink" width="774.94625pt" height="295.101437pt" viewBox="0 0 774.94625 295.101437" xmlns="http://www.w3.org/2000/svg" version="1.1">
 <metadata>
  <rdf:RDF xmlns:dc="http://purl.org/dc/elements/1.1/" xmlns:cc="http://creativecommons.org/ns#" xmlns:rdf="http://www.w3.org/1999/02/22-rdf-syntax-ns#">
   <cc:Work>
    <dc:type rdf:resource="http://purl.org/dc/dcmitype/StillImage"/>
    <dc:date>2026-05-27T21:40:14.281981</dc:date>
    <dc:format>image/svg+xml</dc:format>
    <dc:creator>
     <cc:Agent>
      <dc:title>Matplotlib v3.9.4, https://matplotlib.org/</dc:title>
     </cc:Agent>
    </dc:creator>
   </cc:Work>
  </rdf:RDF>
 </metadata>
 <defs>
  <style type="text/css">*{stroke-linejoin: round; stroke-linecap: butt}</style>
 </defs>
 <g id="figure_1">
  <g id="patch_1">
   <path d="M -0 295.101437 
L 774.94625 295.101437 
L 774.94625 0 
L -0 0 
z
" style="fill: #f8fafc"/>
  </g>
  <g id="axes_1">
   <g id="patch_2">
    <path d="M 47.02625 262.914375 
L 326.615905 262.914375 
L 326.615905 23.154375 
L 47.02625 23.154375 
z
" style="fill: #f8fafc"/>
   </g>
   <g id="line2d_1">
    <path d="M 151.872371 257.969644 
L 151.872371 32.139246 
" clip-path="url(#p6ddcbf3eee)" style="fill: none; stroke: #cbd5e1; stroke-width: 2; stroke-linecap: square"/>
   </g>
   <g id="matplotlib.axis_1"/>
   <g id="matplotlib.axis_2">
    <g id="ytick_1">
     <g id="line2d_2">
      <defs>
       <path id="mf2a22b3d71" d="M 0 0 
L -3.5 0 
" style="stroke: #000000; stroke-width: 0.8"/>
      </defs>
      <g>
       <use xlink:href="#mf2a22b3d71" x="47.02625" y="215.930567" style="stroke: #000000; stroke-width: 0.8"/>
      </g>
     </g>
     <g id="text_1">
      <!-- $\mathdefault{10^{-1}}$ -->
      <g transform="translate(20.52625 219.509473) scale(0.1 -0.1)">
       <defs>
        <path id="ArialUnicodeMS-31" d="M 2400 0 
L 1838 0 
L 1838 3584 
Q 1416 3184 709 2906 
L 709 3450 
Q 1681 3916 2034 4603 
L 2400 4603 
L 2400 0 
z
" transform="scale(0.015625)"/>
        <path id="ArialUnicodeMS-30" d="M 1778 4603 
Q 3272 4603 3272 2259 
Q 3272 1075 2886 498 
Q 2500 -78 1778 -78 
Q 288 -78 288 2259 
Q 288 3444 673 4023 
Q 1059 4603 1778 4603 
z
M 1778 384 
Q 2231 384 2462 823 
Q 2694 1263 2694 2259 
Q 2694 2953 2592 3351 
Q 2491 3750 2286 3945 
Q 2081 4141 1772 4141 
Q 1319 4141 1091 3694 
Q 863 3247 863 2259 
Q 863 1575 966 1175 
Q 1069 775 1272 579 
Q 1475 384 1778 384 
z
" transform="scale(0.015625)"/>
        <path id="ArialUnicodeMS-2212" d="M 3384 1997 
L 353 1997 
L 353 2522 
L 3384 2522 
L 3384 1997 
z
" transform="scale(0.015625)"/>
       </defs>
       <use xlink:href="#ArialUnicodeMS-31" transform="translate(0 0.385938)"/>
       <use xlink:href="#ArialUnicodeMS-30" transform="translate(55.615234 0.385938)"/>
       <use xlink:href="#ArialUnicodeMS-2212" transform="translate(112.137187 36.654688) scale(0.7)"/>
       <use xlink:href="#ArialUnicodeMS-31" transform="translate(153.016094 36.654688) scale(0.7)"/>
      </g>
     </g>
    </g>
    <g id="ytick_2">
     <g id="line2d_3">
      <g>
       <use xlink:href="#mf2a22b3d71" x="47.02625" y="164.906619" style="stroke: #000000; stroke-width: 0.8"/>
      </g>
     </g>
     <g id="text_2">
      <!-- $\mathdefault{10^{0}}$ -->
      <g transform="translate(24.62625 168.485526) scale(0.1 -0.1)">
       <use xlink:href="#ArialUnicodeMS-31" transform="translate(0 0.385938)"/>
       <use xlink:href="#ArialUnicodeMS-30" transform="translate(55.615234 0.385938)"/>
       <use xlink:href="#ArialUnicodeMS-30" transform="translate(112.137187 36.654688) scale(0.7)"/>
      </g>
     </g>
    </g>
    <g id="ytick_3">
     <g id="line2d_4">
      <g>
       <use xlink:href="#mf2a22b3d71" x="47.02625" y="113.882671" style="stroke: #000000; stroke-width: 0.8"/>
      </g>
     </g>
     <g id="text_3">
      <!-- $\mathdefault{10^{1}}$ -->
      <g transform="translate(24.62625 117.461578) scale(0.1 -0.1)">
       <use xlink:href="#ArialUnicodeMS-31" transform="translate(0 0.385938)"/>
       <use xlink:href="#ArialUnicodeMS-30" transform="translate(55.615234 0.385938)"/>
       <use xlink:href="#ArialUnicodeMS-31" transform="translate(112.137187 36.654688) scale(0.7)"/>
      </g>
     </g>
    </g>
    <g id="ytick_4">
     <g id="line2d_5">
      <g>
       <use xlink:href="#mf2a22b3d71" x="47.02625" y="62.858724" style="stroke: #000000; stroke-width: 0.8"/>
      </g>
     </g>
     <g id="text_4">
      <!-- $\mathdefault{10^{2}}$ -->
      <g transform="translate(24.62625 66.43763) scale(0.1 -0.1)">
       <defs>
        <path id="ArialUnicodeMS-32" d="M 3231 0 
L 197 0 
Q 197 388 467 784 
Q 738 1181 1478 1778 
Q 1931 2141 2287 2539 
Q 2644 2938 2644 3341 
Q 2644 3688 2398 3914 
Q 2153 4141 1778 4141 
Q 1400 4141 1144 3908 
Q 888 3675 884 3213 
L 306 3278 
Q 359 3922 764 4262 
Q 1169 4603 1791 4603 
Q 2466 4603 2842 4229 
Q 3219 3856 3219 3328 
Q 3219 2888 2901 2436 
Q 2584 1984 1638 1228 
Q 1141 831 978 544 
L 3231 544 
L 3231 0 
z
" transform="scale(0.015625)"/>
       </defs>
       <use xlink:href="#ArialUnicodeMS-31" transform="translate(0 0.385938)"/>
       <use xlink:href="#ArialUnicodeMS-30" transform="translate(55.615234 0.385938)"/>
       <use xlink:href="#ArialUnicodeMS-32" transform="translate(112.137187 36.654688) scale(0.7)"/>
      </g>
     </g>
    </g>
    <g id="ytick_5">
     <g id="line2d_6">
      <defs>
       <path id="mdf6791d5f1" d="M 0 0 
L -2 0 
" style="stroke: #000000; stroke-width: 0.6"/>
      </defs>
      <g>
       <use xlink:href="#mdf6791d5f1" x="47.02625" y="251.594776" style="stroke: #000000; stroke-width: 0.6"/>
      </g>
     </g>
    </g>
    <g id="ytick_6">
     <g id="line2d_7">
      <g>
       <use xlink:href="#mdf6791d5f1" x="47.02625" y="242.609905" style="stroke: #000000; stroke-width: 0.6"/>
      </g>
     </g>
    </g>
    <g id="ytick_7">
     <g id="line2d_8">
      <g>
       <use xlink:href="#mdf6791d5f1" x="47.02625" y="236.235037" style="stroke: #000000; stroke-width: 0.6"/>
      </g>
     </g>
    </g>
    <g id="ytick_8">
     <g id="line2d_9">
      <g>
       <use xlink:href="#mdf6791d5f1" x="47.02625" y="231.290306" style="stroke: #000000; stroke-width: 0.6"/>
      </g>
     </g>
    </g>
    <g id="ytick_9">
     <g id="line2d_10">
      <g>
       <use xlink:href="#mdf6791d5f1" x="47.02625" y="227.250166" style="stroke: #000000; stroke-width: 0.6"/>
      </g>
     </g>
    </g>
    <g id="ytick_10">
     <g id="line2d_11">
      <g>
       <use xlink:href="#mdf6791d5f1" x="47.02625" y="223.834277" style="stroke: #000000; stroke-width: 0.6"/>
      </g>
     </g>
    </g>
    <g id="ytick_11">
     <g id="line2d_12">
      <g>
       <use xlink:href="#mdf6791d5f1" x="47.02625" y="220.875298" style="stroke: #000000; stroke-width: 0.6"/>
      </g>
     </g>
    </g>
    <g id="ytick_12">
     <g id="line2d_13">
      <g>
       <use xlink:href="#mdf6791d5f1" x="47.02625" y="218.265295" style="stroke: #000000; stroke-width: 0.6"/>
      </g>
     </g>
    </g>
    <g id="ytick_13">
     <g id="line2d_14">
      <g>
       <use xlink:href="#mdf6791d5f1" x="47.02625" y="200.570828" style="stroke: #000000; stroke-width: 0.6"/>
      </g>
     </g>
    </g>
    <g id="ytick_14">
     <g id="line2d_15">
      <g>
       <use xlink:href="#mdf6791d5f1" x="47.02625" y="191.585957" style="stroke: #000000; stroke-width: 0.6"/>
      </g>
     </g>
    </g>
    <g id="ytick_15">
     <g id="line2d_16">
      <g>
       <use xlink:href="#mdf6791d5f1" x="47.02625" y="185.211089" style="stroke: #000000; stroke-width: 0.6"/>
      </g>
     </g>
    </g>
    <g id="ytick_16">
     <g id="line2d_17">
      <g>
       <use xlink:href="#mdf6791d5f1" x="47.02625" y="180.266358" style="stroke: #000000; stroke-width: 0.6"/>
      </g>
     </g>
    </g>
    <g id="ytick_17">
     <g id="line2d_18">
      <g>
       <use xlink:href="#mdf6791d5f1" x="47.02625" y="176.226218" style="stroke: #000000; stroke-width: 0.6"/>
      </g>
     </g>
    </g>
    <g id="ytick_18">
     <g id="line2d_19">
      <g>
       <use xlink:href="#mdf6791d5f1" x="47.02625" y="172.810329" style="stroke: #000000; stroke-width: 0.6"/>
      </g>
     </g>
    </g>
    <g id="ytick_19">
     <g id="line2d_20">
      <g>
       <use xlink:href="#mdf6791d5f1" x="47.02625" y="169.851351" style="stroke: #000000; stroke-width: 0.6"/>
      </g>
     </g>
    </g>
    <g id="ytick_20">
     <g id="line2d_21">
      <g>
       <use xlink:href="#mdf6791d5f1" x="47.02625" y="167.241347" style="stroke: #000000; stroke-width: 0.6"/>
      </g>
     </g>
    </g>
    <g id="ytick_21">
     <g id="line2d_22">
      <g>
       <use xlink:href="#mdf6791d5f1" x="47.02625" y="149.54688" style="stroke: #000000; stroke-width: 0.6"/>
      </g>
     </g>
    </g>
    <g id="ytick_22">
     <g id="line2d_23">
      <g>
       <use xlink:href="#mdf6791d5f1" x="47.02625" y="140.562009" style="stroke: #000000; stroke-width: 0.6"/>
      </g>
     </g>
    </g>
    <g id="ytick_23">
     <g id="line2d_24">
      <g>
       <use xlink:href="#mdf6791d5f1" x="47.02625" y="134.187142" style="stroke: #000000; stroke-width: 0.6"/>
      </g>
     </g>
    </g>
    <g id="ytick_24">
     <g id="line2d_25">
      <g>
       <use xlink:href="#mdf6791d5f1" x="47.02625" y="129.24241" style="stroke: #000000; stroke-width: 0.6"/>
      </g>
     </g>
    </g>
    <g id="ytick_25">
     <g id="line2d_26">
      <g>
       <use xlink:href="#mdf6791d5f1" x="47.02625" y="125.202271" style="stroke: #000000; stroke-width: 0.6"/>
      </g>
     </g>
    </g>
    <g id="ytick_26">
     <g id="line2d_27">
      <g>
       <use xlink:href="#mdf6791d5f1" x="47.02625" y="121.786381" style="stroke: #000000; stroke-width: 0.6"/>
      </g>
     </g>
    </g>
    <g id="ytick_27">
     <g id="line2d_28">
      <g>
       <use xlink:href="#mdf6791d5f1" x="47.02625" y="118.827403" style="stroke: #000000; stroke-width: 0.6"/>
      </g>
     </g>
    </g>
    <g id="ytick_28">
     <g id="line2d_29">
      <g>
       <use xlink:href="#mdf6791d5f1" x="47.02625" y="116.217399" style="stroke: #000000; stroke-width: 0.6"/>
      </g>
     </g>
    </g>
    <g id="ytick_29">
     <g id="line2d_30">
      <g>
       <use xlink:href="#mdf6791d5f1" x="47.02625" y="98.522933" style="stroke: #000000; stroke-width: 0.6"/>
      </g>
     </g>
    </g>
    <g id="ytick_30">
     <g id="line2d_31">
      <g>
       <use xlink:href="#mdf6791d5f1" x="47.02625" y="89.538062" style="stroke: #000000; stroke-width: 0.6"/>
      </g>
     </g>
    </g>
    <g id="ytick_31">
     <g id="line2d_32">
      <g>
       <use xlink:href="#mdf6791d5f1" x="47.02625" y="83.163194" style="stroke: #000000; stroke-width: 0.6"/>
      </g>
     </g>
    </g>
    <g id="ytick_32">
     <g id="line2d_33">
      <g>
       <use xlink:href="#mdf6791d5f1" x="47.02625" y="78.218463" style="stroke: #000000; stroke-width: 0.6"/>
      </g>
     </g>
    </g>
    <g id="ytick_33">
     <g id="line2d_34">
      <g>
       <use xlink:href="#mdf6791d5f1" x="47.02625" y="74.178323" style="stroke: #000000; stroke-width: 0.6"/>
      </g>
     </g>
    </g>
    <g id="ytick_34">
     <g id="line2d_35">
      <g>
       <use xlink:href="#mdf6791d5f1" x="47.02625" y="70.762433" style="stroke: #000000; stroke-width: 0.6"/>
      </g>
     </g>
    </g>
    <g id="ytick_35">
     <g id="line2d_36">
      <g>
       <use xlink:href="#mdf6791d5f1" x="47.02625" y="67.803455" style="stroke: #000000; stroke-width: 0.6"/>
      </g>
     </g>
    </g>
    <g id="ytick_36">
     <g id="line2d_37">
      <g>
       <use xlink:href="#mdf6791d5f1" x="47.02625" y="65.193452" style="stroke: #000000; stroke-width: 0.6"/>
      </g>
     </g>
    </g>
    <g id="ytick_37">
     <g id="line2d_38">
      <g>
       <use xlink:href="#mdf6791d5f1" x="47.02625" y="47.498985" style="stroke: #000000; stroke-width: 0.6"/>
      </g>
     </g>
    </g>
    <g id="ytick_38">
     <g id="line2d_39">
      <g>
       <use xlink:href="#mdf6791d5f1" x="47.02625" y="38.514114" style="stroke: #000000; stroke-width: 0.6"/>
      </g>
     </g>
    </g>
    <g id="ytick_39">
     <g id="line2d_40">
      <g>
       <use xlink:href="#mdf6791d5f1" x="47.02625" y="32.139246" style="stroke: #000000; stroke-width: 0.6"/>
      </g>
     </g>
    </g>
    <g id="ytick_40">
     <g id="line2d_41">
      <g>
       <use xlink:href="#mdf6791d5f1" x="47.02625" y="27.194515" style="stroke: #000000; stroke-width: 0.6"/>
      </g>
     </g>
    </g>
    <g id="ytick_41">
     <g id="line2d_42">
      <g>
       <use xlink:href="#mdf6791d5f1" x="47.02625" y="23.154375" style="stroke: #000000; stroke-width: 0.6"/>
      </g>
     </g>
    </g>
    <g id="text_5">
     <!-- 温度 (K) -->
     <g style="fill: #64748b" transform="translate(14.63625 159.282891) rotate(-90) scale(0.09 -0.09)">
      <defs>
       <path id="ArialUnicodeMS-6e29" d="M 2138 4116 
L 1753 3756 
Q 1431 4325 672 4684 
L 1019 4997 
Q 1838 4634 2138 4116 
z
M 5281 2444 
L 2272 2444 
L 2272 4909 
L 5281 4909 
L 5281 2444 
z
M 4794 3928 
L 4794 4441 
L 2759 4441 
L 2759 3928 
L 4794 3928 
z
M 4794 2913 
L 4794 3463 
L 2759 3463 
L 2759 2913 
L 4794 2913 
z
M 1778 2875 
L 1403 2516 
Q 1028 3053 231 3378 
L 556 3719 
Q 1250 3509 1778 2875 
z
M 1753 2075 
Q 1438 447 716 -391 
L 244 -134 
Q 1013 722 1338 2278 
L 1753 2075 
z
M 6034 -275 
L 1528 -275 
L 1528 191 
L 1947 191 
L 1947 2059 
L 5606 2059 
L 5606 191 
L 6034 191 
L 6034 -275 
z
M 5119 191 
L 5119 1594 
L 4544 1594 
L 4544 191 
L 5119 191 
z
M 4056 191 
L 4056 1594 
L 3488 1594 
L 3488 191 
L 4056 191 
z
M 3003 191 
L 3003 1594 
L 2431 1594 
L 2431 191 
L 3003 191 
z
" transform="scale(0.015625)"/>
       <path id="ArialUnicodeMS-5ea6" d="M 5913 4269 
L 1363 4269 
L 1363 2278 
Q 1363 1144 1180 528 
Q 997 -88 684 -434 
L 294 -147 
Q 669 378 773 940 
Q 878 1503 878 2350 
L 878 4738 
L 3200 4738 
L 3200 5288 
L 3706 5288 
L 3706 4738 
L 5913 4738 
L 5913 4269 
z
M 5778 3194 
L 4728 3194 
L 4728 2303 
L 2350 2303 
L 2350 3194 
L 1472 3194 
L 1472 3659 
L 2350 3659 
L 2350 4147 
L 2828 4147 
L 2828 3659 
L 4244 3659 
L 4244 4147 
L 4728 4147 
L 4728 3659 
L 5778 3659 
L 5778 3194 
z
M 4244 2747 
L 4244 3194 
L 2834 3194 
L 2834 2747 
L 4244 2747 
z
M 6081 72 
L 5819 -397 
Q 4484 -216 3531 263 
Q 2494 -234 1388 -397 
L 1088 44 
Q 2078 134 3034 550 
Q 2509 934 2113 1528 
L 1625 1528 
L 1625 1972 
L 5159 1972 
L 5159 1544 
Q 4819 1025 4044 538 
Q 4963 166 6081 72 
z
M 4544 1528 
L 2700 1528 
Q 3125 1038 3531 781 
Q 4194 1159 4544 1528 
z
" transform="scale(0.015625)"/>
       <path id="ArialUnicodeMS-20" transform="scale(0.015625)"/>
       <path id="ArialUnicodeMS-28" d="M 1900 -1344 
L 1497 -1344 
Q 978 -681 681 103 
Q 384 888 384 1656 
Q 384 2528 700 3275 
Q 1016 4022 1497 4659 
L 1900 4659 
Q 1344 3747 1155 3059 
Q 966 2372 966 1663 
Q 966 153 1900 -1344 
z
" transform="scale(0.015625)"/>
       <path id="ArialUnicodeMS-4b" d="M 4256 0 
L 3456 0 
L 1831 2316 
L 1075 1588 
L 1075 0 
L 469 0 
L 469 4581 
L 1075 4581 
L 1075 2309 
L 3353 4581 
L 4172 4581 
L 2253 2725 
L 4256 0 
z
" transform="scale(0.015625)"/>
       <path id="ArialUnicodeMS-29" d="M 634 4659 
Q 1153 3997 1450 3212 
Q 1747 2428 1747 1656 
Q 1747 788 1431 41 
Q 1116 -706 634 -1344 
L 231 -1344 
Q 788 -431 977 255 
Q 1166 941 1166 1650 
Q 1166 3163 231 4659 
L 634 4659 
z
" transform="scale(0.015625)"/>
      </defs>
      <use xlink:href="#ArialUnicodeMS-6e29"/>
      <use xlink:href="#ArialUnicodeMS-5ea6" x="100"/>
      <use xlink:href="#ArialUnicodeMS-20" x="200"/>
      <use xlink:href="#ArialUnicodeMS-28" x="227.783203"/>
      <use xlink:href="#ArialUnicodeMS-4b" x="261.083984"/>
      <use xlink:href="#ArialUnicodeMS-29" x="327.783203"/>
     </g>
    </g>
   </g>
   <g id="line2d_43">
    <path d="M 151.872371 38.514114 
L 169.346724 38.514114 
" clip-path="url(#p6ddcbf3eee)" style="fill: none; stroke: #ef4444; stroke-width: 1.5; stroke-linecap: square"/>
   </g>
   <g id="line2d_44">
    <path d="M 151.872371 68.650415 
L 169.346724 68.650415 
" clip-path="url(#p6ddcbf3eee)" style="fill: none; stroke: #f97316; stroke-width: 1.5; stroke-linecap: square"/>
   </g>
   <g id="line2d_45">
    <path d="M 151.872371 134.187142 
L 169.346724 134.187142 
" clip-path="url(#p6ddcbf3eee)" style="fill: none; stroke: #eab308; stroke-width: 1.5; stroke-linecap: square"/>
   </g>
   <g id="line2d_46">
    <path d="M 151.872371 215.930567 
L 169.346724 215.930567 
" clip-path="url(#p6ddcbf3eee)" style="fill: none; stroke: #22c55e; stroke-width: 1.5; stroke-linecap: square"/>
   </g>
   <g id="line2d_47">
    <path d="M 151.872371 251.594776 
L 169.346724 251.594776 
" clip-path="url(#p6ddcbf3eee)" style="fill: none; stroke: #3b82f6; stroke-width: 1.5; stroke-linecap: square"/>
   </g>
   <g id="patch_3">
    <path d="M 47.02625 262.914375 
L 47.02625 23.154375 
" style="fill: none; stroke: #cbd5e1; stroke-width: 0.8; stroke-linejoin: miter; stroke-linecap: square"/>
   </g>
   <g id="text_6">
    <!-- 300 K  室温 -->
    <g style="fill: #334155" transform="translate(176.336466 40.838645) scale(0.09 -0.09)">
     <defs>
      <path id="ArialUnicodeMS-33" d="M 2425 2478 
Q 2850 2397 3067 2067 
Q 3284 1738 3284 1350 
Q 3284 725 2829 323 
Q 2375 -78 1741 -78 
Q 1134 -78 740 275 
Q 347 628 281 1209 
L 844 1288 
Q 928 834 1151 609 
Q 1375 384 1741 384 
Q 2134 384 2407 661 
Q 2681 938 2681 1338 
Q 2681 1722 2432 1975 
Q 2184 2228 1784 2228 
Q 1622 2228 1388 2169 
L 1453 2663 
Q 1678 2663 1809 2684 
Q 1941 2706 2103 2790 
Q 2266 2875 2372 3033 
Q 2478 3191 2478 3425 
Q 2478 3766 2251 3953 
Q 2025 4141 1728 4141 
Q 1388 4141 1173 3925 
Q 959 3709 903 3309 
L 341 3413 
Q 450 4009 823 4306 
Q 1197 4603 1716 4603 
Q 2288 4603 2670 4258 
Q 3053 3913 3053 3413 
Q 3053 2772 2425 2491 
L 2425 2478 
z
" transform="scale(0.015625)"/>
      <path id="ArialUnicodeMS-5ba4" d="M 5722 3231 
L 5234 3231 
L 5234 4250 
L 1166 4250 
L 1166 3194 
L 678 3194 
L 678 4716 
L 2919 4716 
L 2919 5281 
L 3431 5281 
L 3431 4716 
L 5722 4716 
L 5722 3231 
z
M 5466 2022 
L 5063 1759 
L 4738 2131 
L 1216 1931 
L 1075 2406 
L 1959 2431 
Q 2303 2881 2566 3397 
L 1409 3397 
L 1409 3866 
L 4997 3866 
L 4997 3397 
L 3116 3397 
Q 2803 2794 2522 2444 
L 4325 2516 
L 3781 2919 
L 4197 3144 
Q 4953 2728 5466 2022 
z
M 5806 -225 
L 594 -225 
L 594 244 
L 2963 244 
L 2963 916 
L 1088 916 
L 1088 1381 
L 2963 1381 
L 2963 1931 
L 3450 1931 
L 3450 1381 
L 5319 1381 
L 5319 916 
L 3450 916 
L 3450 244 
L 5806 244 
L 5806 -225 
z
" transform="scale(0.015625)"/>
     </defs>
     <use xlink:href="#ArialUnicodeMS-33"/>
     <use xlink:href="#ArialUnicodeMS-30" x="55.615234"/>
     <use xlink:href="#ArialUnicodeMS-30" x="111.230469"/>
     <use xlink:href="#ArialUnicodeMS-20" x="166.845703"/>
     <use xlink:href="#ArialUnicodeMS-4b" x="194.628906"/>
     <use xlink:href="#ArialUnicodeMS-20" x="261.328125"/>
     <use xlink:href="#ArialUnicodeMS-20" x="289.111328"/>
     <use xlink:href="#ArialUnicodeMS-5ba4" x="316.894531"/>
     <use xlink:href="#ArialUnicodeMS-6e29" x="416.894531"/>
    </g>
   </g>
   <g id="text_7">
    <!-- 77 K  液氮预冷 -->
    <g style="fill: #334155" transform="translate(176.336466 71.034009) scale(0.09 -0.09)">
     <defs>
      <path id="ArialUnicodeMS-37" d="M 3272 4084 
Q 2597 3344 2103 2253 
Q 1609 1163 1522 0 
L 947 0 
Q 969 934 1408 2051 
Q 1847 3169 2547 3975 
L 306 3975 
L 306 4519 
L 3272 4519 
L 3272 4084 
z
" transform="scale(0.015625)"/>
      <path id="ArialUnicodeMS-6db2" d="M 5953 4159 
L 1906 4159 
L 1906 4628 
L 3669 4628 
L 3669 5369 
L 4153 5369 
L 4153 4628 
L 5953 4628 
L 5953 4159 
z
M 1844 4269 
L 1528 3903 
Q 1091 4525 550 4716 
L 856 5069 
Q 1347 4872 1844 4269 
z
M 3231 3944 
Q 3166 3628 2934 3156 
L 2700 2694 
L 2700 -434 
L 2222 -434 
L 2222 2022 
Q 2097 1878 1894 1728 
L 1484 2047 
Q 2338 2575 2828 4134 
L 3231 3944 
z
M 6150 -13 
L 5806 -422 
Q 4891 -34 4447 447 
Q 3866 -106 3078 -422 
L 2741 -6 
Q 3725 369 4122 806 
Q 3809 1222 3566 1831 
Q 3375 1531 3200 1338 
L 2747 1581 
Q 3606 2431 3809 4128 
L 4294 4013 
Q 4275 3856 4178 3469 
L 5606 3469 
Q 5513 1909 4744 813 
Q 5191 347 6150 -13 
z
M 5100 3003 
L 4091 3003 
Q 3997 2713 3853 2356 
Q 3997 1859 4422 1209 
Q 4578 1363 4716 1716 
Q 4463 2166 3944 2375 
L 4325 2713 
Q 4653 2525 4903 2188 
Q 5031 2509 5100 3003 
z
M 1697 2875 
L 1350 2528 
Q 1038 2994 331 3419 
L 666 3763 
Q 1188 3547 1697 2875 
z
M 1625 1831 
Q 1434 622 806 -294 
L 353 -72 
Q 997 722 1209 1997 
L 1625 1831 
z
" transform="scale(0.015625)"/>
      <path id="ArialUnicodeMS-6c2e" d="M 5953 4341 
L 1625 4341 
Q 1309 3722 672 3163 
L 306 3488 
Q 1372 4441 1459 5344 
L 1888 5153 
Q 1881 4972 1791 4794 
L 5953 4794 
L 5953 4341 
z
M 5594 3725 
L 1556 3725 
L 1556 4159 
L 5594 4159 
L 5594 3725 
z
M 6138 831 
Q 6166 422 6000 25 
Q 5834 -372 5625 -372 
Q 5269 -372 5031 217 
Q 4794 806 4794 1928 
L 4800 2681 
Q 4800 2891 4794 3047 
L 1056 3047 
L 1056 3494 
L 5306 3494 
Q 5278 2678 5278 2256 
Q 5278 1119 5420 664 
Q 5563 209 5609 209 
Q 5653 209 5684 1019 
L 6138 831 
z
M 4703 1703 
L 4481 1281 
Q 3778 1747 2700 1869 
Q 2447 1506 1791 1275 
L 2009 1147 
Q 1869 681 1422 347 
L 959 609 
Q 1441 891 1575 1197 
Q 1209 1100 763 1044 
L 563 1544 
Q 1497 1584 2017 1895 
Q 2538 2206 2553 3022 
L 3003 2925 
Q 3009 2603 2900 2278 
Q 3884 2181 4703 1703 
z
M 2009 2803 
Q 1881 2284 1491 2009 
L 972 2253 
Q 1441 2478 1606 3009 
L 2009 2803 
z
M 4434 2791 
Q 4219 2391 3828 2138 
L 3347 2425 
Q 3778 2588 4050 2994 
L 4434 2791 
z
M 4916 -44 
L 4672 -459 
Q 3744 172 2644 269 
Q 2034 -431 628 -506 
L 428 0 
Q 1553 19 2084 384 
Q 2616 750 2584 1606 
L 3028 1491 
Q 3034 1022 2894 678 
Q 4016 528 4916 -44 
z
M 4319 1241 
Q 4103 847 3731 588 
L 3256 844 
Q 3656 1025 3928 1466 
L 4319 1241 
z
" transform="scale(0.015625)"/>
      <path id="ArialUnicodeMS-9884" d="M 5888 4519 
L 4538 4519 
Q 4450 4066 4306 3828 
L 5594 3828 
L 5594 872 
L 5106 872 
L 5106 3359 
L 3431 3359 
L 3431 825 
L 2944 825 
L 2944 3828 
L 3725 3828 
Q 3906 4113 4031 4519 
L 2700 4519 
L 2700 4984 
L 5888 4984 
L 5888 4519 
z
M 2747 2822 
Q 2747 2788 2650 2513 
Q 2553 2238 2406 1953 
Q 2288 1997 1947 2175 
Q 2159 2513 2241 2759 
L 1728 2759 
L 1728 63 
Q 1728 -141 1609 -275 
Q 1491 -409 1306 -409 
L 703 -409 
L 519 109 
L 1106 84 
Q 1156 84 1198 134 
Q 1241 184 1241 238 
L 1241 2759 
L 319 2759 
L 319 3225 
L 1619 3225 
Q 1413 3463 594 3794 
L 916 4153 
Q 1138 4094 1281 4006 
L 1747 4447 
L 391 4447 
L 391 4916 
L 2484 4916 
L 2484 4494 
Q 2016 3963 1741 3750 
Q 1981 3588 2181 3391 
L 2053 3225 
L 2747 3225 
L 2747 2822 
z
M 4494 1747 
Q 4494 1088 4069 481 
Q 3644 -125 2688 -409 
L 2369 38 
Q 4003 384 4019 1931 
L 4031 3122 
L 4494 3053 
L 4494 1747 
z
M 5991 -13 
L 5663 -416 
Q 5234 169 4325 594 
L 4609 966 
Q 5506 559 5991 -13 
z
" transform="scale(0.015625)"/>
      <path id="ArialUnicodeMS-51b7" d="M 6181 2925 
L 5844 2528 
Q 5331 2769 4813 3213 
L 4813 2956 
L 2772 2956 
L 2772 3150 
Q 2453 2850 1863 2509 
L 1503 2913 
Q 3006 3650 3688 5434 
L 4147 5247 
L 4056 5019 
Q 4834 3566 6181 2925 
z
M 4628 3419 
Q 4113 3944 3816 4506 
Q 3534 3947 3028 3419 
L 4628 3419 
z
M 2113 4109 
L 1747 3719 
Q 1378 4272 550 4728 
L 856 5100 
Q 1666 4706 2113 4109 
z
M 1791 2203 
Q 1700 1566 1398 837 
Q 1097 109 788 -250 
L 347 19 
Q 653 369 954 1070 
Q 1256 1772 1375 2413 
L 1791 2203 
z
M 5403 672 
Q 5403 469 5262 334 
Q 5122 200 4922 206 
L 4269 219 
L 4147 678 
L 4728 666 
Q 4891 666 4891 819 
L 4891 1875 
L 3469 1875 
L 3469 -453 
L 2956 -453 
L 2956 1875 
L 2156 1875 
L 2156 2338 
L 5403 2338 
L 5403 672 
z
" transform="scale(0.015625)"/>
     </defs>
     <use xlink:href="#ArialUnicodeMS-37"/>
     <use xlink:href="#ArialUnicodeMS-37" x="55.615234"/>
     <use xlink:href="#ArialUnicodeMS-20" x="111.230469"/>
     <use xlink:href="#ArialUnicodeMS-4b" x="139.013672"/>
     <use xlink:href="#ArialUnicodeMS-20" x="205.712891"/>
     <use xlink:href="#ArialUnicodeMS-20" x="233.496094"/>
     <use xlink:href="#ArialUnicodeMS-6db2" x="261.279297"/>
     <use xlink:href="#ArialUnicodeMS-6c2e" x="361.279297"/>
     <use xlink:href="#ArialUnicodeMS-9884" x="461.279297"/>
     <use xlink:href="#ArialUnicodeMS-51b7" x="561.279297"/>
    </g>
   </g>
   <g id="text_8">
    <!-- 4 K  液氦 / 4K CMOS -->
    <g style="fill: #334155" transform="translate(176.336466 136.560189) scale(0.09 -0.09)">
     <defs>
      <path id="ArialUnicodeMS-34" d="M 3263 1094 
L 2644 1094 
L 2644 0 
L 2081 0 
L 2081 1094 
L 97 1094 
L 97 1613 
L 2181 4581 
L 2644 4581 
L 2644 1613 
L 3263 1613 
L 3263 1094 
z
M 2081 1613 
L 2081 3681 
L 2069 3681 
L 647 1613 
L 2081 1613 
z
" transform="scale(0.015625)"/>
      <path id="ArialUnicodeMS-6c26" d="M 5863 4416 
L 1759 4416 
Q 1406 3806 684 3169 
L 263 3494 
Q 834 4034 1011 4221 
Q 1188 4409 1352 4721 
Q 1516 5034 1606 5491 
Q 1719 5463 1862 5400 
Q 2006 5338 2059 5319 
Q 2028 5066 1966 4891 
L 5856 4891 
L 5863 4416 
z
M 5613 3769 
L 1663 3769 
L 1656 4238 
L 5613 4238 
L 5613 3769 
z
M 6222 872 
Q 6172 288 6023 -51 
Q 5875 -391 5631 -391 
Q 5388 -391 5238 -158 
Q 5088 75 4913 695 
Q 4738 1316 4756 2663 
L 4763 3109 
L 2650 3109 
Q 2753 3013 2900 2747 
L 4628 2747 
L 4628 2284 
L 2650 2284 
Q 2434 1963 2075 1772 
L 2088 1759 
L 3128 1831 
Q 3263 1941 3519 2234 
L 3916 1997 
Q 3366 1284 2514 889 
Q 1663 494 819 409 
L 500 856 
Q 1478 969 2356 1331 
L 2344 1344 
Q 1963 1278 1234 1228 
Q 1131 1363 947 1656 
Q 1656 1922 2003 2284 
L 544 2284 
L 544 2747 
L 2369 2747 
Q 2313 2847 2034 3053 
L 2228 3103 
L 2228 3116 
L 1113 3116 
L 1113 3584 
L 5281 3584 
L 5259 2425 
Q 5244 1331 5409 779 
Q 5575 228 5616 228 
Q 5641 228 5684 506 
Q 5728 784 5728 1088 
L 6222 872 
z
M 5006 -72 
L 4641 -416 
Q 4000 241 3263 306 
Q 2131 -328 756 -403 
L 403 84 
Q 2581 41 4084 1544 
L 4494 1300 
Q 4281 1053 3756 634 
Q 4463 456 5006 -72 
z
" transform="scale(0.015625)"/>
      <path id="ArialUnicodeMS-2f" d="M 1778 4581 
L 453 -153 
L 0 -153 
L 1325 4581 
L 1778 4581 
z
" transform="scale(0.015625)"/>
      <path id="ArialUnicodeMS-43" d="M 4372 1453 
Q 4172 681 3673 301 
Q 3175 -78 2478 -78 
Q 1353 -78 839 626 
Q 325 1331 325 2322 
Q 325 3419 929 4039 
Q 1534 4659 2484 4659 
Q 3153 4659 3628 4318 
Q 4103 3978 4294 3322 
L 3700 3181 
Q 3550 3659 3244 3900 
Q 2938 4141 2478 4141 
Q 1728 4141 1340 3648 
Q 953 3156 953 2328 
Q 953 1372 1361 906 
Q 1769 441 2425 441 
Q 2963 441 3298 731 
Q 3634 1022 3769 1606 
L 4372 1453 
z
" transform="scale(0.015625)"/>
      <path id="ArialUnicodeMS-4d" d="M 4844 0 
L 4269 0 
L 4269 3834 
L 4256 3834 
L 2938 0 
L 2394 0 
L 1081 3897 
L 1063 3897 
L 1063 0 
L 488 0 
L 488 4581 
L 1394 4581 
L 2478 1338 
Q 2659 797 2688 659 
L 2700 659 
Q 2784 925 2944 1394 
L 4038 4581 
L 4844 4581 
L 4844 0 
z
" transform="scale(0.015625)"/>
      <path id="ArialUnicodeMS-4f" d="M 2497 4659 
Q 3459 4659 4071 4006 
Q 4684 3353 4684 2284 
Q 4684 1219 4068 570 
Q 3453 -78 2497 -78 
Q 1506 -78 903 594 
Q 300 1266 300 2234 
Q 300 3363 911 4011 
Q 1522 4659 2497 4659 
z
M 2491 441 
Q 3188 441 3620 928 
Q 4053 1416 4056 2284 
Q 4056 3178 3614 3659 
Q 3172 4141 2503 4141 
Q 1816 4141 1372 3669 
Q 928 3197 928 2222 
Q 928 1425 1362 933 
Q 1797 441 2491 441 
z
" transform="scale(0.015625)"/>
      <path id="ArialUnicodeMS-53" d="M 3213 3238 
Q 3175 3675 2897 3895 
Q 2619 4116 2100 4116 
Q 1631 4116 1337 3941 
Q 1044 3766 1044 3431 
Q 1044 3134 1270 2989 
Q 1497 2844 2138 2700 
Q 2706 2575 3065 2444 
Q 3425 2313 3681 2036 
Q 3938 1759 3938 1294 
Q 3938 703 3467 312 
Q 2997 -78 2241 -78 
Q 1275 -78 795 353 
Q 316 784 288 1472 
L 863 1522 
Q 903 972 1287 720 
Q 1672 469 2216 469 
Q 2725 469 3039 678 
Q 3353 888 3353 1247 
Q 3353 1622 3025 1794 
Q 2697 1966 1923 2133 
Q 1150 2300 809 2603 
Q 469 2906 469 3391 
Q 469 3941 900 4300 
Q 1331 4659 2075 4659 
Q 2838 4659 3302 4301 
Q 3766 3944 3794 3284 
L 3213 3238 
z
" transform="scale(0.015625)"/>
     </defs>
     <use xlink:href="#ArialUnicodeMS-34"/>
     <use xlink:href="#ArialUnicodeMS-20" x="55.615234"/>
     <use xlink:href="#ArialUnicodeMS-4b" x="83.398438"/>
     <use xlink:href="#ArialUnicodeMS-20" x="150.097656"/>
     <use xlink:href="#ArialUnicodeMS-20" x="177.880859"/>
     <use xlink:href="#ArialUnicodeMS-6db2" x="205.664062"/>
     <use xlink:href="#ArialUnicodeMS-6c26" x="305.664062"/>
     <use xlink:href="#ArialUnicodeMS-20" x="405.664062"/>
     <use xlink:href="#ArialUnicodeMS-2f" x="433.447266"/>
     <use xlink:href="#ArialUnicodeMS-20" x="461.230469"/>
     <use xlink:href="#ArialUnicodeMS-34" x="489.013672"/>
     <use xlink:href="#ArialUnicodeMS-4b" x="544.628906"/>
     <use xlink:href="#ArialUnicodeMS-20" x="611.328125"/>
     <use xlink:href="#ArialUnicodeMS-43" x="639.111328"/>
     <use xlink:href="#ArialUnicodeMS-4d" x="711.328125"/>
     <use xlink:href="#ArialUnicodeMS-4f" x="794.628906"/>
     <use xlink:href="#ArialUnicodeMS-53" x="872.412109"/>
    </g>
   </g>
   <g id="text_9">
    <!-- 100 mK  预冷级 -->
    <g style="fill: #334155" transform="translate(176.336466 218.276895) scale(0.09 -0.09)">
     <defs>
      <path id="ArialUnicodeMS-6d" d="M 4922 0 
L 4359 0 
L 4359 2094 
Q 4359 2325 4328 2489 
Q 4297 2653 4167 2779 
Q 4038 2906 3763 2906 
Q 3431 2906 3190 2675 
Q 2950 2444 2950 1925 
L 2950 0 
L 2388 0 
L 2388 2156 
Q 2388 2588 2236 2747 
Q 2084 2906 1806 2906 
Q 1444 2906 1211 2656 
Q 978 2406 978 1722 
L 978 0 
L 416 0 
L 416 3316 
L 922 3316 
L 922 2853 
L 934 2853 
Q 1272 3391 1925 3391 
Q 2291 3391 2527 3245 
Q 2763 3100 2869 2809 
Q 3238 3391 3891 3391 
Q 4406 3391 4664 3112 
Q 4922 2834 4922 2278 
L 4922 0 
z
" transform="scale(0.015625)"/>
      <path id="ArialUnicodeMS-7ea7" d="M 2584 1791 
Q 1375 1497 653 1275 
L 422 1703 
Q 1069 2350 1338 2766 
Q 966 2675 641 2572 
L 397 3009 
Q 897 3831 1472 5300 
L 1906 5094 
Q 1350 3816 978 3150 
L 1650 3291 
Q 1850 3588 2081 4056 
L 2528 3853 
Q 1894 2559 1203 1919 
L 1216 1906 
L 2584 2278 
L 2584 1791 
z
M 6022 -78 
L 5650 -453 
Q 4953 -153 4447 506 
Q 3813 -178 3334 -434 
L 3003 -25 
Q 3594 288 4128 909 
Q 3591 1684 3397 2259 
L 3384 2259 
Q 3384 1213 3157 589 
Q 2931 -34 2731 -269 
L 2591 -434 
L 2131 -134 
Q 2438 216 2622 620 
Q 2806 1025 2856 1537 
Q 2906 2050 2906 3003 
L 2906 4531 
L 2375 4531 
L 2375 4997 
L 5319 4997 
Q 5225 4247 4781 3378 
L 5606 3378 
Q 5328 1650 4769 897 
Q 5147 353 6022 -78 
z
M 5050 2913 
L 4191 2913 
L 4191 3328 
Q 4513 3784 4728 4531 
L 3391 4531 
L 3391 3681 
Q 3484 3213 3795 2503 
Q 4106 1794 4453 1300 
Q 4828 1866 5050 2913 
z
M 2584 738 
L 678 72 
L 434 513 
Q 1781 956 2584 1209 
L 2584 738 
z
" transform="scale(0.015625)"/>
     </defs>
     <use xlink:href="#ArialUnicodeMS-31"/>
     <use xlink:href="#ArialUnicodeMS-30" x="55.615234"/>
     <use xlink:href="#ArialUnicodeMS-30" x="111.230469"/>
     <use xlink:href="#ArialUnicodeMS-20" x="166.845703"/>
     <use xlink:href="#ArialUnicodeMS-6d" x="194.628906"/>
     <use xlink:href="#ArialUnicodeMS-4b" x="277.929688"/>
     <use xlink:href="#ArialUnicodeMS-20" x="344.628906"/>
     <use xlink:href="#ArialUnicodeMS-20" x="372.412109"/>
     <use xlink:href="#ArialUnicodeMS-9884" x="400.195312"/>
     <use xlink:href="#ArialUnicodeMS-51b7" x="500.195312"/>
     <use xlink:href="#ArialUnicodeMS-7ea7" x="600.195312"/>
    </g>
   </g>
   <g id="text_10">
    <!-- 20 mK  量子芯片 -->
    <g style="fill: #334155" transform="translate(176.336466 253.919307) scale(0.09 -0.09)">
     <defs>
      <path id="ArialUnicodeMS-91cf" d="M 5056 3378 
L 1313 3378 
L 1313 5050 
L 5056 5050 
L 5056 3378 
z
M 4569 4403 
L 4569 4609 
L 1797 4609 
L 1797 4403 
L 4569 4403 
z
M 4569 3794 
L 4569 4031 
L 1797 4031 
L 1797 3794 
L 4569 3794 
z
M 5797 2816 
L 581 2816 
L 581 3231 
L 5797 3231 
L 5797 2816 
z
M 6059 -191 
L 341 -191 
L 341 275 
L 2950 275 
L 2950 459 
L 897 459 
L 897 878 
L 2950 878 
L 2950 1044 
L 1125 1044 
L 1125 2669 
L 5269 2669 
L 5269 1044 
L 3438 1044 
L 3438 878 
L 5509 878 
L 5509 459 
L 3438 459 
L 3438 275 
L 6059 275 
L 6059 -191 
z
M 4781 2053 
L 4781 2253 
L 3438 2253 
L 3438 2053 
L 4781 2053 
z
M 2950 2053 
L 2950 2253 
L 1613 2253 
L 1613 2053 
L 2950 2053 
z
M 4781 1459 
L 4781 1697 
L 3438 1697 
L 3438 1459 
L 4781 1459 
z
M 2950 1459 
L 2950 1697 
L 1613 1697 
L 1613 1459 
L 2950 1459 
z
" transform="scale(0.015625)"/>
      <path id="ArialUnicodeMS-5b50" d="M 5894 2328 
L 3566 2328 
L 3566 191 
Q 3566 -31 3425 -172 
Q 3284 -313 3034 -313 
L 2247 -313 
L 2016 184 
L 2822 147 
Q 3078 138 3078 447 
L 3078 2328 
L 628 2328 
L 628 2797 
L 3078 2797 
L 3078 3438 
Q 3856 3947 4403 4569 
L 1416 4569 
L 1416 5038 
L 5100 5038 
L 5100 4678 
Q 4438 3794 3566 3200 
L 3566 2797 
L 5894 2797 
L 5894 2328 
z
" transform="scale(0.015625)"/>
      <path id="ArialUnicodeMS-82af" d="M 5913 4050 
L 4634 4050 
L 4634 3250 
L 4128 3250 
L 4128 4050 
L 2284 4050 
L 2284 3250 
L 1778 3250 
L 1778 4050 
L 475 4050 
L 475 4519 
L 1778 4519 
L 1778 5356 
L 2284 5356 
L 2284 4519 
L 4128 4519 
L 4128 5356 
L 4634 5356 
L 4634 4519 
L 5913 4519 
L 5913 4050 
z
M 4166 2194 
L 3744 1888 
Q 3363 2797 2553 3238 
L 2956 3525 
Q 3697 3181 4166 2194 
z
M 4856 1166 
Q 4713 275 4472 76 
Q 4231 -122 4056 -122 
L 2719 -122 
Q 2403 -122 2239 104 
Q 2075 331 2075 441 
L 2075 2809 
L 2578 2809 
L 2578 716 
Q 2578 509 2673 428 
Q 2769 347 3003 347 
L 3956 347 
Q 4275 347 4341 1325 
L 4856 1166 
z
M 6088 575 
L 5631 288 
Q 5316 1628 4544 2284 
L 4966 2522 
Q 5838 1747 6088 575 
z
M 1684 2369 
Q 1425 994 684 331 
L 213 594 
Q 878 1113 1247 2522 
L 1684 2369 
z
" transform="scale(0.015625)"/>
      <path id="ArialUnicodeMS-7247" d="M 5728 3181 
L 1881 3181 
L 1881 2113 
L 4622 2113 
L 4622 -434 
L 4134 -434 
L 4134 1644 
L 1888 1644 
Q 1803 259 684 -481 
L 306 -84 
Q 1394 541 1394 1825 
L 1394 4891 
L 1881 4891 
L 1881 3647 
L 3438 3647 
L 3438 5306 
L 3922 5306 
L 3922 3647 
L 5728 3647 
L 5728 3181 
z
" transform="scale(0.015625)"/>
     </defs>
     <use xlink:href="#ArialUnicodeMS-32"/>
     <use xlink:href="#ArialUnicodeMS-30" x="55.615234"/>
     <use xlink:href="#ArialUnicodeMS-20" x="111.230469"/>
     <use xlink:href="#ArialUnicodeMS-6d" x="139.013672"/>
     <use xlink:href="#ArialUnicodeMS-4b" x="222.314453"/>
     <use xlink:href="#ArialUnicodeMS-20" x="289.013672"/>
     <use xlink:href="#ArialUnicodeMS-20" x="316.796875"/>
     <use xlink:href="#ArialUnicodeMS-91cf" x="344.580078"/>
     <use xlink:href="#ArialUnicodeMS-5b50" x="444.580078"/>
     <use xlink:href="#ArialUnicodeMS-82af" x="544.580078"/>
     <use xlink:href="#ArialUnicodeMS-7247" x="644.580078"/>
    </g>
   </g>
   <g id="text_11">
    <!-- 稀释制冷机温度层级 -->
    <g style="fill: #334155" transform="translate(137.321078 15.154375) scale(0.11 -0.11)">
     <defs>
      <path id="ArialUnicodeMS-7a00" d="M 6150 2913 
L 4103 2913 
Q 3678 2366 3525 2234 
L 4172 2234 
L 4172 2834 
L 4659 2834 
L 4659 2234 
L 5778 2234 
L 5778 634 
Q 5756 438 5632 314 
Q 5509 191 5342 198 
Q 5175 206 4984 206 
L 4819 678 
Q 5003 659 5159 659 
Q 5294 659 5294 838 
L 5294 1766 
L 4659 1766 
L 4659 -428 
L 4172 -428 
L 4172 1766 
L 3566 1766 
L 3566 116 
L 3078 116 
L 3078 1869 
Q 2866 1684 2625 1538 
L 2216 1863 
L 2509 2069 
Q 2350 2316 1978 2547 
L 1978 -453 
L 1484 -453 
L 1484 2041 
Q 1375 1697 628 1038 
L 263 1388 
Q 1225 2188 1453 3256 
L 544 3256 
L 544 3725 
L 1491 3725 
L 1491 4378 
Q 1269 4297 659 4238 
L 403 4697 
Q 1566 4794 2338 5222 
L 2638 4909 
Q 2378 4681 1978 4550 
L 1978 3725 
L 2669 3725 
L 2669 3378 
L 3828 3378 
Q 4072 3797 4097 3922 
Q 3522 3597 2931 3438 
L 2606 3859 
Q 3475 4075 4031 4422 
Q 3503 4606 2841 4634 
L 3066 5063 
Q 3750 5013 4488 4769 
Q 4709 4925 5038 5416 
L 5428 5172 
Q 5163 4766 4953 4575 
Q 5378 4375 6022 3884 
L 5691 3494 
Q 5134 3963 4563 4231 
L 4325 4063 
L 4594 3963 
Q 4494 3622 4378 3378 
L 6150 3378 
L 6150 2913 
z
M 3488 2913 
L 2541 2913 
L 2541 3256 
L 1978 3256 
L 1978 2803 
L 2175 2925 
Q 2641 2731 2906 2344 
Q 3284 2644 3488 2913 
z
" transform="scale(0.015625)"/>
      <path id="ArialUnicodeMS-91ca" d="M 2803 1428 
L 2375 1184 
Q 2234 1694 1941 1959 
L 1941 -391 
L 1453 -391 
L 1453 1759 
L 1441 1759 
Q 1175 941 594 459 
L 300 831 
Q 984 1397 1388 2516 
L 459 2516 
L 459 2981 
L 1453 2981 
L 1453 4366 
Q 1319 4344 594 4300 
L 397 4769 
Q 1619 4747 2566 5159 
L 2759 4756 
Q 2384 4575 1941 4459 
L 1941 2981 
L 2731 2981 
L 2731 2516 
L 1941 2516 
L 1941 2194 
L 2150 2356 
Q 2506 2091 2803 1428 
z
M 5978 2841 
L 5644 2431 
Q 4834 2713 4378 3084 
Q 3738 2644 3078 2431 
L 2822 2847 
Q 3572 3081 4025 3397 
Q 3553 3884 3194 4575 
L 2881 4575 
L 2881 5044 
L 5644 5044 
L 5644 4659 
Q 5291 3934 4716 3391 
Q 5081 3103 5978 2841 
z
M 5050 4575 
L 3725 4575 
Q 4009 4028 4378 3706 
Q 4844 4184 5050 4575 
z
M 2900 4025 
Q 2744 3425 2381 3078 
L 2009 3316 
Q 2384 3688 2534 4225 
L 2900 4025 
z
M 1344 3291 
L 947 3084 
Q 803 3616 416 4006 
L 769 4206 
Q 1116 3888 1344 3291 
z
M 5947 825 
L 4622 825 
L 4622 -391 
L 4134 -391 
L 4134 825 
L 2753 825 
L 2753 1294 
L 4134 1294 
L 4134 1791 
L 2975 1791 
L 2975 2259 
L 4134 2259 
L 4134 2719 
L 4622 2719 
L 4622 2259 
L 5759 2259 
L 5759 1791 
L 4622 1791 
L 4622 1294 
L 5947 1294 
L 5947 825 
z
" transform="scale(0.015625)"/>
      <path id="ArialUnicodeMS-5236" d="M 4184 2766 
L 2638 2766 
L 2638 2203 
L 3988 2203 
L 3988 775 
Q 3959 578 3812 459 
Q 3666 341 3477 333 
Q 3288 325 3003 325 
L 2841 806 
L 3366 781 
Q 3500 819 3500 891 
L 3500 1734 
L 2638 1734 
L 2638 -434 
L 2150 -434 
L 2150 1734 
L 1344 1734 
L 1344 263 
L 856 263 
L 856 2203 
L 2150 2203 
L 2150 2766 
L 494 2766 
L 494 3231 
L 2150 3231 
L 2150 3897 
L 1428 3897 
Q 1163 3428 1044 3309 
L 603 3531 
Q 1059 4038 1319 5050 
L 1741 4884 
Q 1722 4716 1606 4341 
L 2150 4341 
L 2150 5350 
L 2638 5350 
L 2638 4341 
L 3841 4341 
L 3841 3897 
L 2638 3897 
L 2638 3231 
L 4184 3231 
L 4184 2766 
z
M 5850 213 
Q 5850 -81 5719 -234 
Q 5588 -388 5228 -397 
L 4653 -409 
L 4488 84 
Q 4997 38 5106 38 
Q 5363 38 5363 231 
L 5363 5306 
L 5850 5306 
L 5850 213 
z
M 4863 909 
L 4378 909 
L 4378 4513 
L 4863 4513 
L 4863 909 
z
" transform="scale(0.015625)"/>
      <path id="ArialUnicodeMS-673a" d="M 2919 1978 
L 2456 1691 
Q 2338 2156 2009 2584 
L 2009 -409 
L 1497 -409 
L 1497 2272 
Q 1250 1691 722 1147 
L 347 1472 
Q 1181 2325 1459 3616 
L 538 3616 
L 538 4078 
L 1503 4078 
L 1503 5294 
L 2009 5294 
L 2009 4078 
L 2894 4078 
L 2894 3616 
L 2009 3616 
L 2009 2981 
L 2209 3103 
Q 2716 2606 2919 1978 
z
M 6241 972 
Q 6075 153 5940 -12 
Q 5806 -178 5575 -178 
L 5141 -178 
Q 4666 -178 4666 213 
L 4666 4544 
L 3669 4544 
L 3669 1638 
Q 3669 491 2644 -469 
L 2209 -109 
Q 3181 769 3181 1703 
L 3181 5006 
L 5153 5006 
L 5153 366 
Q 5153 281 5269 281 
L 5472 281 
Q 5550 281 5615 412 
Q 5681 544 5791 1275 
L 6241 972 
z
" transform="scale(0.015625)"/>
      <path id="ArialUnicodeMS-5c42" d="M 5428 3622 
L 1416 3622 
Q 1416 2375 1378 1840 
Q 1341 1306 1155 736 
Q 969 166 556 -353 
Q 400 -238 178 -25 
Q 953 941 953 2463 
L 953 5050 
L 5428 5050 
L 5428 3622 
z
M 4972 4091 
L 4972 4581 
L 1409 4581 
L 1409 4091 
L 4972 4091 
z
M 5131 2888 
L 1959 2888 
L 1959 3353 
L 5131 3353 
L 5131 2888 
z
M 5869 1925 
L 3297 1925 
L 3297 1906 
L 3506 1766 
Q 3009 972 2450 422 
L 2463 409 
L 4384 641 
Q 4034 1044 3872 1178 
L 4256 1459 
Q 4981 784 5516 -109 
L 5075 -403 
Q 4931 -75 4716 219 
L 1959 -172 
L 1722 300 
Q 2566 1109 2975 1925 
L 1528 1925 
L 1528 2369 
L 5869 2369 
L 5869 1925 
z
" transform="scale(0.015625)"/>
     </defs>
     <use xlink:href="#ArialUnicodeMS-7a00"/>
     <use xlink:href="#ArialUnicodeMS-91ca" x="100"/>
     <use xlink:href="#ArialUnicodeMS-5236" x="200"/>
     <use xlink:href="#ArialUnicodeMS-51b7" x="300"/>
     <use xlink:href="#ArialUnicodeMS-673a" x="400"/>
     <use xlink:href="#ArialUnicodeMS-6e29" x="500"/>
     <use xlink:href="#ArialUnicodeMS-5ea6" x="600"/>
     <use xlink:href="#ArialUnicodeMS-5c42" x="700"/>
     <use xlink:href="#ArialUnicodeMS-7ea7" x="800"/>
    </g>
   </g>
   <g id="line2d_48">
    <defs>
     <path id="mb72bf0ace4" d="M 0 5.5 
C 1.458617 5.5 2.857689 4.920485 3.889087 3.889087 
C 4.920485 2.857689 5.5 1.458617 5.5 0 
C 5.5 -1.458617 4.920485 -2.857689 3.889087 -3.889087 
C 2.857689 -4.920485 1.458617 -5.5 0 -5.5 
C -1.458617 -5.5 -2.857689 -4.920485 -3.889087 -3.889087 
C -4.920485 -2.857689 -5.5 -1.458617 -5.5 0 
C -5.5 1.458617 -4.920485 2.857689 -3.889087 3.889087 
C -2.857689 4.920485 -1.458617 5.5 0 5.5 
z
" style="stroke: #ef4444"/>
    </defs>
    <g clip-path="url(#p6ddcbf3eee)">
     <use xlink:href="#mb72bf0ace4" x="151.872371" y="38.514114" style="fill: #ef4444; stroke: #ef4444"/>
    </g>
   </g>
   <g id="line2d_49">
    <defs>
     <path id="mbb65981c05" d="M 0 5.5 
C 1.458617 5.5 2.857689 4.920485 3.889087 3.889087 
C 4.920485 2.857689 5.5 1.458617 5.5 0 
C 5.5 -1.458617 4.920485 -2.857689 3.889087 -3.889087 
C 2.857689 -4.920485 1.458617 -5.5 0 -5.5 
C -1.458617 -5.5 -2.857689 -4.920485 -3.889087 -3.889087 
C -4.920485 -2.857689 -5.5 -1.458617 -5.5 0 
C -5.5 1.458617 -4.920485 2.857689 -3.889087 3.889087 
C -2.857689 4.920485 -1.458617 5.5 0 5.5 
z
" style="stroke: #f97316"/>
    </defs>
    <g clip-path="url(#p6ddcbf3eee)">
     <use xlink:href="#mbb65981c05" x="151.872371" y="68.650415" style="fill: #f97316; stroke: #f97316"/>
    </g>
   </g>
   <g id="line2d_50">
    <defs>
     <path id="m022c494c2d" d="M 0 5.5 
C 1.458617 5.5 2.857689 4.920485 3.889087 3.889087 
C 4.920485 2.857689 5.5 1.458617 5.5 0 
C 5.5 -1.458617 4.920485 -2.857689 3.889087 -3.889087 
C 2.857689 -4.920485 1.458617 -5.5 0 -5.5 
C -1.458617 -5.5 -2.857689 -4.920485 -3.889087 -3.889087 
C -4.920485 -2.857689 -5.5 -1.458617 -5.5 0 
C -5.5 1.458617 -4.920485 2.857689 -3.889087 3.889087 
C -2.857689 4.920485 -1.458617 5.5 0 5.5 
z
" style="stroke: #eab308"/>
    </defs>
    <g clip-path="url(#p6ddcbf3eee)">
     <use xlink:href="#m022c494c2d" x="151.872371" y="134.187142" style="fill: #eab308; stroke: #eab308"/>
    </g>
   </g>
   <g id="line2d_51">
    <defs>
     <path id="m642f7ae3fe" d="M 0 5.5 
C 1.458617 5.5 2.857689 4.920485 3.889087 3.889087 
C 4.920485 2.857689 5.5 1.458617 5.5 0 
C 5.5 -1.458617 4.920485 -2.857689 3.889087 -3.889087 
C 2.857689 -4.920485 1.458617 -5.5 0 -5.5 
C -1.458617 -5.5 -2.857689 -4.920485 -3.889087 -3.889087 
C -4.920485 -2.857689 -5.5 -1.458617 -5.5 0 
C -5.5 1.458617 -4.920485 2.857689 -3.889087 3.889087 
C -2.857689 4.920485 -1.458617 5.5 0 5.5 
z
" style="stroke: #22c55e"/>
    </defs>
    <g clip-path="url(#p6ddcbf3eee)">
     <use xlink:href="#m642f7ae3fe" x="151.872371" y="215.930567" style="fill: #22c55e; stroke: #22c55e"/>
    </g>
   </g>
   <g id="line2d_52">
    <defs>
     <path id="m809c27b8e3" d="M 0 5.5 
C 1.458617 5.5 2.857689 4.920485 3.889087 3.889087 
C 4.920485 2.857689 5.5 1.458617 5.5 0 
C 5.5 -1.458617 4.920485 -2.857689 3.889087 -3.889087 
C 2.857689 -4.920485 1.458617 -5.5 0 -5.5 
C -1.458617 -5.5 -2.857689 -4.920485 -3.889087 -3.889087 
C -4.920485 -2.857689 -5.5 -1.458617 -5.5 0 
C -5.5 1.458617 -4.920485 2.857689 -3.889087 3.889087 
C -2.857689 4.920485 -1.458617 5.5 0 5.5 
z
" style="stroke: #3b82f6"/>
    </defs>
    <g clip-path="url(#p6ddcbf3eee)">
     <use xlink:href="#m809c27b8e3" x="151.872371" y="251.594776" style="fill: #3b82f6; stroke: #3b82f6"/>
    </g>
   </g>
  </g>
  <g id="axes_2">
   <g id="patch_4">
    <path d="M 426.02556 262.914375 
L 767.74625 262.914375 
L 767.74625 23.154375 
L 426.02556 23.154375 
z
" style="fill: #f8fafc"/>
   </g>
   <g id="patch_5">
    <path d="M 459.032672 51188.854373 
L 501.747759 51188.854373 
L 501.747759 38.514114 
L 459.032672 38.514114 
z
" clip-path="url(#p568f1ed354)" style="fill: #ef4444; fill-opacity: 0.333333; stroke: #ef4444; stroke-width: 2; stroke-linejoin: miter"/>
   </g>
   <g id="patch_6">
    <path d="M 536.696466 51188.854373 
L 579.411552 51188.854373 
L 579.411552 134.187142 
L 536.696466 134.187142 
z
" clip-path="url(#p568f1ed354)" style="fill: #eab308; fill-opacity: 0.333333; stroke: #eab308; stroke-width: 2; stroke-linejoin: miter"/>
   </g>
   <g id="patch_7">
    <path d="M 614.360259 51188.854373 
L 657.075345 51188.854373 
L 657.075345 251.594776 
L 614.360259 251.594776 
z
" clip-path="url(#p568f1ed354)" style="fill: #3b82f6; fill-opacity: 0.333333; stroke: #3b82f6; stroke-width: 2; stroke-linejoin: miter"/>
   </g>
   <g id="patch_8">
    <path d="M 692.024052 51188.854373 
L 734.739138 51188.854373 
L 734.739138 200.570828 
L 692.024052 200.570828 
z
" clip-path="url(#p568f1ed354)" style="fill: url(#h0fb9c24cd9); fill-opacity: 0.333333; stroke: #7c3aed; stroke-width: 2; stroke-linejoin: miter"/>
   </g>
   <g id="patch_9">
    <path d="M 613.97194 293.633853 
L 735.127457 293.633853 
Q 735.904095 293.633853 735.904095 261.140675 
L 735.904095 185.602313 
Q 735.904095 185.045514 735.127457 185.045514 
L 613.97194 185.045514 
Q 613.195302 185.045514 613.195302 185.602313 
L 613.195302 261.140675 
Q 613.195302 293.633853 613.97194 293.633853 
L 613.97194 293.633853 
z
" clip-path="url(#p568f1ed354)" style="fill: none; stroke-dasharray: 6.66,2.88; stroke-dashoffset: 0; stroke: #3b82f6; stroke-width: 1.8; stroke-linejoin: miter"/>
   </g>
   <g id="matplotlib.axis_3">
    <g id="xtick_1">
     <g id="line2d_53">
      <defs>
       <path id="m483a9c5164" d="M 0 0 
L 0 3.5 
" style="stroke: #000000; stroke-width: 0.8"/>
      </defs>
      <g>
       <use xlink:href="#m483a9c5164" x="480.390216" y="262.914375" style="stroke: #000000; stroke-width: 0.8"/>
      </g>
     </g>
     <g id="text_12">
      <!-- 室温 -->
      <g transform="translate(471.390216 276.356406) scale(0.09 -0.09)">
       <use xlink:href="#ArialUnicodeMS-5ba4"/>
       <use xlink:href="#ArialUnicodeMS-6e29" x="100"/>
      </g>
      <!-- (300 K) -->
      <g transform="translate(465.634434 286.011437) scale(0.09 -0.09)">
       <use xlink:href="#ArialUnicodeMS-28"/>
       <use xlink:href="#ArialUnicodeMS-33" x="33.300781"/>
       <use xlink:href="#ArialUnicodeMS-30" x="88.916016"/>
       <use xlink:href="#ArialUnicodeMS-30" x="144.53125"/>
       <use xlink:href="#ArialUnicodeMS-20" x="200.146484"/>
       <use xlink:href="#ArialUnicodeMS-4b" x="227.929688"/>
       <use xlink:href="#ArialUnicodeMS-29" x="294.628906"/>
      </g>
     </g>
    </g>
    <g id="xtick_2">
     <g id="line2d_54">
      <g>
       <use xlink:href="#m483a9c5164" x="558.054009" y="262.914375" style="stroke: #000000; stroke-width: 0.8"/>
      </g>
     </g>
     <g id="text_13">
      <!-- 4 K -->
      <g transform="translate(551.29979 276.356406) scale(0.09 -0.09)">
       <use xlink:href="#ArialUnicodeMS-34"/>
       <use xlink:href="#ArialUnicodeMS-20" x="55.615234"/>
       <use xlink:href="#ArialUnicodeMS-4b" x="83.398438"/>
      </g>
     </g>
    </g>
    <g id="xtick_3">
     <g id="line2d_55">
      <g>
       <use xlink:href="#m483a9c5164" x="635.717802" y="262.914375" style="stroke: #000000; stroke-width: 0.8"/>
      </g>
     </g>
     <g id="text_14">
      <!-- 20 mK -->
      <g transform="translate(622.712802 276.356406) scale(0.09 -0.09)">
       <use xlink:href="#ArialUnicodeMS-32"/>
       <use xlink:href="#ArialUnicodeMS-30" x="55.615234"/>
       <use xlink:href="#ArialUnicodeMS-20" x="111.230469"/>
       <use xlink:href="#ArialUnicodeMS-6d" x="139.013672"/>
       <use xlink:href="#ArialUnicodeMS-4b" x="222.314453"/>
      </g>
     </g>
    </g>
    <g id="xtick_4">
     <g id="line2d_56">
      <g>
       <use xlink:href="#m483a9c5164" x="713.381595" y="262.914375" style="stroke: #000000; stroke-width: 0.8"/>
      </g>
     </g>
     <g id="text_15">
      <!-- 量子比特 -->
      <g transform="translate(695.381595 276.356406) scale(0.09 -0.09)">
       <defs>
        <path id="ArialUnicodeMS-6bd4" d="M 6119 1100 
Q 5975 -197 5300 -197 
L 4103 -197 
Q 3828 -197 3658 -42 
Q 3488 113 3488 378 
L 3488 5191 
L 3994 5191 
L 3994 2906 
Q 4775 3172 5600 3916 
L 5984 3584 
Q 5013 2703 3994 2388 
L 3994 506 
Q 4022 269 4225 269 
L 5153 269 
Q 5375 269 5464 464 
Q 5553 659 5625 1325 
L 6119 1100 
z
M 3238 306 
L 653 -231 
L 378 250 
L 1131 391 
L 1131 5166 
L 1638 5166 
L 1638 3450 
L 3238 3450 
L 3238 2981 
L 1638 2981 
L 1638 500 
L 3238 819 
L 3238 306 
z
" transform="scale(0.015625)"/>
        <path id="ArialUnicodeMS-7279" d="M 5913 2700 
L 2772 2700 
L 2772 3169 
L 4063 3169 
L 4063 4025 
L 3009 4025 
L 3009 4494 
L 4063 4494 
L 4063 5319 
L 4550 5319 
L 4550 4494 
L 5684 4494 
L 5684 4025 
L 4550 4025 
L 4550 3169 
L 5913 3169 
L 5913 2700 
z
M 2741 2144 
L 2113 1869 
L 2113 -434 
L 1625 -434 
L 1625 1644 
L 838 1306 
L 481 1703 
L 1625 2175 
L 1625 3475 
L 1178 3475 
Q 1081 3094 769 2491 
L 319 2725 
Q 819 3531 916 4609 
L 1381 4481 
Q 1369 4263 1313 3944 
L 1625 3944 
L 1625 5281 
L 2113 5281 
L 2113 3944 
L 2688 3944 
L 2688 3475 
L 2113 3475 
L 2113 2413 
L 2741 2656 
L 2741 2144 
z
M 6041 1588 
L 5300 1588 
L 5300 191 
Q 5300 -88 5147 -239 
Q 4994 -391 4581 -397 
L 4109 -403 
L 3897 91 
Q 4356 56 4534 56 
Q 4813 56 4813 231 
L 4813 1588 
L 2644 1588 
L 2644 2053 
L 4813 2053 
L 4813 2631 
L 5300 2631 
L 5300 2053 
L 6041 2053 
L 6041 1588 
z
M 4275 691 
L 3903 378 
Q 3453 963 2888 1184 
L 3219 1497 
Q 3775 1297 4275 691 
z
" transform="scale(0.015625)"/>
       </defs>
       <use xlink:href="#ArialUnicodeMS-91cf"/>
       <use xlink:href="#ArialUnicodeMS-5b50" x="100"/>
       <use xlink:href="#ArialUnicodeMS-6bd4" x="200"/>
       <use xlink:href="#ArialUnicodeMS-7279" x="300"/>
      </g>
      <!-- 能级间距 -->
      <g transform="translate(695.381595 285.879812) scale(0.09 -0.09)">
       <defs>
        <path id="ArialUnicodeMS-80fd" d="M 3419 3494 
L 3003 3231 
L 2809 3591 
L 531 3469 
L 403 3963 
L 844 3975 
Q 1316 4656 1644 5403 
L 2131 5191 
Q 1716 4381 1409 3975 
L 2541 4019 
Q 2359 4294 2144 4500 
L 2572 4738 
Q 3122 4225 3419 3494 
z
M 5978 3675 
Q 5825 2528 5294 2528 
L 4122 2528 
Q 3800 2563 3676 2722 
Q 3553 2881 3553 3009 
L 3553 5222 
L 4038 5222 
L 4038 4197 
Q 4997 4469 5556 4909 
L 5850 4544 
Q 5219 4009 4038 3719 
L 4038 3175 
Q 4066 2994 4366 2994 
L 5209 2994 
Q 5431 2994 5509 3853 
L 5978 3675 
z
M 3059 250 
Q 3059 28 2954 -105 
Q 2850 -238 2701 -277 
Q 2553 -316 1972 -306 
L 1791 184 
Q 2147 147 2297 147 
Q 2572 147 2572 319 
L 2572 922 
L 1234 922 
L 1234 -353 
L 750 -353 
L 750 3091 
L 3059 3091 
L 3059 250 
z
M 2572 2241 
L 2572 2625 
L 1234 2625 
L 1234 2241 
L 2572 2241 
z
M 2572 1388 
L 2572 1772 
L 1234 1772 
L 1234 1388 
L 2572 1388 
z
M 6138 800 
Q 6019 134 5831 -73 
Q 5644 -281 5369 -281 
L 4166 -281 
Q 3859 -281 3718 -92 
Q 3578 97 3578 263 
L 3578 2309 
L 4063 2309 
L 4063 1422 
Q 4950 1625 5606 2113 
L 5941 1753 
Q 5169 1163 4063 941 
L 4063 347 
Q 4063 184 4281 184 
L 5319 184 
Q 5469 184 5544 362 
Q 5619 541 5663 1031 
L 6138 800 
z
" transform="scale(0.015625)"/>
        <path id="ArialUnicodeMS-95f4" d="M 2463 4313 
L 2088 4006 
Q 1600 4669 1094 4984 
L 1484 5247 
Q 2044 4888 2463 4313 
z
M 5497 178 
Q 5497 -50 5353 -181 
Q 5209 -313 4853 -313 
Q 4753 -313 4506 -300 
L 4366 147 
Q 4631 106 4806 106 
Q 4991 106 5002 142 
Q 5013 178 5013 275 
L 5013 4453 
L 2841 4453 
L 2841 4922 
L 5497 4922 
L 5497 178 
z
M 1125 -384 
L 641 -384 
L 641 4197 
L 1125 4197 
L 1125 -384 
z
M 4306 481 
L 3822 481 
L 3822 813 
L 2375 813 
L 2375 481 
L 1888 481 
L 1888 3669 
L 4306 3669 
L 4306 481 
z
M 3822 2559 
L 3822 3200 
L 2375 3200 
L 2375 2559 
L 3822 2559 
z
M 3822 1281 
L 3822 2094 
L 2375 2094 
L 2375 1281 
L 3822 1281 
z
" transform="scale(0.015625)"/>
        <path id="ArialUnicodeMS-8ddd" d="M 2747 563 
L 422 -159 
L 197 341 
L 647 441 
L 647 2656 
L 1131 2656 
L 1131 575 
L 1516 672 
L 1516 3103 
L 744 3103 
L 744 5088 
L 2625 5088 
L 2625 3103 
L 2003 3103 
L 2003 2363 
L 2694 2363 
L 2694 1894 
L 2003 1894 
L 2003 813 
L 2747 1025 
L 2747 563 
z
M 2138 3572 
L 2138 4622 
L 1228 4622 
L 1228 3572 
L 2138 3572 
z
M 6059 -13 
L 3500 -13 
L 3500 -391 
L 2994 -391 
L 2994 5063 
L 5919 5063 
L 5919 4594 
L 3500 4594 
L 3500 3609 
L 5550 3609 
L 5550 1581 
L 3500 1581 
L 3500 453 
L 6059 453 
L 6059 -13 
z
M 5044 2047 
L 5044 3144 
L 3500 3144 
L 3500 2047 
L 5044 2047 
z
" transform="scale(0.015625)"/>
       </defs>
       <use xlink:href="#ArialUnicodeMS-80fd"/>
       <use xlink:href="#ArialUnicodeMS-7ea7" x="100"/>
       <use xlink:href="#ArialUnicodeMS-95f4" x="200"/>
       <use xlink:href="#ArialUnicodeMS-8ddd" x="300"/>
      </g>
     </g>
    </g>
   </g>
   <g id="matplotlib.axis_4">
    <g id="ytick_42">
     <g id="line2d_57">
      <g>
       <use xlink:href="#mf2a22b3d71" x="426.02556" y="215.930567" style="stroke: #000000; stroke-width: 0.8"/>
      </g>
     </g>
     <g id="text_16">
      <!-- $\mathdefault{10^{-1}}$ -->
      <g transform="translate(399.52556 219.509473) scale(0.1 -0.1)">
       <use xlink:href="#ArialUnicodeMS-31" transform="translate(0 0.385938)"/>
       <use xlink:href="#ArialUnicodeMS-30" transform="translate(55.615234 0.385938)"/>
       <use xlink:href="#ArialUnicodeMS-2212" transform="translate(112.137187 36.654688) scale(0.7)"/>
       <use xlink:href="#ArialUnicodeMS-31" transform="translate(153.016094 36.654688) scale(0.7)"/>
      </g>
     </g>
    </g>
    <g id="ytick_43">
     <g id="line2d_58">
      <g>
       <use xlink:href="#mf2a22b3d71" x="426.02556" y="164.906619" style="stroke: #000000; stroke-width: 0.8"/>
      </g>
     </g>
     <g id="text_17">
      <!-- $\mathdefault{10^{0}}$ -->
      <g transform="translate(403.62556 168.485526) scale(0.1 -0.1)">
       <use xlink:href="#ArialUnicodeMS-31" transform="translate(0 0.385938)"/>
       <use xlink:href="#ArialUnicodeMS-30" transform="translate(55.615234 0.385938)"/>
       <use xlink:href="#ArialUnicodeMS-30" transform="translate(112.137187 36.654688) scale(0.7)"/>
      </g>
     </g>
    </g>
    <g id="ytick_44">
     <g id="line2d_59">
      <g>
       <use xlink:href="#mf2a22b3d71" x="426.02556" y="113.882671" style="stroke: #000000; stroke-width: 0.8"/>
      </g>
     </g>
     <g id="text_18">
      <!-- $\mathdefault{10^{1}}$ -->
      <g transform="translate(403.62556 117.461578) scale(0.1 -0.1)">
       <use xlink:href="#ArialUnicodeMS-31" transform="translate(0 0.385938)"/>
       <use xlink:href="#ArialUnicodeMS-30" transform="translate(55.615234 0.385938)"/>
       <use xlink:href="#ArialUnicodeMS-31" transform="translate(112.137187 36.654688) scale(0.7)"/>
      </g>
     </g>
    </g>
    <g id="ytick_45">
     <g id="line2d_60">
      <g>
       <use xlink:href="#mf2a22b3d71" x="426.02556" y="62.858724" style="stroke: #000000; stroke-width: 0.8"/>
      </g>
     </g>
     <g id="text_19">
      <!-- $\mathdefault{10^{2}}$ -->
      <g transform="translate(403.62556 66.43763) scale(0.1 -0.1)">
       <use xlink:href="#ArialUnicodeMS-31" transform="translate(0 0.385938)"/>
       <use xlink:href="#ArialUnicodeMS-30" transform="translate(55.615234 0.385938)"/>
       <use xlink:href="#ArialUnicodeMS-32" transform="translate(112.137187 36.654688) scale(0.7)"/>
      </g>
     </g>
    </g>
    <g id="ytick_46">
     <g id="line2d_61">
      <g>
       <use xlink:href="#mdf6791d5f1" x="426.02556" y="251.594776" style="stroke: #000000; stroke-width: 0.6"/>
      </g>
     </g>
    </g>
    <g id="ytick_47">
     <g id="line2d_62">
      <g>
       <use xlink:href="#mdf6791d5f1" x="426.02556" y="242.609905" style="stroke: #000000; stroke-width: 0.6"/>
      </g>
     </g>
    </g>
    <g id="ytick_48">
     <g id="line2d_63">
      <g>
       <use xlink:href="#mdf6791d5f1" x="426.02556" y="236.235037" style="stroke: #000000; stroke-width: 0.6"/>
      </g>
     </g>
    </g>
    <g id="ytick_49">
     <g id="line2d_64">
      <g>
       <use xlink:href="#mdf6791d5f1" x="426.02556" y="231.290306" style="stroke: #000000; stroke-width: 0.6"/>
      </g>
     </g>
    </g>
    <g id="ytick_50">
     <g id="line2d_65">
      <g>
       <use xlink:href="#mdf6791d5f1" x="426.02556" y="227.250166" style="stroke: #000000; stroke-width: 0.6"/>
      </g>
     </g>
    </g>
    <g id="ytick_51">
     <g id="line2d_66">
      <g>
       <use xlink:href="#mdf6791d5f1" x="426.02556" y="223.834277" style="stroke: #000000; stroke-width: 0.6"/>
      </g>
     </g>
    </g>
    <g id="ytick_52">
     <g id="line2d_67">
      <g>
       <use xlink:href="#mdf6791d5f1" x="426.02556" y="220.875298" style="stroke: #000000; stroke-width: 0.6"/>
      </g>
     </g>
    </g>
    <g id="ytick_53">
     <g id="line2d_68">
      <g>
       <use xlink:href="#mdf6791d5f1" x="426.02556" y="218.265295" style="stroke: #000000; stroke-width: 0.6"/>
      </g>
     </g>
    </g>
    <g id="ytick_54">
     <g id="line2d_69">
      <g>
       <use xlink:href="#mdf6791d5f1" x="426.02556" y="200.570828" style="stroke: #000000; stroke-width: 0.6"/>
      </g>
     </g>
    </g>
    <g id="ytick_55">
     <g id="line2d_70">
      <g>
       <use xlink:href="#mdf6791d5f1" x="426.02556" y="191.585957" style="stroke: #000000; stroke-width: 0.6"/>
      </g>
     </g>
    </g>
    <g id="ytick_56">
     <g id="line2d_71">
      <g>
       <use xlink:href="#mdf6791d5f1" x="426.02556" y="185.211089" style="stroke: #000000; stroke-width: 0.6"/>
      </g>
     </g>
    </g>
    <g id="ytick_57">
     <g id="line2d_72">
      <g>
       <use xlink:href="#mdf6791d5f1" x="426.02556" y="180.266358" style="stroke: #000000; stroke-width: 0.6"/>
      </g>
     </g>
    </g>
    <g id="ytick_58">
     <g id="line2d_73">
      <g>
       <use xlink:href="#mdf6791d5f1" x="426.02556" y="176.226218" style="stroke: #000000; stroke-width: 0.6"/>
      </g>
     </g>
    </g>
    <g id="ytick_59">
     <g id="line2d_74">
      <g>
       <use xlink:href="#mdf6791d5f1" x="426.02556" y="172.810329" style="stroke: #000000; stroke-width: 0.6"/>
      </g>
     </g>
    </g>
    <g id="ytick_60">
     <g id="line2d_75">
      <g>
       <use xlink:href="#mdf6791d5f1" x="426.02556" y="169.851351" style="stroke: #000000; stroke-width: 0.6"/>
      </g>
     </g>
    </g>
    <g id="ytick_61">
     <g id="line2d_76">
      <g>
       <use xlink:href="#mdf6791d5f1" x="426.02556" y="167.241347" style="stroke: #000000; stroke-width: 0.6"/>
      </g>
     </g>
    </g>
    <g id="ytick_62">
     <g id="line2d_77">
      <g>
       <use xlink:href="#mdf6791d5f1" x="426.02556" y="149.54688" style="stroke: #000000; stroke-width: 0.6"/>
      </g>
     </g>
    </g>
    <g id="ytick_63">
     <g id="line2d_78">
      <g>
       <use xlink:href="#mdf6791d5f1" x="426.02556" y="140.562009" style="stroke: #000000; stroke-width: 0.6"/>
      </g>
     </g>
    </g>
    <g id="ytick_64">
     <g id="line2d_79">
      <g>
       <use xlink:href="#mdf6791d5f1" x="426.02556" y="134.187142" style="stroke: #000000; stroke-width: 0.6"/>
      </g>
     </g>
    </g>
    <g id="ytick_65">
     <g id="line2d_80">
      <g>
       <use xlink:href="#mdf6791d5f1" x="426.02556" y="129.24241" style="stroke: #000000; stroke-width: 0.6"/>
      </g>
     </g>
    </g>
    <g id="ytick_66">
     <g id="line2d_81">
      <g>
       <use xlink:href="#mdf6791d5f1" x="426.02556" y="125.202271" style="stroke: #000000; stroke-width: 0.6"/>
      </g>
     </g>
    </g>
    <g id="ytick_67">
     <g id="line2d_82">
      <g>
       <use xlink:href="#mdf6791d5f1" x="426.02556" y="121.786381" style="stroke: #000000; stroke-width: 0.6"/>
      </g>
     </g>
    </g>
    <g id="ytick_68">
     <g id="line2d_83">
      <g>
       <use xlink:href="#mdf6791d5f1" x="426.02556" y="118.827403" style="stroke: #000000; stroke-width: 0.6"/>
      </g>
     </g>
    </g>
    <g id="ytick_69">
     <g id="line2d_84">
      <g>
       <use xlink:href="#mdf6791d5f1" x="426.02556" y="116.217399" style="stroke: #000000; stroke-width: 0.6"/>
      </g>
     </g>
    </g>
    <g id="ytick_70">
     <g id="line2d_85">
      <g>
       <use xlink:href="#mdf6791d5f1" x="426.02556" y="98.522933" style="stroke: #000000; stroke-width: 0.6"/>
      </g>
     </g>
    </g>
    <g id="ytick_71">
     <g id="line2d_86">
      <g>
       <use xlink:href="#mdf6791d5f1" x="426.02556" y="89.538062" style="stroke: #000000; stroke-width: 0.6"/>
      </g>
     </g>
    </g>
    <g id="ytick_72">
     <g id="line2d_87">
      <g>
       <use xlink:href="#mdf6791d5f1" x="426.02556" y="83.163194" style="stroke: #000000; stroke-width: 0.6"/>
      </g>
     </g>
    </g>
    <g id="ytick_73">
     <g id="line2d_88">
      <g>
       <use xlink:href="#mdf6791d5f1" x="426.02556" y="78.218463" style="stroke: #000000; stroke-width: 0.6"/>
      </g>
     </g>
    </g>
    <g id="ytick_74">
     <g id="line2d_89">
      <g>
       <use xlink:href="#mdf6791d5f1" x="426.02556" y="74.178323" style="stroke: #000000; stroke-width: 0.6"/>
      </g>
     </g>
    </g>
    <g id="ytick_75">
     <g id="line2d_90">
      <g>
       <use xlink:href="#mdf6791d5f1" x="426.02556" y="70.762433" style="stroke: #000000; stroke-width: 0.6"/>
      </g>
     </g>
    </g>
    <g id="ytick_76">
     <g id="line2d_91">
      <g>
       <use xlink:href="#mdf6791d5f1" x="426.02556" y="67.803455" style="stroke: #000000; stroke-width: 0.6"/>
      </g>
     </g>
    </g>
    <g id="ytick_77">
     <g id="line2d_92">
      <g>
       <use xlink:href="#mdf6791d5f1" x="426.02556" y="65.193452" style="stroke: #000000; stroke-width: 0.6"/>
      </g>
     </g>
    </g>
    <g id="ytick_78">
     <g id="line2d_93">
      <g>
       <use xlink:href="#mdf6791d5f1" x="426.02556" y="47.498985" style="stroke: #000000; stroke-width: 0.6"/>
      </g>
     </g>
    </g>
    <g id="ytick_79">
     <g id="line2d_94">
      <g>
       <use xlink:href="#mdf6791d5f1" x="426.02556" y="38.514114" style="stroke: #000000; stroke-width: 0.6"/>
      </g>
     </g>
    </g>
    <g id="ytick_80">
     <g id="line2d_95">
      <g>
       <use xlink:href="#mdf6791d5f1" x="426.02556" y="32.139246" style="stroke: #000000; stroke-width: 0.6"/>
      </g>
     </g>
    </g>
    <g id="ytick_81">
     <g id="line2d_96">
      <g>
       <use xlink:href="#mdf6791d5f1" x="426.02556" y="27.194515" style="stroke: #000000; stroke-width: 0.6"/>
      </g>
     </g>
    </g>
    <g id="ytick_82">
     <g id="line2d_97">
      <g>
       <use xlink:href="#mdf6791d5f1" x="426.02556" y="23.154375" style="stroke: #000000; stroke-width: 0.6"/>
      </g>
     </g>
    </g>
    <g id="text_20">
     <!-- 等效温度 (K) -->
     <g style="fill: #64748b" transform="translate(393.63556 168.282891) rotate(-90) scale(0.09 -0.09)">
      <defs>
       <path id="ArialUnicodeMS-7b49" d="M 5978 2022 
L 453 2022 
L 453 2491 
L 2963 2491 
L 2963 2956 
L 1241 2956 
L 1241 3425 
L 2963 3425 
L 2963 3891 
L 3406 3891 
L 3406 3903 
L 3175 4072 
Q 3672 4559 3866 5363 
L 4319 5209 
Q 4300 5084 4191 4788 
L 5931 4788 
L 5931 4319 
L 4978 4319 
Q 5216 4075 5331 3878 
L 4872 3647 
Q 4728 4000 4391 4319 
L 3975 4319 
Q 3828 4044 3572 3775 
L 3469 3847 
L 3469 3425 
L 5234 3425 
L 5234 2956 
L 3469 2956 
L 3469 2491 
L 5978 2491 
L 5978 2022 
z
M 3309 4294 
L 2444 4294 
Q 2634 4106 2778 3841 
L 2309 3622 
Q 2231 3881 1856 4294 
L 1522 4294 
Q 1281 3872 788 3488 
L 416 3788 
Q 1263 4450 1447 5350 
L 1919 5197 
Q 1847 4928 1747 4763 
L 3309 4763 
L 3309 4294 
z
M 5838 1106 
L 4684 1106 
L 4684 63 
Q 4684 -69 4553 -219 
Q 4422 -369 4214 -403 
Q 4006 -438 3475 -428 
L 3297 78 
Q 3803 44 3972 44 
Q 4178 44 4178 206 
L 4178 1106 
L 647 1106 
L 647 1575 
L 4178 1575 
L 4178 1991 
L 4684 1991 
L 4684 1575 
L 5838 1575 
L 5838 1106 
z
M 3066 416 
L 2753 6 
Q 2194 503 1241 697 
L 1509 1088 
Q 2469 906 3066 416 
z
" transform="scale(0.015625)"/>
       <path id="ArialUnicodeMS-6548" d="M 6119 -38 
L 5747 -409 
Q 5044 116 4609 756 
Q 4109 116 3384 -403 
L 3009 -63 
Q 3956 584 4341 1197 
Q 4041 1756 3866 2534 
Q 3672 2144 3450 1850 
L 3022 2081 
Q 3528 2766 3722 3500 
Q 3916 4234 3916 5338 
L 4366 5259 
Q 4384 4781 4306 4072 
L 5953 4072 
L 5953 3603 
L 5569 3603 
Q 5491 2219 4884 1184 
Q 5456 391 6119 -38 
z
M 5063 3603 
L 4231 3603 
L 4166 3322 
Q 4375 2238 4628 1716 
Q 5025 2469 5063 3603 
z
M 3359 3878 
L 569 3878 
L 569 4347 
L 1753 4347 
L 1753 5184 
L 2253 5184 
L 2253 4347 
L 3359 4347 
L 3359 3878 
z
M 1656 3641 
Q 1409 2850 775 2419 
L 384 2719 
Q 953 3006 1234 3803 
L 1656 3641 
z
M 3366 2803 
L 2969 2553 
Q 2688 3184 2150 3547 
L 2559 3794 
Q 3134 3359 3366 2803 
z
M 3278 628 
L 2888 281 
Q 2581 716 2234 1063 
Q 1747 269 769 -306 
L 469 103 
Q 1353 613 1869 1416 
Q 1272 2016 984 2163 
L 1344 2456 
Q 1422 2409 2113 1838 
Q 2219 2069 2375 2650 
L 2797 2456 
Q 2691 1897 2491 1503 
Q 2981 1028 3278 628 
z
" transform="scale(0.015625)"/>
      </defs>
      <use xlink:href="#ArialUnicodeMS-7b49"/>
      <use xlink:href="#ArialUnicodeMS-6548" x="100"/>
      <use xlink:href="#ArialUnicodeMS-6e29" x="200"/>
      <use xlink:href="#ArialUnicodeMS-5ea6" x="300"/>
      <use xlink:href="#ArialUnicodeMS-20" x="400"/>
      <use xlink:href="#ArialUnicodeMS-28" x="427.783203"/>
      <use xlink:href="#ArialUnicodeMS-4b" x="461.083984"/>
      <use xlink:href="#ArialUnicodeMS-29" x="527.783203"/>
     </g>
    </g>
   </g>
   <g id="patch_10">
    <path d="M 426.02556 262.914375 
L 426.02556 23.154375 
" style="fill: none; stroke: #cbd5e1; stroke-width: 0.8; stroke-linejoin: miter; stroke-linecap: square"/>
   </g>
   <g id="patch_11">
    <path d="M 426.02556 262.914375 
L 767.74625 262.914375 
" style="fill: none; stroke: #cbd5e1; stroke-width: 0.8; stroke-linejoin: miter; stroke-linecap: square"/>
   </g>
   <g id="patch_12">
    <path d="M 463.304181 42.194124 
Q 463.304181 119.54508 463.304181 196.896036 
" style="fill: none; stroke: #dc2626; stroke-width: 1.5; stroke-linecap: round"/>
    <path d="M 461.304181 46.194124 
L 463.304181 42.194124 
L 465.304181 46.194124 
" style="fill: none; stroke: #dc2626; stroke-width: 1.5; stroke-linecap: round"/>
    <path d="M 465.304181 192.896036 
L 463.304181 196.896036 
L 461.304181 192.896036 
" style="fill: none; stroke: #dc2626; stroke-width: 1.5; stroke-linecap: round"/>
   </g>
   <g id="text_21">
    <!-- 差 -->
    <g style="fill: #dc2626" transform="translate(433.425129 117.240698) scale(0.085 -0.085)">
     <defs>
      <path id="ArialUnicodeMS-5dee" d="M 5991 -122 
L 1209 -122 
L 1209 347 
L 3284 347 
L 3284 1178 
L 1863 1178 
Q 1419 619 588 159 
L 300 581 
Q 1531 1266 1888 2169 
L 697 2169 
L 697 2631 
L 2981 2631 
L 2981 3188 
L 1319 3188 
L 1319 3634 
L 2981 3634 
L 2981 4122 
L 947 4122 
L 947 4581 
L 2291 4581 
Q 2069 4831 1563 5088 
L 2069 5350 
Q 2581 5003 2822 4588 
L 3647 4588 
Q 4069 4869 4313 5375 
L 4781 5147 
Q 4534 4741 4347 4603 
L 4347 4588 
L 5581 4588 
L 5575 4122 
L 3463 4122 
L 3463 3634 
L 5209 3634 
L 5209 3188 
L 3463 3188 
L 3463 2631 
L 5838 2631 
L 5838 2169 
L 2413 2169 
Q 2375 2000 2150 1644 
L 5497 1644 
L 5497 1178 
L 3763 1178 
L 3763 347 
L 5991 347 
L 5991 -122 
z
" transform="scale(0.015625)"/>
     </defs>
     <use xlink:href="#ArialUnicodeMS-5dee"/>
    </g>
    <!-- 1500× -->
    <g style="fill: #dc2626" transform="translate(425.73927 126.235026) scale(0.085 -0.085)">
     <defs>
      <path id="ArialUnicodeMS-35" d="M 1013 2753 
Q 1431 3041 1881 3041 
Q 2453 3041 2878 2636 
Q 3303 2231 3303 1556 
Q 3303 875 2872 398 
Q 2441 -78 1741 -78 
Q 1169 -78 750 245 
Q 331 569 269 1203 
L 856 1247 
Q 928 813 1162 598 
Q 1397 384 1741 384 
Q 2169 384 2434 707 
Q 2700 1031 2700 1503 
Q 2700 1984 2428 2262 
Q 2156 2541 1728 2541 
Q 1188 2541 897 2100 
L 366 2163 
L 813 4519 
L 3084 4519 
L 3084 3975 
L 1259 3975 
L 1013 2753 
z
" transform="scale(0.015625)"/>
      <path id="ArialUnicodeMS-d7" d="M 3231 1288 
L 2853 903 
L 1869 1888 
L 884 903 
L 506 1281 
L 1491 2259 
L 513 3244 
L 891 3628 
L 1875 2644 
L 2853 3622 
L 3225 3244 
L 2253 2266 
L 3231 1288 
z
" transform="scale(0.015625)"/>
     </defs>
     <use xlink:href="#ArialUnicodeMS-31"/>
     <use xlink:href="#ArialUnicodeMS-35" x="55.615234"/>
     <use xlink:href="#ArialUnicodeMS-30" x="111.230469"/>
     <use xlink:href="#ArialUnicodeMS-30" x="166.845703"/>
     <use xlink:href="#ArialUnicodeMS-d7" x="222.460938"/>
    </g>
   </g>
   <g id="text_22">
    <!-- ≈ 同量级 -->
    <g style="fill: #3b82f6" transform="translate(659.102198 245.137101) scale(0.08 -0.08)">
     <defs>
      <path id="ArialUnicodeMS-2248" d="M 3384 2822 
Q 3047 2491 2572 2491 
Q 2391 2491 1884 2678 
Q 1338 2881 1125 2881 
Q 728 2881 353 2484 
L 353 3059 
Q 681 3406 1172 3406 
Q 1391 3406 1984 3191 
Q 2478 3016 2631 3016 
Q 3047 3016 3384 3413 
L 3384 2822 
z
M 3384 1434 
Q 3047 1100 2572 1100 
Q 2391 1100 1884 1288 
Q 1338 1491 1125 1491 
Q 728 1491 353 1094 
L 353 1672 
Q 681 2016 1172 2016 
Q 1391 2016 1984 1803 
Q 2478 1625 2631 1625 
Q 3047 1625 3384 2022 
L 3384 1434 
z
" transform="scale(0.015625)"/>
      <path id="ArialUnicodeMS-540c" d="M 5644 441 
Q 5644 13 5467 -157 
Q 5291 -328 4663 -328 
Q 4519 -328 4347 -319 
L 4172 206 
Q 4822 206 4981 250 
Q 5141 294 5141 544 
L 5141 4569 
L 1259 4569 
L 1259 -481 
L 756 -481 
L 756 5038 
L 5644 5038 
L 5644 441 
z
M 4941 3406 
L 1569 3406 
L 1569 3872 
L 4941 3872 
L 4941 3406 
z
M 4422 781 
L 1984 781 
L 1984 2700 
L 4422 2700 
L 4422 781 
z
M 3938 1247 
L 3938 2234 
L 2472 2234 
L 2472 1247 
L 3938 1247 
z
" transform="scale(0.015625)"/>
     </defs>
     <use xlink:href="#ArialUnicodeMS-2248"/>
     <use xlink:href="#ArialUnicodeMS-20" x="58.398438"/>
     <use xlink:href="#ArialUnicodeMS-540c" x="86.181641"/>
     <use xlink:href="#ArialUnicodeMS-91cf" x="186.181641"/>
     <use xlink:href="#ArialUnicodeMS-7ea7" x="286.181641"/>
    </g>
    <!-- 量子态稳定 -->
    <g style="fill: #3b82f6" transform="translate(654.549698 253.602351) scale(0.08 -0.08)">
     <defs>
      <path id="ArialUnicodeMS-6001" d="M 5978 2075 
L 5672 1650 
Q 3828 2550 3213 3969 
L 3116 3969 
Q 3003 3581 2841 3309 
Q 3538 2913 3891 2425 
L 3506 2131 
Q 3125 2700 2613 2963 
Q 1934 2106 563 1684 
L 231 2138 
Q 1431 2503 1923 2934 
Q 2416 3366 2613 3969 
L 391 3969 
L 391 4409 
L 2741 4409 
Q 2766 4503 2834 5166 
L 3291 5100 
Q 3281 4706 3213 4409 
L 5831 4409 
L 5831 3969 
L 3713 3969 
Q 4350 2806 5978 2075 
z
M 3847 1081 
L 3438 781 
Q 3213 1431 2663 1875 
L 3053 2156 
Q 3644 1650 3847 1081 
z
M 4838 738 
Q 4719 128 4594 -76 
Q 4469 -281 4244 -281 
L 2413 -281 
Q 2234 -281 2100 -159 
Q 1966 -38 1966 122 
L 1966 1894 
L 2450 1894 
L 2450 288 
Q 2450 253 2500 218 
Q 2550 184 2559 184 
L 4147 184 
Q 4209 184 4264 284 
Q 4319 384 4331 519 
L 4372 928 
L 4838 738 
z
M 1819 1388 
Q 1481 641 666 19 
L 281 372 
Q 1056 947 1459 1638 
L 1819 1388 
z
M 5997 359 
L 5644 -6 
Q 5234 706 4488 1228 
L 4819 1556 
Q 5531 1078 5997 359 
z
" transform="scale(0.015625)"/>
      <path id="ArialUnicodeMS-7a33" d="M 5600 1703 
L 2694 1703 
L 2694 2169 
L 5113 2169 
L 5113 2559 
L 2572 2559 
L 2572 3028 
L 5113 3028 
L 5113 3384 
L 2816 3384 
L 2816 3634 
L 2572 3531 
L 2297 3938 
Q 3206 4325 3413 5338 
L 3866 5184 
L 3738 4806 
L 5106 4806 
L 5106 4416 
Q 4956 4041 4838 3853 
L 5600 3853 
L 5600 1703 
z
M 4581 4341 
L 3519 4341 
Q 3363 4094 3078 3853 
L 4281 3853 
Q 4450 4059 4581 4341 
z
M 2547 2003 
Q 2359 1869 2125 1747 
Q 1956 2269 1650 2606 
L 1650 -391 
L 1166 -391 
L 1166 2259 
L 1153 2272 
Q 944 1575 488 1056 
L 122 1388 
Q 844 2225 1075 3272 
L 397 3272 
L 397 3738 
L 1166 3738 
L 1166 4397 
Q 644 4325 403 4325 
L 128 4819 
Q 1019 4778 2181 5159 
Q 2334 4891 2425 4794 
Q 2034 4619 1650 4506 
L 1650 3738 
L 2297 3738 
L 2297 3272 
L 1650 3272 
L 1650 2931 
L 1844 3053 
Q 2375 2541 2547 2003 
z
M 4494 844 
L 4084 616 
Q 3963 994 3616 1422 
L 4000 1625 
Q 4394 1200 4494 844 
z
M 5178 588 
Q 4972 -88 4722 -122 
L 4531 -147 
L 3500 -147 
Q 3259 -147 3098 -26 
Q 2938 94 2938 288 
L 2938 1528 
L 3425 1528 
L 3425 422 
Q 3434 391 3478 355 
Q 3522 319 3553 319 
L 4538 319 
Q 4628 319 4659 426 
Q 4691 534 4728 844 
L 5178 588 
z
M 6059 347 
L 5697 -13 
Q 5394 678 4728 1113 
L 5031 1441 
Q 5725 956 6059 347 
z
M 2869 1172 
Q 2638 363 2125 -50 
L 1728 288 
Q 2272 731 2472 1403 
L 2869 1172 
z
" transform="scale(0.015625)"/>
      <path id="ArialUnicodeMS-5b9a" d="M 5747 3353 
L 5247 3353 
L 5247 4153 
L 1141 4153 
L 1141 3391 
L 653 3391 
L 653 4622 
L 2956 4622 
L 2956 5288 
L 3444 5288 
L 3444 4622 
L 5747 4622 
L 5747 3353 
z
M 6100 416 
L 5863 -97 
Q 5559 -109 5147 -109 
Q 3516 -109 2859 30 
Q 2203 169 1638 781 
Q 1378 175 659 -428 
L 263 -25 
Q 1481 681 1434 2528 
L 1913 2419 
Q 1903 1834 1806 1288 
Q 2259 666 3009 500 
L 3009 2925 
L 1325 2925 
L 1325 3391 
L 5106 3391 
L 5106 2925 
L 3494 2925 
L 3494 1978 
L 5422 1978 
L 5422 1509 
L 3494 1509 
L 3494 428 
L 4263 403 
L 6100 416 
z
" transform="scale(0.015625)"/>
     </defs>
     <use xlink:href="#ArialUnicodeMS-91cf"/>
     <use xlink:href="#ArialUnicodeMS-5b50" x="100"/>
     <use xlink:href="#ArialUnicodeMS-6001" x="200"/>
     <use xlink:href="#ArialUnicodeMS-7a33" x="300"/>
     <use xlink:href="#ArialUnicodeMS-5b9a" x="400"/>
    </g>
   </g>
   <g id="text_23">
    <!-- kT 热噪声 vs 量子比特信号 -->
    <g style="fill: #334155" transform="translate(531.192702 15.154375) scale(0.11 -0.11)">
     <defs>
      <path id="ArialUnicodeMS-6b" d="M 3175 0 
L 2484 0 
L 1381 1697 
L 984 1319 
L 984 0 
L 422 0 
L 422 4581 
L 984 4581 
L 984 1972 
L 2316 3316 
L 3047 3316 
L 1778 2088 
L 3175 0 
z
" transform="scale(0.015625)"/>
      <path id="ArialUnicodeMS-54" d="M 3769 4038 
L 2253 4038 
L 2253 0 
L 1644 0 
L 1644 4038 
L 141 4038 
L 141 4581 
L 3769 4581 
L 3769 4038 
z
" transform="scale(0.015625)"/>
      <path id="ArialUnicodeMS-70ed" d="M 6041 2247 
Q 5856 1413 5494 1413 
Q 5116 1413 4897 2083 
Q 4678 2753 4678 3963 
L 4019 3963 
Q 3975 2956 3950 2881 
Q 4272 2641 4622 2309 
L 4306 1925 
Q 3944 2297 3788 2425 
Q 3578 1884 2663 1281 
L 2309 1684 
Q 3122 2156 3378 2706 
Q 3081 2941 2791 3066 
L 3091 3425 
Q 3419 3222 3500 3156 
Q 3522 3238 3559 3963 
L 2888 3963 
L 2888 4428 
L 3513 4428 
L 3513 5306 
L 4000 5234 
L 4000 4428 
L 5178 4428 
Q 5191 2688 5336 2336 
Q 5481 1984 5506 1984 
Q 5559 1984 5638 2584 
L 6041 2247 
z
M 2731 3116 
L 1997 2834 
L 1997 1931 
Q 1997 1700 1870 1586 
Q 1744 1472 1551 1450 
Q 1359 1428 872 1428 
L 703 1913 
Q 1197 1894 1378 1894 
Q 1463 1894 1486 1900 
Q 1509 1906 1509 1978 
L 1509 2656 
L 628 2328 
L 300 2766 
Q 466 2800 1509 3138 
L 1509 4097 
L 434 4097 
L 434 4563 
L 1509 4563 
L 1509 5300 
L 1997 5300 
L 1997 4563 
L 2731 4563 
L 2731 4097 
L 1997 4097 
L 1997 3328 
Q 2428 3472 2731 3597 
L 2731 3116 
z
M 1678 978 
Q 1263 97 659 -403 
L 288 -78 
Q 909 503 1275 1209 
L 1678 978 
z
M 6088 -103 
L 5684 -403 
Q 5638 -328 5555 -136 
Q 5472 56 5222 397 
Q 4972 738 4666 978 
L 5050 1203 
Q 5703 731 6088 -103 
z
M 4569 -38 
L 4097 -250 
Q 3869 447 3359 909 
L 3781 1106 
Q 4319 616 4569 -38 
z
M 3138 -44 
L 2688 -244 
Q 2384 559 1984 863 
L 2425 1044 
Q 2938 544 3138 -44 
z
" transform="scale(0.015625)"/>
      <path id="ArialUnicodeMS-566a" d="M 5081 3669 
L 2631 3669 
L 2631 5069 
L 5081 5069 
L 5081 3669 
z
M 4575 4134 
L 4575 4628 
L 3116 4628 
L 3116 4134 
L 4575 4134 
z
M 1888 947 
L 1403 947 
L 1403 1300 
L 997 1300 
L 997 928 
L 513 928 
L 513 4609 
L 1888 4609 
L 1888 947 
z
M 1403 1784 
L 1403 4141 
L 997 4141 
L 997 1784 
L 1403 1784 
z
M 5594 2022 
L 3994 2022 
L 3994 3456 
L 5594 3456 
L 5594 2022 
z
M 5106 2438 
L 5106 2988 
L 4447 2988 
L 4447 2438 
L 5106 2438 
z
M 6106 306 
L 5784 -128 
Q 4472 363 4116 1131 
L 4116 -447 
L 3622 -447 
L 3622 1131 
Q 3184 294 1888 -178 
L 1544 256 
Q 2719 591 3144 1216 
L 1953 1216 
L 1953 1684 
L 3628 1684 
L 3628 1997 
L 2163 1997 
L 2163 3431 
L 3750 3431 
L 3750 1997 
L 4116 1997 
L 4116 1684 
L 5838 1684 
L 5838 1216 
L 4575 1216 
Q 5100 578 6106 306 
z
M 3297 2438 
L 3297 2988 
L 2619 2988 
L 2619 2438 
L 3297 2438 
z
" transform="scale(0.015625)"/>
      <path id="ArialUnicodeMS-58f0" d="M 5931 4244 
L 3475 4244 
L 3475 3872 
L 5472 3872 
L 5472 3406 
L 997 3406 
L 997 3872 
L 2988 3872 
L 2988 4244 
L 513 4244 
L 513 4709 
L 2988 4709 
L 2988 5356 
L 3475 5356 
L 3475 4709 
L 5931 4709 
L 5931 4244 
z
M 5344 1472 
L 1825 1472 
Q 1794 916 1486 400 
Q 1178 -116 647 -353 
L 300 13 
Q 763 238 1053 667 
Q 1344 1097 1344 1544 
L 1344 3138 
L 5344 3138 
L 5344 1472 
z
M 4856 1941 
L 4856 2669 
L 3603 2669 
L 3603 1941 
L 4856 1941 
z
M 3116 1941 
L 3116 2669 
L 1831 2669 
L 1831 1941 
L 3116 1941 
z
" transform="scale(0.015625)"/>
      <path id="ArialUnicodeMS-76" d="M 3122 3316 
L 1869 0 
L 1344 0 
L 84 3316 
L 678 3316 
L 1363 1397 
Q 1556 853 1594 659 
L 1606 659 
Q 1656 859 1778 1197 
L 2547 3316 
L 3122 3316 
z
" transform="scale(0.015625)"/>
      <path id="ArialUnicodeMS-73" d="M 2278 2388 
Q 2241 2659 2058 2795 
Q 1875 2931 1550 2931 
Q 1228 2931 1029 2822 
Q 831 2713 831 2503 
Q 831 2306 989 2222 
Q 1147 2138 1613 2016 
Q 2138 1881 2398 1778 
Q 2659 1675 2804 1489 
Q 2950 1303 2950 972 
Q 2950 528 2587 225 
Q 2225 -78 1619 -78 
Q 988 -78 633 189 
Q 278 456 197 991 
L 756 1075 
Q 800 728 1014 556 
Q 1228 384 1613 384 
Q 1981 384 2178 539 
Q 2375 694 2375 916 
Q 2375 1066 2284 1156 
Q 2194 1247 2058 1292 
Q 1922 1338 1447 1453 
Q 741 1622 514 1862 
Q 288 2103 288 2438 
Q 288 2853 619 3122 
Q 950 3391 1509 3391 
Q 2103 3391 2433 3158 
Q 2763 2925 2828 2463 
L 2278 2388 
z
" transform="scale(0.015625)"/>
      <path id="ArialUnicodeMS-4fe1" d="M 2113 5100 
Q 1991 4697 1822 4250 
L 1650 3834 
L 1650 -434 
L 1166 -434 
L 1166 2969 
Q 969 2606 609 2181 
L 206 2503 
Q 1144 3613 1656 5281 
L 2113 5100 
z
M 5594 4728 
L 2363 4728 
L 2363 5197 
L 5594 5197 
L 5594 4728 
z
M 6022 3872 
L 2003 3872 
L 2003 4341 
L 6022 4341 
L 6022 3872 
z
M 5588 2938 
L 2356 2938 
L 2356 3406 
L 5588 3406 
L 5588 2938 
z
M 5588 2022 
L 2356 2022 
L 2356 2491 
L 5588 2491 
L 5588 2022 
z
M 5509 -434 
L 5044 -434 
L 5044 -56 
L 2894 -56 
L 2894 -434 
L 2425 -434 
L 2425 1528 
L 5509 1528 
L 5509 -434 
z
M 5044 359 
L 5044 1113 
L 2894 1113 
L 2894 359 
L 5044 359 
z
" transform="scale(0.015625)"/>
      <path id="ArialUnicodeMS-53f7" d="M 4891 3353 
L 1509 3353 
L 1509 5147 
L 4891 5147 
L 4891 3353 
z
M 4403 3822 
L 4403 4678 
L 1997 4678 
L 1997 3822 
L 4403 3822 
z
M 5984 2534 
L 2188 2534 
L 2088 1997 
L 5088 1997 
Q 4959 334 4737 -20 
Q 4516 -375 4031 -375 
Q 3856 -375 3256 -319 
L 3116 275 
Q 3681 116 4038 116 
Q 4238 116 4336 355 
Q 4434 594 4506 1528 
L 2003 1528 
L 1888 1050 
L 1381 1131 
L 1663 2534 
L 416 2534 
L 416 3003 
L 5984 3003 
L 5984 2534 
z
" transform="scale(0.015625)"/>
     </defs>
     <use xlink:href="#ArialUnicodeMS-6b"/>
     <use xlink:href="#ArialUnicodeMS-54" x="50"/>
     <use xlink:href="#ArialUnicodeMS-20" x="111.083984"/>
     <use xlink:href="#ArialUnicodeMS-70ed" x="138.867188"/>
     <use xlink:href="#ArialUnicodeMS-566a" x="238.867188"/>
     <use xlink:href="#ArialUnicodeMS-58f0" x="338.867188"/>
     <use xlink:href="#ArialUnicodeMS-20" x="438.867188"/>
     <use xlink:href="#ArialUnicodeMS-76" x="466.650391"/>
     <use xlink:href="#ArialUnicodeMS-73" x="516.650391"/>
     <use xlink:href="#ArialUnicodeMS-20" x="566.650391"/>
     <use xlink:href="#ArialUnicodeMS-91cf" x="594.433594"/>
     <use xlink:href="#ArialUnicodeMS-5b50" x="694.433594"/>
     <use xlink:href="#ArialUnicodeMS-6bd4" x="794.433594"/>
     <use xlink:href="#ArialUnicodeMS-7279" x="894.433594"/>
     <use xlink:href="#ArialUnicodeMS-4fe1" x="994.433594"/>
     <use xlink:href="#ArialUnicodeMS-53f7" x="1094.433594"/>
    </g>
   </g>
  </g>
 </g>
 <defs>
  <clipPath id="p6ddcbf3eee">
   <rect x="47.02625" y="23.154375" width="279.589655" height="239.76"/>
  </clipPath>
  <clipPath id="p568f1ed354">
   <rect x="426.02556" y="23.154375" width="341.72069" height="239.76"/>
  </clipPath>
 </defs>
 <defs>
  <pattern id="h0fb9c24cd9" patternUnits="userSpaceOnUse" x="0" y="0" width="72" height="72">
   <rect x="0" y="0" width="73" height="73" fill="#7c3aed"/>
   <path d="M -36 36 
L 36 -36 
M -30 42 
L 42 -30 
M -24 48 
L 48 -24 
M -18 54 
L 54 -18 
M -12 60 
L 60 -12 
M -6 66 
L 66 -6 
M 0 72 
L 72 0 
M 6 78 
L 78 6 
M 12 84 
L 84 12 
M 18 90 
L 90 18 
M 24 96 
L 96 24 
M 30 102 
L 102 30 
M 36 108 
L 108 36 
" style="fill: #7c3aed; stroke: #7c3aed; stroke-width: 1.0; stroke-linecap: butt; stroke-linejoin: miter"/>
  </pattern>
 </defs>
</svg>
