<svg xmlns="http://www.w3.org/2000/svg" viewBox="0 0 200 205" width="400" height="410">
  <defs>
    <style>
      .bg-blue { fill: #0D3692; }
      .bg-teal { fill: #1A9C8E; }
    </style>
  </defs>
  <!-- Shadow: rx:ry=52:17≈3:1, e≈0.945 -->
  <ellipse cx="100" cy="180" rx="52" ry="17" fill="#1A9C8E" fill-opacity="0.2" stroke="#1A9C8E" stroke-width="2.5"/>
  <!-- Unified die+triangle path: top corners rounded (rx=10), bottom corners square → triangle tip -->
  <path d="M 70,40 Q 60,40 60,50 L 60,120 L 100,180 L 140,120 L 140,50 Q 140,40 130,40 Z" class="bg-blue"/>
  <!-- 8 pads: top/bottom/left/right, width=10px, extension=14px, at 1/4 and 3/4 of each edge -->
  <g class="bg-teal">
    <rect x="75" y="26" width="10" height="14" rx="2"/>
    <rect x="115" y="26" width="10" height="14" rx="2"/>
    <rect x="75" y="120" width="10" height="14" rx="2"/>
    <rect x="115" y="120" width="10" height="14" rx="2"/>
    <rect x="46" y="55" width="14" height="10" rx="2"/>
    <rect x="46" y="95" width="14" height="10" rx="2"/>
    <rect x="140" y="55" width="14" height="10" rx="2"/>
    <rect x="140" y="95" width="14" height="10" rx="2"/>
  </g>
  <!-- Inner border -->
  <rect x="67" y="47" width="66" height="66" fill="none" stroke="#1A9C8E" stroke-width="1.5" rx="7" opacity="0.8"/>
  <!-- Pin 1 dot -->
  <circle cx="74" cy="54" r="4.5" class="bg-teal"/>
  <!-- IC text -->
  <text x="100" y="96" font-family="Arial, Helvetica, sans-serif" font-weight="900" font-size="38" fill="#ffffff" text-anchor="middle" letter-spacing="2">IC</text>
</svg>
