<svg xmlns="http://www.w3.org/2000/svg" viewBox="0 0 200 200" width="400" height="400">

  <defs>

    <style>

      .bg-blue { fill: #0D3692; }

      .stroke-blue { stroke: #0D3692; }

      .bg-teal { fill: #1A9C8E; }

      .stroke-teal { stroke: #1A9C8E; }

    </style>

  </defs>



  <circle cx="100" cy="100" r="88" fill="none" class="stroke-teal" stroke-width="4"/>



  <line x1="38" y1="38" x2="52" y2="52" class="stroke-teal" stroke-width="6" stroke-linecap="round"/>

  <line x1="162" y1="38" x2="148" y2="52" class="stroke-teal" stroke-width="6" stroke-linecap="round"/>

  <line x1="162" y1="162" x2="148" y2="148" class="stroke-teal" stroke-width="6" stroke-linecap="round"/>

  <line x1="38" y1="162" x2="52" y2="148" class="stroke-teal" stroke-width="6" stroke-linecap="round"/>



  <polygon points="100,6 120,38 107,38 107,65 93,65 93,38 80,38" class="bg-blue" transform="rotate(45,100,100)"/>

  

  <line x1="100" y1="135" x2="100" y2="160" class="stroke-blue" stroke-width="12" transform="rotate(45,100,100)"/>

  <circle cx="100" cy="172" r="8" fill="none" class="stroke-teal" stroke-width="5" transform="rotate(45,100,100)"/>



  <g class="bg-teal">

    <rect x="70" y="53" width="12" height="15" rx="3"/>

    <rect x="118" y="53" width="12" height="15" rx="3"/>

    

    <rect x="70" y="132" width="12" height="15" rx="3"/>

    <rect x="118" y="132" width="12" height="15" rx="3"/>

    

    <rect x="53" y="70" width="15" height="12" rx="3"/>

    <rect x="53" y="118" width="15" height="12" rx="3"/>

    

    <rect x="132" y="70" width="15" height="12" rx="3"/>

    <rect x="132" y="118" width="15" height="12" rx="3"/>

  </g>



  <rect x="65" y="65" width="70" height="70" class="bg-blue" rx="8"/>

  

  <rect x="71" y="71" width="58" height="58" fill="none" class="stroke-teal" stroke-width="1.5" rx="5" opacity="0.8"/>

  

  <circle cx="79" cy="79" r="3.5" class="bg-teal"/>



  <text x="100" y="112" font-family="Arial, Helvetica, sans-serif" font-weight="900" font-size="34" fill="#ffffff" text-anchor="middle" letter-spacing="1">IC</text>



</svg>